G04*
G04 #@! TF.GenerationSoftware,Altium Limited,Altium Designer,21.0.9 (235)*
G04*
G04 Layer_Color=32768*
%FSLAX25Y25*%
%MOIN*%
G70*
G04*
G04 #@! TF.SameCoordinates,E84AEAD4-148F-411F-9A4D-F382D4A6362F*
G04*
G04*
G04 #@! TF.FilePolarity,Positive*
G04*
G01*
G75*
%ADD12C,0.00600*%
%ADD94C,0.00197*%
%ADD96C,0.00394*%
G36*
X435616Y295420D02*
Y299771D01*
X439967D01*
Y305121D01*
X511965D01*
Y299771D01*
X516316D01*
Y295420D01*
X521666D01*
Y223422D01*
X516316D01*
Y219071D01*
X511965D01*
Y213721D01*
X439967D01*
Y219071D01*
X435616D01*
Y223422D01*
X430266D01*
Y295420D01*
X435616D01*
D02*
G37*
D12*
Y299771D02*
X439967D01*
Y305121D01*
X511965D01*
Y299771D02*
Y305121D01*
Y299771D02*
X516316D01*
X435616Y219071D02*
X439967D01*
Y213721D02*
Y219071D01*
Y213721D02*
X511965D01*
Y219071D01*
X516316D01*
Y295420D02*
Y299771D01*
Y295420D02*
X521666D01*
Y223422D02*
Y295420D01*
X516316Y223422D02*
X521666D01*
X516316Y219071D02*
Y223422D01*
X435616Y295420D02*
Y299771D01*
X430266Y295420D02*
X435616D01*
X430266Y223422D02*
Y295420D01*
Y223422D02*
X435616D01*
Y219071D02*
Y223422D01*
D94*
X453598Y390244D02*
X503402D01*
X453598Y345756D02*
X503402D01*
X453598D02*
Y390244D01*
X503402Y345756D02*
Y390244D01*
X274465Y232382D02*
Y242618D01*
X257535Y232382D02*
Y242618D01*
Y232382D02*
X274465D01*
X257535Y242618D02*
X274465D01*
X581071Y241610D02*
Y325390D01*
X559811Y241610D02*
X581071D01*
X559811D02*
Y325390D01*
X581071D01*
X516878Y173039D02*
Y183827D01*
X434122Y173039D02*
X516878D01*
X434122D02*
Y183827D01*
X516878D01*
X492835Y207134D02*
X497165D01*
X492835Y198866D02*
X497165D01*
Y207134D01*
X492835Y198866D02*
Y207134D01*
X492469Y197882D02*
Y208118D01*
X488531D02*
X492469D01*
X488531Y197882D02*
X492469D01*
X488531D02*
Y208118D01*
X309413Y372362D02*
X318468D01*
X309413Y367638D02*
X318468D01*
Y372362D01*
X309413Y367638D02*
Y372362D01*
X296335Y362307D02*
X300665D01*
X296335Y370575D02*
X300665D01*
Y362307D02*
Y370575D01*
X296335Y362307D02*
Y370575D01*
X291638Y362366D02*
X296362D01*
X291638Y370634D02*
X296362D01*
X291638Y362366D02*
Y370634D01*
X296362Y362366D02*
Y370634D01*
X296638Y370634D02*
X301362D01*
X296638Y362366D02*
X301362D01*
Y370634D01*
X296638Y362366D02*
Y370634D01*
X268882Y380126D02*
X279118D01*
X268882Y363197D02*
X279118D01*
X268882D02*
Y380126D01*
X279118Y363197D02*
Y380126D01*
X458835Y407366D02*
X463165D01*
X458835Y415634D02*
X463165D01*
Y407366D02*
Y415634D01*
X458835Y407366D02*
Y415634D01*
X464335Y407366D02*
X468665D01*
X464335Y415634D02*
X468665D01*
Y407366D02*
Y415634D01*
X464335Y407366D02*
Y415634D01*
X269866Y256307D02*
Y269693D01*
X278134Y256307D02*
Y269693D01*
X269866D02*
X278134D01*
X269866Y256307D02*
X278134D01*
X314638Y211634D02*
X319362D01*
X314638Y203366D02*
X319362D01*
X314638D02*
Y211634D01*
X319362Y203366D02*
Y211634D01*
X320138Y203366D02*
X324862D01*
X320138Y211634D02*
X324862D01*
Y203366D02*
Y211634D01*
X320138Y203366D02*
Y211634D01*
X341835Y188634D02*
X346165D01*
X341835Y180366D02*
X346165D01*
X341835D02*
Y188634D01*
X346165Y180366D02*
Y188634D01*
X287858Y296398D02*
X300142D01*
X287858Y308602D02*
X300142D01*
Y296398D02*
Y308602D01*
X287858Y296398D02*
Y308602D01*
X315858Y297602D02*
X328142D01*
X315858Y285398D02*
X328142D01*
X315858D02*
Y297602D01*
X328142Y285398D02*
Y297602D01*
X492472Y357862D02*
X501528D01*
X492472Y353138D02*
X501528D01*
Y357862D01*
X492472Y353138D02*
Y357862D01*
X455473Y358138D02*
X464528D01*
X455473Y362862D02*
X464528D01*
X455473Y358138D02*
Y362862D01*
X464528Y358138D02*
Y362862D01*
X531866Y309835D02*
Y314165D01*
X540134Y309835D02*
Y314165D01*
X531866Y309835D02*
X540134D01*
X531866Y314165D02*
X540134D01*
X531866Y322835D02*
Y327165D01*
X540134Y322835D02*
Y327165D01*
X531866Y322835D02*
X540134D01*
X531866Y327165D02*
X540134D01*
X453862Y210972D02*
Y220028D01*
X449138Y210972D02*
Y220028D01*
Y210972D02*
X453862D01*
X449138Y220028D02*
X453862D01*
X427413Y245638D02*
X436469D01*
X427413Y250362D02*
X436469D01*
X427413Y245638D02*
Y250362D01*
X436469Y245638D02*
Y250362D01*
X453138Y298972D02*
Y308028D01*
X457862Y298972D02*
Y308028D01*
X453138D02*
X457862D01*
X453138Y298972D02*
X457862D01*
X427472Y276138D02*
X436528D01*
X427472Y280862D02*
X436528D01*
X427472Y276138D02*
Y280862D01*
X436528Y276138D02*
Y280862D01*
X395461Y367429D02*
X415539D01*
X395461Y383571D02*
X415539D01*
Y367429D02*
Y383571D01*
X395461Y367429D02*
Y383571D01*
X412866Y368807D02*
Y382193D01*
X421134Y368807D02*
Y382193D01*
X412866D02*
X421134D01*
X412866Y368807D02*
X421134D01*
X397307Y406134D02*
X410693D01*
X397307Y397866D02*
X410693D01*
Y406134D01*
X397307Y397866D02*
Y406134D01*
X403634Y368653D02*
Y382039D01*
X395366Y368653D02*
Y382039D01*
Y368653D02*
X403634D01*
X395366Y382039D02*
X403634D01*
X318807Y410134D02*
X332193D01*
X318807Y401866D02*
X332193D01*
Y410134D01*
X318807Y401866D02*
Y410134D01*
X372307Y403366D02*
X385693D01*
X372307Y411634D02*
X385693D01*
X372307Y403366D02*
Y411634D01*
X385693Y403366D02*
Y411634D01*
X397504Y413469D02*
X410496D01*
X397504Y399492D02*
X410496D01*
Y413469D01*
X397504Y399492D02*
Y413469D01*
X397362Y399972D02*
Y409028D01*
X392638Y399972D02*
Y409028D01*
X397362D01*
X392638Y399972D02*
X397362D01*
X329634Y411835D02*
Y416165D01*
X321366Y411835D02*
Y416165D01*
X329634D01*
X321366Y411835D02*
X329634D01*
X478244Y308362D02*
X483756D01*
X478244Y298126D02*
X483756D01*
X478244D02*
Y308362D01*
X483756Y298126D02*
Y308362D01*
X515472Y268862D02*
X524528D01*
X515472Y264138D02*
X524528D01*
Y268862D01*
X515472Y264138D02*
Y268862D01*
X441138Y298972D02*
Y308028D01*
X445862Y298972D02*
Y308028D01*
X441138D02*
X445862D01*
X441138Y298972D02*
X445862D01*
X427472Y271138D02*
X436528D01*
X427472Y275862D02*
X436528D01*
X427472Y271138D02*
Y275862D01*
X436528Y271138D02*
Y275862D01*
X427413Y291638D02*
X436469D01*
X427413Y296362D02*
X436469D01*
X427413Y291638D02*
Y296362D01*
X436469Y291638D02*
Y296362D01*
X515413Y239362D02*
X524469D01*
X515413Y234638D02*
X524469D01*
Y239362D01*
X515413Y234638D02*
Y239362D01*
X515472Y276862D02*
X524528D01*
X515472Y272138D02*
X524528D01*
Y276862D01*
X515472Y272138D02*
Y276862D01*
X500138Y298972D02*
Y308028D01*
X504862Y298972D02*
Y308028D01*
X500138D02*
X504862D01*
X500138Y298972D02*
X504862D01*
X488862Y210972D02*
Y220028D01*
X484138Y210972D02*
Y220028D01*
Y210972D02*
X488862D01*
X484138Y220028D02*
X488862D01*
X515413Y227362D02*
X524469D01*
X515413Y222638D02*
X524469D01*
Y227362D01*
X515413Y222638D02*
Y227362D01*
X500862Y210972D02*
Y220028D01*
X496138Y210972D02*
Y220028D01*
Y210972D02*
X500862D01*
X496138Y220028D02*
X500862D01*
X515472Y244862D02*
X524528D01*
X515472Y240138D02*
X524528D01*
Y244862D01*
X515472Y240138D02*
Y244862D01*
X459138Y298972D02*
Y308028D01*
X463862Y298972D02*
Y308028D01*
X459138D02*
X463862D01*
X459138Y298972D02*
X463862D01*
X515413Y286362D02*
X524469D01*
X515413Y281638D02*
X524469D01*
Y286362D01*
X515413Y281638D02*
Y286362D01*
X515472Y252862D02*
X524528D01*
X515472Y248138D02*
X524528D01*
Y252862D01*
X515472Y248138D02*
Y252862D01*
X427413Y240638D02*
X436469D01*
X427413Y245362D02*
X436469D01*
X427413Y240638D02*
Y245362D01*
X436469Y240638D02*
Y245362D01*
X459862Y210972D02*
Y220028D01*
X455138Y210972D02*
Y220028D01*
Y210972D02*
X459862D01*
X455138Y220028D02*
X459862D01*
X427472Y285638D02*
X436528D01*
X427472Y290362D02*
X436528D01*
X427472Y285638D02*
Y290362D01*
X436528Y285638D02*
Y290362D01*
X427531Y254138D02*
X436587D01*
X427531Y258862D02*
X436587D01*
X427531Y254138D02*
Y258862D01*
X436587Y254138D02*
Y258862D01*
X483362Y210972D02*
Y220028D01*
X478638Y210972D02*
Y220028D01*
Y210972D02*
X483362D01*
X478638Y220028D02*
X483362D01*
X328472Y179638D02*
X337528D01*
X328472Y184362D02*
X337528D01*
X328472Y179638D02*
Y184362D01*
X337528Y179638D02*
Y184362D01*
X397807Y415634D02*
X411193D01*
X397807Y407366D02*
X411193D01*
Y415634D01*
X397807Y407366D02*
Y415634D01*
X409138Y370972D02*
Y380028D01*
X413862Y370972D02*
Y380028D01*
X409138D02*
X413862D01*
X409138Y370972D02*
X413862D01*
X371870Y251610D02*
Y335390D01*
X393130D01*
Y251610D02*
Y335390D01*
X371870Y251610D02*
X393130D01*
X393890Y209370D02*
Y230630D01*
X350110D02*
X393890D01*
X350110Y209370D02*
Y230630D01*
Y209370D02*
X393890D01*
X344110Y356870D02*
X387890D01*
X344110D02*
Y378130D01*
X387890D01*
Y356870D02*
Y378130D01*
X581071Y173047D02*
Y206827D01*
X559811Y173047D02*
Y206827D01*
X581071D01*
X559811Y173047D02*
X581071D01*
X350110Y193807D02*
X393890D01*
Y172547D02*
Y193807D01*
X350110Y172547D02*
X393890D01*
X350110D02*
Y193807D01*
X498823Y404689D02*
Y415476D01*
X581579D01*
Y404689D02*
Y415476D01*
X498823Y404689D02*
X581579D01*
D96*
X478500Y366032D02*
Y369969D01*
X476532Y368000D02*
X480469D01*
X264032Y237500D02*
X267969D01*
X266000Y235531D02*
Y239469D01*
X475500Y176465D02*
Y180402D01*
X473531Y178433D02*
X477468D01*
X495000Y201228D02*
Y204772D01*
X493228Y203000D02*
X496772D01*
X490500Y202016D02*
Y203984D01*
X489516Y203000D02*
X491484D01*
X313941Y368110D02*
Y371890D01*
X312051Y370000D02*
X315831D01*
X298500Y364669D02*
Y368213D01*
X296728Y366441D02*
X300272D01*
X294000Y364630D02*
Y368370D01*
X292130Y366500D02*
X295870D01*
X299000Y364630D02*
Y368370D01*
X297130Y366500D02*
X300870D01*
X274000Y369693D02*
Y373630D01*
X272031Y371661D02*
X275969D01*
X484835Y317776D02*
X489165D01*
X484835Y327224D02*
X489165D01*
X484835Y317776D02*
Y327224D01*
X489165Y317776D02*
Y327224D01*
X487000Y320630D02*
Y324370D01*
X485130Y322500D02*
X488870D01*
X461000Y409728D02*
Y413272D01*
X459228Y411500D02*
X462772D01*
X466500Y409728D02*
Y413272D01*
X464728Y411500D02*
X468272D01*
X272228Y263000D02*
X275772D01*
X274000Y261228D02*
Y264772D01*
X317000Y205630D02*
Y209370D01*
X315130Y207500D02*
X318870D01*
X322500Y205630D02*
Y209370D01*
X320630Y207500D02*
X324370D01*
X344000Y182728D02*
Y186272D01*
X342228Y184500D02*
X345772D01*
X294000Y300532D02*
Y304468D01*
X292032Y302500D02*
X295969D01*
X322000Y289531D02*
Y293468D01*
X320031Y291500D02*
X323969D01*
X497000Y353610D02*
Y357390D01*
X495110Y355500D02*
X498890D01*
X460000Y358610D02*
Y362390D01*
X458110Y360500D02*
X461890D01*
X534228Y312000D02*
X537772D01*
X536000Y310228D02*
Y313772D01*
X534228Y325000D02*
X537772D01*
X536000Y323228D02*
Y326772D01*
X449610Y215500D02*
X453390D01*
X451500Y213610D02*
Y217390D01*
X431941Y246110D02*
Y249890D01*
X430051Y248000D02*
X433831D01*
X453610Y303500D02*
X457390D01*
X455500Y301610D02*
Y305390D01*
X432000Y276610D02*
Y280390D01*
X430110Y278500D02*
X433890D01*
X405500Y373532D02*
Y377468D01*
X403532Y375500D02*
X407469D01*
X415228D02*
X418772D01*
X417000Y373728D02*
Y377272D01*
X404000Y400228D02*
Y403772D01*
X402228Y402000D02*
X405772D01*
X397728Y375346D02*
X401272D01*
X399500Y373575D02*
Y377118D01*
X325500Y404228D02*
Y407772D01*
X323728Y406000D02*
X327272D01*
X379000Y405728D02*
Y409272D01*
X377228Y407500D02*
X380772D01*
X404000Y404512D02*
Y408449D01*
X402032Y406480D02*
X405969D01*
X393110Y404500D02*
X396890D01*
X395000Y402610D02*
Y406390D01*
X323728Y414000D02*
X327272D01*
X325500Y412228D02*
Y415772D01*
X481000Y301472D02*
Y305016D01*
X479228Y303244D02*
X482772D01*
X520000Y264610D02*
Y268390D01*
X518110Y266500D02*
X521890D01*
X441610Y303500D02*
X445390D01*
X443500Y301610D02*
Y305390D01*
X432000Y271610D02*
Y275390D01*
X430110Y273500D02*
X433890D01*
X431941Y292110D02*
Y295890D01*
X430051Y294000D02*
X433831D01*
X519941Y235110D02*
Y238890D01*
X518051Y237000D02*
X521831D01*
X520000Y272610D02*
Y276390D01*
X518110Y274500D02*
X521890D01*
X500610Y303500D02*
X504390D01*
X502500Y301610D02*
Y305390D01*
X484610Y215500D02*
X488390D01*
X486500Y213610D02*
Y217390D01*
X519941Y223110D02*
Y226890D01*
X518051Y225000D02*
X521831D01*
X496610Y215500D02*
X500390D01*
X498500Y213610D02*
Y217390D01*
X520000Y240610D02*
Y244390D01*
X518110Y242500D02*
X521890D01*
X459610Y303500D02*
X463390D01*
X461500Y301610D02*
Y305390D01*
X519941Y282110D02*
Y285890D01*
X518051Y284000D02*
X521831D01*
X520000Y248610D02*
Y252390D01*
X518110Y250500D02*
X521890D01*
X431941Y241110D02*
Y244890D01*
X430051Y243000D02*
X433831D01*
X455610Y215500D02*
X459390D01*
X457500Y213610D02*
Y217390D01*
X432000Y286110D02*
Y289890D01*
X430110Y288000D02*
X433890D01*
X432059Y254610D02*
Y258390D01*
X430169Y256500D02*
X433949D01*
X479110Y215500D02*
X482890D01*
X481000Y213610D02*
Y217390D01*
X333000Y180110D02*
Y183890D01*
X331110Y182000D02*
X334890D01*
X534000Y310032D02*
Y313968D01*
X532031Y312000D02*
X535968D01*
X527209Y308653D02*
X540791D01*
X527209Y315347D02*
X540791D01*
Y308653D02*
Y315347D01*
X527209Y308653D02*
Y315347D01*
X534000Y323031D02*
Y326969D01*
X532031Y325000D02*
X535968D01*
X527209Y321654D02*
X540791D01*
X527209Y328346D02*
X540791D01*
Y321654D02*
Y328346D01*
X527209Y321654D02*
Y328346D01*
X404500Y409728D02*
Y413272D01*
X402728Y411500D02*
X406272D01*
X409610Y375500D02*
X413390D01*
X411500Y373610D02*
Y377390D01*
X540201Y408114D02*
Y412051D01*
X538232Y410083D02*
X542169D01*
X331504Y407441D02*
Y412559D01*
X319496Y407441D02*
Y412559D01*
Y407441D02*
X331504D01*
X319496Y412559D02*
X331504D01*
X323728Y410000D02*
X327272D01*
X325500Y408228D02*
Y411772D01*
M02*
