G04*
G04 #@! TF.GenerationSoftware,Altium Limited,Altium Designer,21.0.9 (235)*
G04*
G04 Layer_Color=8388736*
%FSLAX25Y25*%
%MOIN*%
G70*
G04*
G04 #@! TF.SameCoordinates,E84AEAD4-148F-411F-9A4D-F382D4A6362F*
G04*
G04*
G04 #@! TF.FilePolarity,Negative*
G04*
G01*
G75*
%ADD16R,0.01100X0.05350*%
%ADD17R,0.05350X0.01100*%
%ADD18R,0.27000X0.27000*%
%ADD19O,0.09849X0.03156*%
%ADD20R,0.05715X0.06502*%
%ADD21R,0.10984X0.02913*%
%ADD22R,0.03550X0.02762*%
%ADD23R,0.03550X0.03550*%
%ADD24R,0.05236X0.05236*%
%ADD25R,0.07874X0.03543*%
%ADD26R,0.03543X0.07874*%
%ADD27R,0.13189X0.13189*%
%ADD28C,0.01063*%
%ADD29R,0.03747X0.03156*%
%ADD30R,0.02953X0.03937*%
%ADD31R,0.02756X0.03937*%
%ADD32R,0.02756X0.01181*%
%ADD33R,0.03943X0.03156*%
%ADD34R,0.03937X0.02953*%
%ADD35R,0.02613X0.03394*%
%ADD36R,0.04331X0.05118*%
G04:AMPARAMS|DCode=37|XSize=29.59mil|YSize=51.24mil|CornerRadius=3.92mil|HoleSize=0mil|Usage=FLASHONLY|Rotation=90.000|XOffset=0mil|YOffset=0mil|HoleType=Round|Shape=RoundedRectangle|*
%AMROUNDEDRECTD37*
21,1,0.02959,0.04341,0,0,90.0*
21,1,0.02175,0.05124,0,0,90.0*
1,1,0.00784,0.02170,0.01088*
1,1,0.00784,0.02170,-0.01088*
1,1,0.00784,-0.02170,-0.01088*
1,1,0.00784,-0.02170,0.01088*
%
%ADD37ROUNDEDRECTD37*%
G04:AMPARAMS|DCode=38|XSize=25.65mil|YSize=35.5mil|CornerRadius=3.95mil|HoleSize=0mil|Usage=FLASHONLY|Rotation=0.000|XOffset=0mil|YOffset=0mil|HoleType=Round|Shape=RoundedRectangle|*
%AMROUNDEDRECTD38*
21,1,0.02565,0.02760,0,0,0.0*
21,1,0.01776,0.03550,0,0,0.0*
1,1,0.00790,0.00888,-0.01380*
1,1,0.00790,-0.00888,-0.01380*
1,1,0.00790,-0.00888,0.01380*
1,1,0.00790,0.00888,0.01380*
%
%ADD38ROUNDEDRECTD38*%
%ADD39R,0.03943X0.03747*%
%ADD40R,0.04731X0.05124*%
%ADD41R,0.04724X0.07087*%
%ADD42R,0.02362X0.06102*%
%ADD43R,0.05906X0.12992*%
%ADD44R,0.05906X0.04724*%
%ADD45C,0.06502*%
%ADD46R,0.06502X0.06502*%
%ADD47R,0.06502X0.06502*%
G04:AMPARAMS|DCode=48|XSize=43.31mil|YSize=102.36mil|CornerRadius=21.65mil|HoleSize=0mil|Usage=FLASHONLY|Rotation=270.000|XOffset=0mil|YOffset=0mil|HoleType=Round|Shape=RoundedRectangle|*
%AMROUNDEDRECTD48*
21,1,0.04331,0.05906,0,0,270.0*
21,1,0.00000,0.10236,0,0,270.0*
1,1,0.04331,-0.02953,0.00000*
1,1,0.04331,-0.02953,0.00000*
1,1,0.04331,0.02953,0.00000*
1,1,0.04331,0.02953,0.00000*
%
%ADD48ROUNDEDRECTD48*%
G04:AMPARAMS|DCode=49|XSize=43.31mil|YSize=82.68mil|CornerRadius=21.65mil|HoleSize=0mil|Usage=FLASHONLY|Rotation=270.000|XOffset=0mil|YOffset=0mil|HoleType=Round|Shape=RoundedRectangle|*
%AMROUNDEDRECTD49*
21,1,0.04331,0.03937,0,0,270.0*
21,1,0.00000,0.08268,0,0,270.0*
1,1,0.04331,-0.01968,0.00000*
1,1,0.04331,-0.01968,0.00000*
1,1,0.04331,0.01968,0.00000*
1,1,0.04331,0.01968,0.00000*
%
%ADD49ROUNDEDRECTD49*%
%ADD50C,0.05400*%
G36*
X332496Y186169D02*
Y186052D01*
X332406Y185835D01*
X332240Y185669D01*
X332023Y185579D01*
X331788D01*
X331571Y185669D01*
X331405Y185835D01*
X331315Y186052D01*
Y186169D01*
Y189319D01*
X332496D01*
Y186169D01*
D02*
G37*
G36*
X330528D02*
Y186052D01*
X330438Y185835D01*
X330272Y185669D01*
X330054Y185579D01*
X329819D01*
X329603Y185669D01*
X329436Y185835D01*
X329346Y186052D01*
Y186169D01*
Y189319D01*
X330528D01*
Y186169D01*
D02*
G37*
G36*
X328559D02*
Y186052D01*
X328469Y185835D01*
X328303Y185669D01*
X328086Y185579D01*
X327851D01*
X327634Y185669D01*
X327468Y185835D01*
X327378Y186052D01*
Y186169D01*
Y189319D01*
X328559D01*
X328559Y186169D01*
D02*
G37*
G36*
X326590D02*
Y186052D01*
X326501Y185835D01*
X326335Y185669D01*
X326117Y185579D01*
X325883D01*
X325665Y185669D01*
X325499Y185835D01*
X325410Y186052D01*
Y186169D01*
Y189319D01*
X326590D01*
Y186169D01*
D02*
G37*
G36*
X324622D02*
Y186052D01*
X324532Y185835D01*
X324366Y185669D01*
X324149Y185579D01*
X323914D01*
X323697Y185669D01*
X323531Y185835D01*
X323441Y186052D01*
Y186169D01*
X323441D01*
Y189319D01*
X324622D01*
Y186169D01*
D02*
G37*
G36*
X322654D02*
Y186052D01*
X322564Y185835D01*
X322397Y185669D01*
X322181Y185579D01*
X321946D01*
X321728Y185669D01*
X321562Y185835D01*
X321472Y186052D01*
Y186169D01*
Y189319D01*
X322654D01*
Y186169D01*
D02*
G37*
G36*
X320685D02*
Y186052D01*
X320595Y185835D01*
X320429Y185669D01*
X320212Y185579D01*
X319977D01*
X319760Y185669D01*
X319594Y185835D01*
X319504Y186052D01*
Y186169D01*
Y189319D01*
X320685D01*
Y186169D01*
D02*
G37*
G36*
X337319Y183315D02*
X334052D01*
X333835Y183405D01*
X333669Y183571D01*
X333579Y183788D01*
Y183905D01*
Y184023D01*
X333669Y184240D01*
X333835Y184406D01*
X334052Y184496D01*
X337319D01*
Y183315D01*
D02*
G37*
G36*
X318165Y184406D02*
X318331Y184240D01*
X318421Y184023D01*
Y183905D01*
Y183788D01*
X318331Y183571D01*
X318165Y183405D01*
X317948Y183315D01*
X314681D01*
Y184496D01*
X317948D01*
X318165Y184406D01*
D02*
G37*
G36*
X337319Y181346D02*
X334052D01*
X333835Y181436D01*
X333669Y181603D01*
X333579Y181819D01*
Y181937D01*
Y182054D01*
X333669Y182272D01*
X333835Y182438D01*
X334052Y182528D01*
X337319D01*
Y181346D01*
D02*
G37*
G36*
X318165Y182438D02*
X318331Y182272D01*
X318421Y182054D01*
Y181937D01*
Y181819D01*
X318331Y181603D01*
X318165Y181436D01*
X317948Y181346D01*
X314681D01*
Y182528D01*
X317948D01*
X318165Y182438D01*
D02*
G37*
G36*
X337319Y179378D02*
X334052D01*
X333835Y179468D01*
X333669Y179634D01*
X333579Y179851D01*
Y179969D01*
Y180086D01*
X333669Y180303D01*
X333835Y180469D01*
X334052Y180559D01*
X334169D01*
Y180559D01*
X337319D01*
Y179378D01*
D02*
G37*
G36*
X317831Y180559D02*
X317948D01*
X318165Y180469D01*
X318331Y180303D01*
X318421Y180086D01*
Y179969D01*
Y179851D01*
X318331Y179634D01*
X318165Y179468D01*
X317948Y179378D01*
X314681D01*
Y180559D01*
X317831Y180559D01*
D02*
G37*
G36*
X337319Y177409D02*
X334052D01*
X333835Y177499D01*
X333669Y177665D01*
X333579Y177883D01*
Y178000D01*
Y178118D01*
X333669Y178334D01*
X333835Y178501D01*
X334052Y178591D01*
X337319D01*
Y177409D01*
D02*
G37*
G36*
X318165Y178501D02*
X318331Y178334D01*
X318421Y178118D01*
Y178000D01*
Y177883D01*
X318331Y177665D01*
X318165Y177499D01*
X317948Y177409D01*
X314681D01*
Y178591D01*
X317948D01*
X318165Y178501D01*
D02*
G37*
G36*
X337319Y175441D02*
X334169Y175441D01*
X334052D01*
X333835Y175531D01*
X333669Y175697D01*
X333579Y175914D01*
Y176031D01*
Y176149D01*
X333669Y176366D01*
X333835Y176532D01*
X334052Y176622D01*
X337319D01*
Y175441D01*
D02*
G37*
G36*
X318165Y176532D02*
X318331Y176366D01*
X318421Y176149D01*
Y176031D01*
Y175914D01*
X318331Y175697D01*
X318165Y175531D01*
X317948Y175441D01*
X317831D01*
Y175441D01*
X314681D01*
Y176622D01*
X317948D01*
X318165Y176532D01*
D02*
G37*
G36*
X337319Y173472D02*
X334052D01*
X333835Y173562D01*
X333669Y173729D01*
X333579Y173945D01*
Y174063D01*
Y174180D01*
X333669Y174398D01*
X333835Y174564D01*
X334052Y174653D01*
X337319D01*
Y173472D01*
D02*
G37*
G36*
X318165Y174564D02*
X318331Y174398D01*
X318421Y174180D01*
Y174063D01*
Y173945D01*
X318331Y173729D01*
X318165Y173562D01*
X317948Y173472D01*
X314681D01*
Y174653D01*
X317948D01*
X318165Y174564D01*
D02*
G37*
G36*
X337319Y171504D02*
X334052D01*
X333835Y171594D01*
X333669Y171760D01*
X333579Y171977D01*
Y172095D01*
Y172212D01*
X333669Y172429D01*
X333835Y172595D01*
X334052Y172685D01*
X337319D01*
Y171504D01*
D02*
G37*
G36*
X318165Y172595D02*
X318331Y172429D01*
X318421Y172212D01*
Y172095D01*
Y171977D01*
X318331Y171760D01*
X318165Y171594D01*
X317948Y171504D01*
X314681D01*
Y172685D01*
X317948D01*
X318165Y172595D01*
D02*
G37*
G36*
X332240Y170331D02*
X332406Y170165D01*
X332496Y169948D01*
Y169831D01*
Y166681D01*
X331315D01*
Y169831D01*
Y169948D01*
X331405Y170165D01*
X331571Y170331D01*
X331788Y170421D01*
X332023D01*
X332240Y170331D01*
D02*
G37*
G36*
X330272D02*
X330438Y170165D01*
X330528Y169948D01*
Y169831D01*
Y166681D01*
X329346D01*
Y169831D01*
Y169948D01*
X329436Y170165D01*
X329603Y170331D01*
X329819Y170421D01*
X330054D01*
X330272Y170331D01*
D02*
G37*
G36*
X328303D02*
X328469Y170165D01*
X328559Y169948D01*
Y169831D01*
X328559D01*
Y166681D01*
X327378D01*
Y169831D01*
Y169948D01*
X327468Y170165D01*
X327634Y170331D01*
X327851Y170421D01*
X328086D01*
X328303Y170331D01*
D02*
G37*
G36*
X326335D02*
X326501Y170165D01*
X326590Y169948D01*
Y169831D01*
Y166681D01*
X325410D01*
Y169831D01*
Y169948D01*
X325499Y170165D01*
X325665Y170331D01*
X325883Y170421D01*
X326117D01*
X326335Y170331D01*
D02*
G37*
G36*
X324366D02*
X324532Y170165D01*
X324622Y169948D01*
Y169831D01*
Y166681D01*
X323441D01*
X323441Y169831D01*
Y169948D01*
X323531Y170165D01*
X323697Y170331D01*
X323914Y170421D01*
X324149D01*
X324366Y170331D01*
D02*
G37*
G36*
X322397D02*
X322564Y170165D01*
X322654Y169948D01*
Y169831D01*
Y166681D01*
X321472D01*
Y169831D01*
Y169948D01*
X321562Y170165D01*
X321728Y170331D01*
X321946Y170421D01*
X322181D01*
X322397Y170331D01*
D02*
G37*
G36*
X320429D02*
X320595Y170165D01*
X320685Y169948D01*
Y169831D01*
Y166681D01*
X319504D01*
Y169831D01*
Y169948D01*
X319594Y170165D01*
X319760Y170331D01*
X319977Y170421D01*
X320212D01*
X320429Y170331D01*
D02*
G37*
G36*
X326996Y382169D02*
Y382052D01*
X326906Y381835D01*
X326740Y381669D01*
X326523Y381579D01*
X326288D01*
X326071Y381669D01*
X325905Y381835D01*
X325815Y382052D01*
Y382169D01*
Y385319D01*
X326996D01*
Y382169D01*
D02*
G37*
G36*
X325028D02*
Y382052D01*
X324938Y381835D01*
X324771Y381669D01*
X324554Y381579D01*
X324320D01*
X324102Y381669D01*
X323936Y381835D01*
X323847Y382052D01*
Y382169D01*
Y385319D01*
X325028D01*
Y382169D01*
D02*
G37*
G36*
X323059D02*
Y382052D01*
X322969Y381835D01*
X322803Y381669D01*
X322586Y381579D01*
X322351D01*
X322134Y381669D01*
X321968Y381835D01*
X321878Y382052D01*
Y382169D01*
Y385319D01*
X323059D01*
X323059Y382169D01*
D02*
G37*
G36*
X321091D02*
Y382052D01*
X321001Y381835D01*
X320834Y381669D01*
X320618Y381579D01*
X320382D01*
X320165Y381669D01*
X319999Y381835D01*
X319910Y382052D01*
Y382169D01*
Y385319D01*
X321091D01*
Y382169D01*
D02*
G37*
G36*
X319122D02*
Y382052D01*
X319032Y381835D01*
X318866Y381669D01*
X318649Y381579D01*
X318414D01*
X318197Y381669D01*
X318031Y381835D01*
X317941Y382052D01*
Y382169D01*
X317941D01*
Y385319D01*
X319122D01*
Y382169D01*
D02*
G37*
G36*
X317154D02*
Y382052D01*
X317064Y381835D01*
X316898Y381669D01*
X316681Y381579D01*
X316445D01*
X316229Y381669D01*
X316062Y381835D01*
X315972Y382052D01*
Y382169D01*
Y385319D01*
X317154D01*
Y382169D01*
D02*
G37*
G36*
X315185D02*
Y382052D01*
X315095Y381835D01*
X314929Y381669D01*
X314712Y381579D01*
X314477D01*
X314260Y381669D01*
X314094Y381835D01*
X314004Y382052D01*
Y382169D01*
Y385319D01*
X315185D01*
Y382169D01*
D02*
G37*
G36*
X331819Y379315D02*
X328552D01*
X328335Y379405D01*
X328169Y379571D01*
X328079Y379788D01*
Y379906D01*
Y380023D01*
X328169Y380240D01*
X328335Y380406D01*
X328552Y380496D01*
X331819D01*
Y379315D01*
D02*
G37*
G36*
X312665Y380406D02*
X312831Y380240D01*
X312921Y380023D01*
Y379906D01*
Y379788D01*
X312831Y379571D01*
X312665Y379405D01*
X312448Y379315D01*
X309181D01*
Y380496D01*
X312448D01*
X312665Y380406D01*
D02*
G37*
G36*
X331819Y377346D02*
X328552D01*
X328335Y377436D01*
X328169Y377603D01*
X328079Y377819D01*
Y377937D01*
Y378054D01*
X328169Y378272D01*
X328335Y378438D01*
X328552Y378528D01*
X331819D01*
Y377346D01*
D02*
G37*
G36*
X312665Y378438D02*
X312831Y378272D01*
X312921Y378054D01*
Y377937D01*
Y377819D01*
X312831Y377603D01*
X312665Y377436D01*
X312448Y377346D01*
X309181D01*
Y378528D01*
X312448D01*
X312665Y378438D01*
D02*
G37*
G36*
X331819Y375378D02*
X328552D01*
X328335Y375468D01*
X328169Y375634D01*
X328079Y375851D01*
Y375969D01*
Y376086D01*
X328169Y376303D01*
X328335Y376469D01*
X328552Y376559D01*
X328669D01*
Y376559D01*
X331819D01*
Y375378D01*
D02*
G37*
G36*
X312331Y376559D02*
X312448D01*
X312665Y376469D01*
X312831Y376303D01*
X312921Y376086D01*
Y375969D01*
Y375851D01*
X312831Y375634D01*
X312665Y375468D01*
X312448Y375378D01*
X309181D01*
Y376559D01*
X312331Y376559D01*
D02*
G37*
G36*
X331819Y373410D02*
X328552D01*
X328335Y373499D01*
X328169Y373665D01*
X328079Y373883D01*
Y374000D01*
Y374117D01*
X328169Y374335D01*
X328335Y374501D01*
X328552Y374590D01*
X331819D01*
Y373410D01*
D02*
G37*
G36*
X312665Y374501D02*
X312831Y374335D01*
X312921Y374117D01*
Y374000D01*
Y373883D01*
X312831Y373665D01*
X312665Y373499D01*
X312448Y373410D01*
X309181D01*
Y374590D01*
X312448D01*
X312665Y374501D01*
D02*
G37*
G36*
X331819Y371441D02*
X328669Y371441D01*
X328552D01*
X328335Y371531D01*
X328169Y371697D01*
X328079Y371914D01*
Y372031D01*
Y372149D01*
X328169Y372366D01*
X328335Y372532D01*
X328552Y372622D01*
X331819D01*
Y371441D01*
D02*
G37*
G36*
X312665Y372532D02*
X312831Y372366D01*
X312921Y372149D01*
Y372031D01*
Y371914D01*
X312831Y371697D01*
X312665Y371531D01*
X312448Y371441D01*
X312331D01*
Y371441D01*
X309181D01*
Y372622D01*
X312448D01*
X312665Y372532D01*
D02*
G37*
G36*
X331819Y369472D02*
X328552D01*
X328335Y369562D01*
X328169Y369728D01*
X328079Y369946D01*
Y370063D01*
Y370181D01*
X328169Y370397D01*
X328335Y370564D01*
X328552Y370654D01*
X331819D01*
Y369472D01*
D02*
G37*
G36*
X312665Y370564D02*
X312831Y370397D01*
X312921Y370181D01*
Y370063D01*
Y369946D01*
X312831Y369728D01*
X312665Y369562D01*
X312448Y369472D01*
X309181D01*
Y370654D01*
X312448D01*
X312665Y370564D01*
D02*
G37*
G36*
X331819Y367504D02*
X328552D01*
X328335Y367594D01*
X328169Y367760D01*
X328079Y367977D01*
Y368094D01*
Y368212D01*
X328169Y368429D01*
X328335Y368595D01*
X328552Y368685D01*
X331819D01*
Y367504D01*
D02*
G37*
G36*
X312665Y368595D02*
X312831Y368429D01*
X312921Y368212D01*
Y368094D01*
Y367977D01*
X312831Y367760D01*
X312665Y367594D01*
X312448Y367504D01*
X309181D01*
Y368685D01*
X312448D01*
X312665Y368595D01*
D02*
G37*
G36*
X326740Y366331D02*
X326906Y366165D01*
X326996Y365948D01*
Y365831D01*
Y362681D01*
X325815D01*
Y365831D01*
Y365948D01*
X325905Y366165D01*
X326071Y366331D01*
X326288Y366421D01*
X326523D01*
X326740Y366331D01*
D02*
G37*
G36*
X324771D02*
X324938Y366165D01*
X325028Y365948D01*
Y365831D01*
Y362681D01*
X323847D01*
Y365831D01*
Y365948D01*
X323936Y366165D01*
X324102Y366331D01*
X324320Y366421D01*
X324554D01*
X324771Y366331D01*
D02*
G37*
G36*
X322803D02*
X322969Y366165D01*
X323059Y365948D01*
Y365831D01*
X323059D01*
Y362681D01*
X321878D01*
Y365831D01*
Y365948D01*
X321968Y366165D01*
X322134Y366331D01*
X322351Y366421D01*
X322586D01*
X322803Y366331D01*
D02*
G37*
G36*
X320834D02*
X321001Y366165D01*
X321091Y365948D01*
Y365831D01*
Y362681D01*
X319910D01*
Y365831D01*
Y365948D01*
X319999Y366165D01*
X320165Y366331D01*
X320382Y366421D01*
X320618D01*
X320834Y366331D01*
D02*
G37*
G36*
X318866D02*
X319032Y366165D01*
X319122Y365948D01*
Y365831D01*
Y362681D01*
X317941D01*
X317941Y365831D01*
Y365948D01*
X318031Y366165D01*
X318197Y366331D01*
X318414Y366421D01*
X318649D01*
X318866Y366331D01*
D02*
G37*
G36*
X316898D02*
X317064Y366165D01*
X317154Y365948D01*
Y365831D01*
Y362681D01*
X315972D01*
Y365831D01*
Y365948D01*
X316062Y366165D01*
X316229Y366331D01*
X316445Y366421D01*
X316681D01*
X316898Y366331D01*
D02*
G37*
G36*
X314929D02*
X315095Y366165D01*
X315185Y365948D01*
Y365831D01*
Y362681D01*
X314004D01*
Y365831D01*
Y365948D01*
X314094Y366165D01*
X314260Y366331D01*
X314477Y366421D01*
X314712D01*
X314929Y366331D01*
D02*
G37*
D16*
X510415Y301446D02*
D03*
X508446D02*
D03*
X506478D02*
D03*
X504509D02*
D03*
X502541D02*
D03*
X500572D02*
D03*
X498604D02*
D03*
X496635D02*
D03*
X494667D02*
D03*
X492698D02*
D03*
X490730D02*
D03*
X488761D02*
D03*
X486793D02*
D03*
X484824D02*
D03*
X482856D02*
D03*
X480887D02*
D03*
X478919D02*
D03*
X476950D02*
D03*
X474982D02*
D03*
X473013D02*
D03*
X471045D02*
D03*
X469076D02*
D03*
X467108D02*
D03*
X465139D02*
D03*
X463171D02*
D03*
X461202D02*
D03*
X459234D02*
D03*
X457265D02*
D03*
X455297D02*
D03*
X453328D02*
D03*
X451360D02*
D03*
X449391D02*
D03*
X447423D02*
D03*
X445454D02*
D03*
X443486D02*
D03*
X441517D02*
D03*
Y217396D02*
D03*
X443486D02*
D03*
X445454D02*
D03*
X447423D02*
D03*
X449391D02*
D03*
X451360D02*
D03*
X453328D02*
D03*
X455297D02*
D03*
X457265D02*
D03*
X459234D02*
D03*
X461202D02*
D03*
X463171D02*
D03*
X465139D02*
D03*
X467108D02*
D03*
X469076D02*
D03*
X471045D02*
D03*
X473013D02*
D03*
X474982D02*
D03*
X476950D02*
D03*
X478919D02*
D03*
X480887D02*
D03*
X482856D02*
D03*
X484824D02*
D03*
X486793D02*
D03*
X488761D02*
D03*
X490730D02*
D03*
X492698D02*
D03*
X494667D02*
D03*
X496635D02*
D03*
X498604D02*
D03*
X500572D02*
D03*
X502541D02*
D03*
X504509D02*
D03*
X506478D02*
D03*
X508446D02*
D03*
X510415D02*
D03*
D17*
X433941Y293870D02*
D03*
Y291902D02*
D03*
Y289933D02*
D03*
Y287965D02*
D03*
Y285996D02*
D03*
Y284028D02*
D03*
Y282059D02*
D03*
Y280090D02*
D03*
Y278122D02*
D03*
Y276153D02*
D03*
Y274185D02*
D03*
Y272217D02*
D03*
Y270248D02*
D03*
Y268280D02*
D03*
Y266311D02*
D03*
Y264342D02*
D03*
Y262374D02*
D03*
Y260405D02*
D03*
Y258437D02*
D03*
Y256469D02*
D03*
Y254500D02*
D03*
Y252532D02*
D03*
Y250563D02*
D03*
Y248594D02*
D03*
Y246626D02*
D03*
Y244657D02*
D03*
Y242689D02*
D03*
Y240721D02*
D03*
Y238752D02*
D03*
Y236784D02*
D03*
Y234815D02*
D03*
Y232846D02*
D03*
Y230878D02*
D03*
Y228909D02*
D03*
Y226941D02*
D03*
Y224972D02*
D03*
X517991D02*
D03*
Y226941D02*
D03*
Y228909D02*
D03*
Y230878D02*
D03*
Y232846D02*
D03*
Y234815D02*
D03*
Y236784D02*
D03*
Y238752D02*
D03*
Y240721D02*
D03*
Y242689D02*
D03*
Y244657D02*
D03*
Y246626D02*
D03*
Y248594D02*
D03*
Y250563D02*
D03*
Y252532D02*
D03*
Y254500D02*
D03*
Y256469D02*
D03*
Y258437D02*
D03*
Y260405D02*
D03*
Y262374D02*
D03*
Y264342D02*
D03*
Y266311D02*
D03*
Y268280D02*
D03*
Y270248D02*
D03*
Y272217D02*
D03*
Y274185D02*
D03*
Y276153D02*
D03*
Y278122D02*
D03*
Y280090D02*
D03*
Y282059D02*
D03*
Y284028D02*
D03*
Y285996D02*
D03*
Y287965D02*
D03*
Y289933D02*
D03*
Y291902D02*
D03*
Y293870D02*
D03*
D18*
X475966Y259421D02*
D03*
D19*
X460291Y385500D02*
D03*
Y380500D02*
D03*
Y375500D02*
D03*
Y370500D02*
D03*
Y365500D02*
D03*
Y360500D02*
D03*
Y355500D02*
D03*
Y350500D02*
D03*
X496709Y385500D02*
D03*
Y380500D02*
D03*
Y375500D02*
D03*
Y370500D02*
D03*
Y365500D02*
D03*
Y360500D02*
D03*
Y355500D02*
D03*
Y350500D02*
D03*
D20*
X269839Y237500D02*
D03*
X262161D02*
D03*
D21*
X538988Y376500D02*
D03*
Y371500D02*
D03*
Y366500D02*
D03*
Y361500D02*
D03*
Y356500D02*
D03*
X555012Y376500D02*
D03*
Y371500D02*
D03*
Y366500D02*
D03*
Y361500D02*
D03*
Y356500D02*
D03*
X422488Y349000D02*
D03*
Y344000D02*
D03*
Y339000D02*
D03*
Y334000D02*
D03*
Y329000D02*
D03*
X438512Y349000D02*
D03*
Y344000D02*
D03*
Y339000D02*
D03*
Y334000D02*
D03*
Y329000D02*
D03*
D22*
X495000Y205559D02*
D03*
Y200441D02*
D03*
D23*
X490500Y206150D02*
D03*
Y199850D02*
D03*
X328650Y410000D02*
D03*
X322350D02*
D03*
D24*
X311433Y290500D02*
D03*
Y283276D02*
D03*
Y276051D02*
D03*
X304209Y290500D02*
D03*
Y283276D02*
D03*
Y276051D02*
D03*
X296984Y290500D02*
D03*
Y283276D02*
D03*
Y276051D02*
D03*
D25*
X343618Y309713D02*
D03*
Y304713D02*
D03*
Y299713D02*
D03*
Y294713D02*
D03*
Y289713D02*
D03*
Y284713D02*
D03*
Y279713D02*
D03*
Y274713D02*
D03*
Y269713D02*
D03*
Y264713D02*
D03*
D26*
X274681Y320677D02*
D03*
X279681D02*
D03*
X284681D02*
D03*
X289681D02*
D03*
X294681D02*
D03*
X299681D02*
D03*
X304681D02*
D03*
X309681D02*
D03*
X314681D02*
D03*
X319681D02*
D03*
X324681D02*
D03*
X329681D02*
D03*
X334681D02*
D03*
X339681D02*
D03*
Y253748D02*
D03*
X334681D02*
D03*
X329681D02*
D03*
X324681D02*
D03*
X319681D02*
D03*
X314681D02*
D03*
X309681D02*
D03*
X304681D02*
D03*
X299681D02*
D03*
X294681D02*
D03*
X289681D02*
D03*
X284681D02*
D03*
X279681D02*
D03*
X274681D02*
D03*
D27*
X320500Y374000D02*
D03*
X326000Y178000D02*
D03*
D28*
X314595Y383449D02*
D03*
X316563D02*
D03*
X318531D02*
D03*
X320500Y383510D02*
D03*
X322468D02*
D03*
X324437Y383449D02*
D03*
X326406D02*
D03*
X329949Y379906D02*
D03*
Y377937D02*
D03*
Y375969D02*
D03*
X331031Y374000D02*
D03*
X329949Y372031D02*
D03*
Y370063D02*
D03*
Y368094D02*
D03*
X326406Y364551D02*
D03*
X324437D02*
D03*
X322468D02*
D03*
X320500Y364490D02*
D03*
X318531D02*
D03*
X316563Y364551D02*
D03*
X314595D02*
D03*
X311051Y368094D02*
D03*
Y370063D02*
D03*
Y372031D02*
D03*
X309772Y374000D02*
D03*
X311051Y375969D02*
D03*
Y377937D02*
D03*
Y379906D02*
D03*
X331906Y168551D02*
D03*
X329937D02*
D03*
X327969D02*
D03*
X326000Y168490D02*
D03*
X324031D02*
D03*
X322063Y168551D02*
D03*
X320094D02*
D03*
X316551Y172095D02*
D03*
Y174063D02*
D03*
Y176031D02*
D03*
X315469Y178000D02*
D03*
X316551Y179969D02*
D03*
Y181937D02*
D03*
Y183905D02*
D03*
X320094Y187449D02*
D03*
X322063D02*
D03*
X324031D02*
D03*
X326000Y187510D02*
D03*
X327969D02*
D03*
X329937Y187449D02*
D03*
X331906D02*
D03*
X335449Y183905D02*
D03*
Y181937D02*
D03*
Y179969D02*
D03*
X336728Y178000D02*
D03*
X335449Y176031D02*
D03*
Y174063D02*
D03*
Y172095D02*
D03*
D29*
X294000Y364236D02*
D03*
Y368764D02*
D03*
X299000Y368764D02*
D03*
Y364236D02*
D03*
D30*
X288047Y418000D02*
D03*
X293953D02*
D03*
X288047Y409500D02*
D03*
X293953D02*
D03*
D31*
X270665Y363295D02*
D03*
Y387705D02*
D03*
Y180795D02*
D03*
Y205205D02*
D03*
D32*
Y384358D02*
D03*
Y382390D02*
D03*
Y380421D02*
D03*
Y378453D02*
D03*
Y376484D02*
D03*
Y374516D02*
D03*
Y372547D02*
D03*
Y370579D02*
D03*
Y368610D02*
D03*
Y366642D02*
D03*
X275783Y363689D02*
D03*
Y365657D02*
D03*
Y367626D02*
D03*
Y369595D02*
D03*
Y371563D02*
D03*
Y373532D02*
D03*
Y377468D02*
D03*
Y379437D02*
D03*
Y381405D02*
D03*
Y383374D02*
D03*
Y385343D02*
D03*
Y387311D02*
D03*
X270665Y201858D02*
D03*
Y199890D02*
D03*
Y197921D02*
D03*
Y195953D02*
D03*
Y193984D02*
D03*
Y192016D02*
D03*
Y190047D02*
D03*
Y188079D02*
D03*
Y186110D02*
D03*
Y184142D02*
D03*
X275783Y181189D02*
D03*
Y183158D02*
D03*
Y185126D02*
D03*
Y187094D02*
D03*
Y189063D02*
D03*
Y191032D02*
D03*
Y194968D02*
D03*
Y196937D02*
D03*
Y198906D02*
D03*
Y200874D02*
D03*
Y202842D02*
D03*
Y204811D02*
D03*
D33*
X487000Y319547D02*
D03*
Y325453D02*
D03*
D34*
X337000Y216047D02*
D03*
Y221953D02*
D03*
X329000Y216047D02*
D03*
Y221953D02*
D03*
D35*
X296022Y206000D02*
D03*
X300978D02*
D03*
D36*
X469248Y320134D02*
D03*
Y311866D02*
D03*
X462752D02*
D03*
Y320134D02*
D03*
D37*
X411307Y379240D02*
D03*
Y371760D02*
D03*
X399693D02*
D03*
Y375500D02*
D03*
Y379240D02*
D03*
D38*
X407740Y411500D02*
D03*
X404000D02*
D03*
X400260D02*
D03*
Y401461D02*
D03*
X407740D02*
D03*
D39*
X395000Y407059D02*
D03*
Y401941D02*
D03*
D40*
X538134Y312000D02*
D03*
X529866D02*
D03*
X538134Y325000D02*
D03*
X529866D02*
D03*
D41*
X470472Y425646D02*
D03*
X484646D02*
D03*
X443972D02*
D03*
X458146D02*
D03*
D42*
X475591Y410390D02*
D03*
X479528D02*
D03*
X449090D02*
D03*
X453027D02*
D03*
D43*
X375598Y403500D02*
D03*
D44*
X350402Y394445D02*
D03*
Y403500D02*
D03*
Y412555D02*
D03*
D45*
X565441Y248500D02*
D03*
Y258500D02*
D03*
Y268500D02*
D03*
Y278500D02*
D03*
Y288500D02*
D03*
Y298500D02*
D03*
Y308500D02*
D03*
Y318500D02*
D03*
X575441Y248500D02*
D03*
Y258500D02*
D03*
Y268500D02*
D03*
Y278500D02*
D03*
Y288500D02*
D03*
Y298500D02*
D03*
Y308500D02*
D03*
X510500Y178433D02*
D03*
X500500D02*
D03*
X490500D02*
D03*
X450500D02*
D03*
X460500D02*
D03*
X470500D02*
D03*
X480500D02*
D03*
X387500Y328500D02*
D03*
Y318500D02*
D03*
Y308500D02*
D03*
Y298500D02*
D03*
Y288500D02*
D03*
Y278500D02*
D03*
Y268500D02*
D03*
Y258500D02*
D03*
X377500Y328500D02*
D03*
Y318500D02*
D03*
Y308500D02*
D03*
Y298500D02*
D03*
Y288500D02*
D03*
Y278500D02*
D03*
Y268500D02*
D03*
X357000Y225000D02*
D03*
X367000D02*
D03*
X377000D02*
D03*
X387000D02*
D03*
X357000Y215000D02*
D03*
X367000D02*
D03*
X377000D02*
D03*
X371000Y362500D02*
D03*
X361000D02*
D03*
X351000D02*
D03*
X381000Y372500D02*
D03*
X371000D02*
D03*
X361000D02*
D03*
X351000D02*
D03*
X575441Y189937D02*
D03*
Y179937D02*
D03*
X565441Y199937D02*
D03*
Y179937D02*
D03*
Y189937D02*
D03*
X367000Y188177D02*
D03*
X377000D02*
D03*
X387000D02*
D03*
X357000Y178177D02*
D03*
X367000D02*
D03*
X377000D02*
D03*
X387000D02*
D03*
X505201Y410083D02*
D03*
X515201D02*
D03*
X525201D02*
D03*
X565201D02*
D03*
X555201D02*
D03*
X545201D02*
D03*
X535201D02*
D03*
D46*
X575441Y318500D02*
D03*
X377500Y258500D02*
D03*
X575441Y199937D02*
D03*
D47*
X440500Y178433D02*
D03*
X387000Y215000D02*
D03*
X381000Y362500D02*
D03*
X357000Y188177D02*
D03*
X575201Y410083D02*
D03*
D48*
X253067Y358492D02*
D03*
Y392508D02*
D03*
Y175992D02*
D03*
Y210008D02*
D03*
D49*
X274169Y358492D02*
D03*
Y392508D02*
D03*
Y175992D02*
D03*
Y210008D02*
D03*
D50*
X457000Y290000D02*
D03*
X463826Y284174D02*
D03*
X454500Y295500D02*
D03*
X449000Y315000D02*
D03*
X440000Y295000D02*
D03*
X444500Y283500D02*
D03*
X441000Y288500D02*
D03*
X421000Y228500D02*
D03*
X423500Y243500D02*
D03*
X470000Y284000D02*
D03*
X445500Y260500D02*
D03*
X446500Y295000D02*
D03*
X509000Y311500D02*
D03*
X498500Y223500D02*
D03*
X455000Y315500D02*
D03*
X511500Y284000D02*
D03*
Y266500D02*
D03*
X458500Y223500D02*
D03*
X511500Y236500D02*
D03*
X440000Y278500D02*
D03*
X443000Y231000D02*
D03*
X417000Y320000D02*
D03*
X491000Y340500D02*
D03*
X535000Y343500D02*
D03*
X511682Y242682D02*
D03*
X403000Y245000D02*
D03*
X511500Y250500D02*
D03*
X478500Y293157D02*
D03*
X502500Y291000D02*
D03*
X494500Y288500D02*
D03*
X511500Y225000D02*
D03*
X430500Y318500D02*
D03*
X531000Y270500D02*
D03*
X511500Y274500D02*
D03*
X410000Y244500D02*
D03*
X451000Y223500D02*
D03*
X491396Y309689D02*
D03*
X414000Y232932D02*
D03*
X508500Y209500D02*
D03*
X476000Y237000D02*
D03*
X440510Y248418D02*
D03*
X440000Y242500D02*
D03*
X488000Y225500D02*
D03*
X417000Y222500D02*
D03*
X481000Y225500D02*
D03*
X425000Y316000D02*
D03*
X493500Y237000D02*
D03*
X440000Y271000D02*
D03*
X424484Y274500D02*
D03*
X485000Y288500D02*
D03*
X441959Y254077D02*
D03*
X433500Y216500D02*
D03*
X409000Y222000D02*
D03*
X476500Y310500D02*
D03*
X462000Y295000D02*
D03*
X420000Y312500D02*
D03*
X499750Y339250D02*
D03*
X504000Y379500D02*
D03*
X488500Y349000D02*
D03*
X505475Y350025D02*
D03*
X467500Y360500D02*
D03*
X505668Y361168D02*
D03*
X437000Y372000D02*
D03*
X473323Y353323D02*
D03*
X470000Y377500D02*
D03*
X463500Y345000D02*
D03*
X308500Y313000D02*
D03*
X486818Y314818D02*
D03*
X296724Y373563D02*
D03*
X314000Y301000D02*
D03*
X340500Y328500D02*
D03*
X351500Y303500D02*
D03*
X544000Y312000D02*
D03*
X280311Y366000D02*
D03*
X447356Y339144D02*
D03*
X320500Y215500D02*
D03*
X282000Y201500D02*
D03*
X280500Y186000D02*
D03*
X327000Y357500D02*
D03*
X307500Y358500D02*
D03*
X464000Y418500D02*
D03*
X472000Y404000D02*
D03*
X449795Y416795D02*
D03*
X423000Y379500D02*
D03*
X518000Y369000D02*
D03*
X495500Y258000D02*
D03*
X453500Y251000D02*
D03*
X479000Y323500D02*
D03*
X367000Y268000D02*
D03*
X407000Y326000D02*
D03*
X404000Y364000D02*
D03*
X415500Y207000D02*
D03*
X421500Y211500D02*
D03*
X334000Y270000D02*
D03*
X306000Y263500D02*
D03*
X283181Y338000D02*
D03*
X280500Y331500D02*
D03*
X314500Y312000D02*
D03*
X321500Y312385D02*
D03*
X321000Y280500D02*
D03*
X325000Y271000D02*
D03*
X339500Y210000D02*
D03*
X330000Y210500D02*
D03*
X323000Y181000D02*
D03*
X318000Y222500D02*
D03*
X316500Y230000D02*
D03*
X309000Y175000D02*
D03*
X328000Y162500D02*
D03*
X307275Y164275D02*
D03*
X343000Y171000D02*
D03*
X350500Y170000D02*
D03*
X334500Y194000D02*
D03*
X342000Y192500D02*
D03*
X301500Y190500D02*
D03*
X577500Y356000D02*
D03*
X568500Y361500D02*
D03*
X541275Y327225D02*
D03*
X564500Y366500D02*
D03*
X565500Y376500D02*
D03*
X363000Y403500D02*
D03*
X433000Y357500D02*
D03*
X452000Y334000D02*
D03*
X447500Y349000D02*
D03*
X500000Y206500D02*
D03*
X331500Y311500D02*
D03*
X366904Y239904D02*
D03*
X288617Y313383D02*
D03*
X358000Y240500D02*
D03*
X285000Y246000D02*
D03*
X281000Y261959D02*
D03*
X303000Y237500D02*
D03*
X299000Y306000D02*
D03*
X299500Y313500D02*
D03*
X313000Y243500D02*
D03*
X407423Y395077D02*
D03*
X406000Y417500D02*
D03*
X393500Y371500D02*
D03*
X292500Y344000D02*
D03*
X312000Y389000D02*
D03*
X305000Y381000D02*
D03*
X325000Y389500D02*
D03*
X298044Y381357D02*
D03*
X305000Y368000D02*
D03*
X282275Y383225D02*
D03*
X285913Y375087D02*
D03*
X341518Y394565D02*
D03*
X317000Y410000D02*
D03*
X280500Y409750D02*
D03*
Y418000D02*
D03*
M02*
