G04*
G04 #@! TF.GenerationSoftware,Altium Limited,Altium Designer,21.0.9 (235)*
G04*
G04 Layer_Color=16711935*
%FSLAX25Y25*%
%MOIN*%
G70*
G04*
G04 #@! TF.SameCoordinates,E84AEAD4-148F-411F-9A4D-F382D4A6362F*
G04*
G04*
G04 #@! TF.FilePolarity,Positive*
G04*
G01*
G75*
%ADD13C,0.00787*%
%ADD15C,0.00300*%
%ADD95C,0.00100*%
%ADD96C,0.00394*%
D13*
X487533Y202200D02*
Y202200D01*
X485565Y204169D02*
X487533Y202200D01*
X483596Y202200D02*
X485565Y204169D01*
X483596Y202200D02*
X487533D01*
X483596Y204169D02*
X487533D01*
D15*
X513064Y298521D02*
X509732Y295189D01*
Y298521D02*
X513064Y295189D01*
X511398Y298521D02*
Y295189D01*
X509732Y296855D02*
X513064D01*
D95*
X515316Y224422D02*
Y225522D01*
Y224422D02*
X519266D01*
Y225522D01*
X515316D02*
X519266D01*
X515316Y226391D02*
Y227491D01*
Y226391D02*
X519266D01*
Y227491D01*
X515316D02*
X519266D01*
X515316Y228360D02*
Y229460D01*
Y228360D02*
X519266D01*
Y229460D01*
X515316D02*
X519266D01*
X515316Y230328D02*
Y231428D01*
Y230328D02*
X519266D01*
Y231428D01*
X515316D02*
X519266D01*
X515316Y232296D02*
Y233397D01*
Y232296D02*
X519266D01*
Y233397D01*
X515316D02*
X519266D01*
X515316Y234265D02*
Y235365D01*
Y234265D02*
X519266D01*
Y235365D01*
X515316D02*
X519266D01*
X515316Y236233D02*
Y237333D01*
Y236233D02*
X519266D01*
Y237333D01*
X515316D02*
X519266D01*
X515316Y238202D02*
Y239302D01*
Y238202D02*
X519266D01*
Y239302D01*
X515316D02*
X519266D01*
X515316Y240171D02*
Y241270D01*
Y240171D02*
X519266D01*
Y241270D01*
X515316D02*
X519266D01*
X515316Y242139D02*
Y243239D01*
Y242139D02*
X519266D01*
Y243239D01*
X515316D02*
X519266D01*
X515316Y244108D02*
Y245208D01*
Y244108D02*
X519266D01*
Y245208D01*
X515316D02*
X519266D01*
X515316Y246076D02*
Y247176D01*
Y246076D02*
X519266D01*
Y247176D01*
X515316D02*
X519266D01*
X515316Y248044D02*
Y249145D01*
Y248044D02*
X519266D01*
Y249145D01*
X515316D02*
X519266D01*
X515316Y250013D02*
Y251113D01*
Y250013D02*
X519266D01*
Y251113D01*
X515316D02*
X519266D01*
X515316Y251981D02*
Y253081D01*
Y251981D02*
X519266D01*
Y253081D01*
X515316D02*
X519266D01*
X515316Y253950D02*
Y255050D01*
Y253950D02*
X519266D01*
Y255050D01*
X515316D02*
X519266D01*
X515316Y255919D02*
Y257018D01*
Y255919D02*
X519266D01*
Y257018D01*
X515316D02*
X519266D01*
X515316Y257887D02*
Y258987D01*
Y257887D02*
X519266D01*
Y258987D01*
X515316D02*
X519266D01*
X515316Y259856D02*
Y260956D01*
Y259856D02*
X519266D01*
Y260956D01*
X515316D02*
X519266D01*
X515316Y261824D02*
Y262924D01*
Y261824D02*
X519266D01*
Y262924D01*
X515316D02*
X519266D01*
X515316Y263792D02*
Y264893D01*
Y263792D02*
X519266D01*
Y264893D01*
X515316D02*
X519266D01*
X515316Y265761D02*
Y266861D01*
Y265761D02*
X519266D01*
Y266861D01*
X515316D02*
X519266D01*
X515316Y267729D02*
Y268829D01*
Y267729D02*
X519266D01*
Y268829D01*
X515316D02*
X519266D01*
X515316Y269698D02*
Y270798D01*
Y269698D02*
X519266D01*
Y270798D01*
X515316D02*
X519266D01*
X515316Y271667D02*
Y272766D01*
Y271667D02*
X519266D01*
Y272766D01*
X515316D02*
X519266D01*
X515316Y273635D02*
Y274735D01*
Y273635D02*
X519266D01*
Y274735D01*
X515316D02*
X519266D01*
X515316Y275604D02*
Y276704D01*
Y275604D02*
X519266D01*
Y276704D01*
X515316D02*
X519266D01*
X515316Y277572D02*
Y278672D01*
Y277572D02*
X519266D01*
Y278672D01*
X515316D02*
X519266D01*
X515316Y279540D02*
Y280641D01*
Y279540D02*
X519266D01*
Y280641D01*
X515316D02*
X519266D01*
X515316Y281509D02*
Y282609D01*
Y281509D02*
X519266D01*
Y282609D01*
X515316D02*
X519266D01*
X515316Y283478D02*
Y284578D01*
Y283478D02*
X519266D01*
Y284578D01*
X515316D02*
X519266D01*
X515316Y285446D02*
Y286546D01*
Y285446D02*
X519266D01*
Y286546D01*
X515316D02*
X519266D01*
X515316Y287415D02*
Y288515D01*
Y287415D02*
X519266D01*
Y288515D01*
X515316D02*
X519266D01*
X515316Y289383D02*
Y290483D01*
Y289383D02*
X519266D01*
Y290483D01*
X515316D02*
X519266D01*
X515316Y291352D02*
Y292452D01*
Y291352D02*
X519266D01*
Y292452D01*
X515316D02*
X519266D01*
X515316Y293320D02*
Y294420D01*
Y293320D02*
X519266D01*
Y294420D01*
X515316D02*
X519266D01*
X509865Y298771D02*
X510965D01*
Y302721D01*
X509865D02*
X510965D01*
X509865Y298771D02*
Y302721D01*
X507896Y298771D02*
X508996D01*
Y302721D01*
X507896D02*
X508996D01*
X507896Y298771D02*
Y302721D01*
X505928Y298771D02*
X507028D01*
Y302721D01*
X505928D02*
X507028D01*
X505928Y298771D02*
Y302721D01*
X503959Y298771D02*
X505059D01*
Y302721D01*
X503959D02*
X505059D01*
X503959Y298771D02*
Y302721D01*
X501991Y298771D02*
X503091D01*
Y302721D01*
X501991D02*
X503091D01*
X501991Y298771D02*
Y302721D01*
X500022Y298771D02*
X501122D01*
Y302721D01*
X500022D02*
X501122D01*
X500022Y298771D02*
Y302721D01*
X498054Y298771D02*
X499154D01*
Y302721D01*
X498054D02*
X499154D01*
X498054Y298771D02*
Y302721D01*
X496085Y298771D02*
X497185D01*
Y302721D01*
X496085D02*
X497185D01*
X496085Y298771D02*
Y302721D01*
X494117Y298771D02*
X495217D01*
Y302721D01*
X494117D02*
X495217D01*
X494117Y298771D02*
Y302721D01*
X492148Y298771D02*
X493248D01*
Y302721D01*
X492148D02*
X493248D01*
X492148Y298771D02*
Y302721D01*
X490180Y298771D02*
X491280D01*
Y302721D01*
X490180D02*
X491280D01*
X490180Y298771D02*
Y302721D01*
X488211Y298771D02*
X489311D01*
Y302721D01*
X488211D02*
X489311D01*
X488211Y298771D02*
Y302721D01*
X486243Y298771D02*
X487343D01*
Y302721D01*
X486243D02*
X487343D01*
X486243Y298771D02*
Y302721D01*
X484274Y298771D02*
X485374D01*
Y302721D01*
X484274D02*
X485374D01*
X484274Y298771D02*
Y302721D01*
X482306Y298771D02*
X483406D01*
Y302721D01*
X482306D02*
X483406D01*
X482306Y298771D02*
Y302721D01*
X480337Y298771D02*
X481437D01*
Y302721D01*
X480337D02*
X481437D01*
X480337Y298771D02*
Y302721D01*
X478369Y298771D02*
X479469D01*
Y302721D01*
X478369D02*
X479469D01*
X478369Y298771D02*
Y302721D01*
X476400Y298771D02*
X477500D01*
Y302721D01*
X476400D02*
X477500D01*
X476400Y298771D02*
Y302721D01*
X474432Y298771D02*
X475532D01*
Y302721D01*
X474432D02*
X475532D01*
X474432Y298771D02*
Y302721D01*
X472463Y298771D02*
X473563D01*
Y302721D01*
X472463D02*
X473563D01*
X472463Y298771D02*
Y302721D01*
X470495Y298771D02*
X471595D01*
Y302721D01*
X470495D02*
X471595D01*
X470495Y298771D02*
Y302721D01*
X468526Y298771D02*
X469626D01*
Y302721D01*
X468526D02*
X469626D01*
X468526Y298771D02*
Y302721D01*
X466558Y298771D02*
X467658D01*
Y302721D01*
X466558D02*
X467658D01*
X466558Y298771D02*
Y302721D01*
X464589Y298771D02*
X465689D01*
Y302721D01*
X464589D02*
X465689D01*
X464589Y298771D02*
Y302721D01*
X462621Y298771D02*
X463721D01*
Y302721D01*
X462621D02*
X463721D01*
X462621Y298771D02*
Y302721D01*
X460652Y298771D02*
X461752D01*
Y302721D01*
X460652D02*
X461752D01*
X460652Y298771D02*
Y302721D01*
X458684Y298771D02*
X459784D01*
Y302721D01*
X458684D02*
X459784D01*
X458684Y298771D02*
Y302721D01*
X456715Y298771D02*
X457815D01*
Y302721D01*
X456715D02*
X457815D01*
X456715Y298771D02*
Y302721D01*
X454747Y298771D02*
X455847D01*
Y302721D01*
X454747D02*
X455847D01*
X454747Y298771D02*
Y302721D01*
X452778Y298771D02*
X453878D01*
Y302721D01*
X452778D02*
X453878D01*
X452778Y298771D02*
Y302721D01*
X450810Y298771D02*
X451910D01*
Y302721D01*
X450810D02*
X451910D01*
X450810Y298771D02*
Y302721D01*
X448841Y298771D02*
X449941D01*
Y302721D01*
X448841D02*
X449941D01*
X448841Y298771D02*
Y302721D01*
X446873Y298771D02*
X447973D01*
Y302721D01*
X446873D02*
X447973D01*
X446873Y298771D02*
Y302721D01*
X444904Y298771D02*
X446004D01*
Y302721D01*
X444904D02*
X446004D01*
X444904Y298771D02*
Y302721D01*
X442936Y298771D02*
X444036D01*
Y302721D01*
X442936D02*
X444036D01*
X442936Y298771D02*
Y302721D01*
X440967Y298771D02*
X442067D01*
Y302721D01*
X440967D02*
X442067D01*
X440967Y298771D02*
Y302721D01*
X436616Y293320D02*
Y294420D01*
X432666D02*
X436616D01*
X432666Y293320D02*
Y294420D01*
Y293320D02*
X436616D01*
Y291352D02*
Y292452D01*
X432666D02*
X436616D01*
X432666Y291352D02*
Y292452D01*
Y291352D02*
X436616D01*
Y289383D02*
Y290483D01*
X432666D02*
X436616D01*
X432666Y289383D02*
Y290483D01*
Y289383D02*
X436616D01*
Y287415D02*
Y288515D01*
X432666D02*
X436616D01*
X432666Y287415D02*
Y288515D01*
Y287415D02*
X436616D01*
Y285446D02*
Y286546D01*
X432666D02*
X436616D01*
X432666Y285446D02*
Y286546D01*
Y285446D02*
X436616D01*
Y283478D02*
Y284578D01*
X432666D02*
X436616D01*
X432666Y283478D02*
Y284578D01*
Y283478D02*
X436616D01*
Y281509D02*
Y282609D01*
X432666D02*
X436616D01*
X432666Y281509D02*
Y282609D01*
Y281509D02*
X436616D01*
Y279540D02*
Y280641D01*
X432666D02*
X436616D01*
X432666Y279540D02*
Y280641D01*
Y279540D02*
X436616D01*
Y277572D02*
Y278672D01*
X432666D02*
X436616D01*
X432666Y277572D02*
Y278672D01*
Y277572D02*
X436616D01*
Y275604D02*
Y276704D01*
X432666D02*
X436616D01*
X432666Y275604D02*
Y276704D01*
Y275604D02*
X436616D01*
Y273635D02*
Y274735D01*
X432666D02*
X436616D01*
X432666Y273635D02*
Y274735D01*
Y273635D02*
X436616D01*
Y271667D02*
Y272766D01*
X432666D02*
X436616D01*
X432666Y271667D02*
Y272766D01*
Y271667D02*
X436616D01*
Y269698D02*
Y270798D01*
X432666D02*
X436616D01*
X432666Y269698D02*
Y270798D01*
Y269698D02*
X436616D01*
Y267729D02*
Y268829D01*
X432666D02*
X436616D01*
X432666Y267729D02*
Y268829D01*
Y267729D02*
X436616D01*
Y265761D02*
Y266861D01*
X432666D02*
X436616D01*
X432666Y265761D02*
Y266861D01*
Y265761D02*
X436616D01*
Y263792D02*
Y264893D01*
X432666D02*
X436616D01*
X432666Y263792D02*
Y264893D01*
Y263792D02*
X436616D01*
Y261824D02*
Y262924D01*
X432666D02*
X436616D01*
X432666Y261824D02*
Y262924D01*
Y261824D02*
X436616D01*
Y259856D02*
Y260956D01*
X432666D02*
X436616D01*
X432666Y259856D02*
Y260956D01*
Y259856D02*
X436616D01*
Y257887D02*
Y258987D01*
X432666D02*
X436616D01*
X432666Y257887D02*
Y258987D01*
Y257887D02*
X436616D01*
Y255919D02*
Y257018D01*
X432666D02*
X436616D01*
X432666Y255919D02*
Y257018D01*
Y255919D02*
X436616D01*
Y253950D02*
Y255050D01*
X432666D02*
X436616D01*
X432666Y253950D02*
Y255050D01*
Y253950D02*
X436616D01*
Y251981D02*
Y253081D01*
X432666D02*
X436616D01*
X432666Y251981D02*
Y253081D01*
Y251981D02*
X436616D01*
Y250013D02*
Y251113D01*
X432666D02*
X436616D01*
X432666Y250013D02*
Y251113D01*
Y250013D02*
X436616D01*
Y248044D02*
Y249145D01*
X432666D02*
X436616D01*
X432666Y248044D02*
Y249145D01*
Y248044D02*
X436616D01*
Y246076D02*
Y247176D01*
X432666D02*
X436616D01*
X432666Y246076D02*
Y247176D01*
Y246076D02*
X436616D01*
Y244108D02*
Y245208D01*
X432666D02*
X436616D01*
X432666Y244108D02*
Y245208D01*
Y244108D02*
X436616D01*
Y242139D02*
Y243239D01*
X432666D02*
X436616D01*
X432666Y242139D02*
Y243239D01*
Y242139D02*
X436616D01*
Y240171D02*
Y241270D01*
X432666D02*
X436616D01*
X432666Y240171D02*
Y241270D01*
Y240171D02*
X436616D01*
Y238202D02*
Y239302D01*
X432666D02*
X436616D01*
X432666Y238202D02*
Y239302D01*
Y238202D02*
X436616D01*
Y236233D02*
Y237333D01*
X432666D02*
X436616D01*
X432666Y236233D02*
Y237333D01*
Y236233D02*
X436616D01*
Y234265D02*
Y235365D01*
X432666D02*
X436616D01*
X432666Y234265D02*
Y235365D01*
Y234265D02*
X436616D01*
Y232296D02*
Y233397D01*
X432666D02*
X436616D01*
X432666Y232296D02*
Y233397D01*
Y232296D02*
X436616D01*
Y230328D02*
Y231428D01*
X432666D02*
X436616D01*
X432666Y230328D02*
Y231428D01*
Y230328D02*
X436616D01*
Y228360D02*
Y229460D01*
X432666D02*
X436616D01*
X432666Y228360D02*
Y229460D01*
Y228360D02*
X436616D01*
Y226391D02*
Y227491D01*
X432666D02*
X436616D01*
X432666Y226391D02*
Y227491D01*
Y226391D02*
X436616D01*
Y224422D02*
Y225522D01*
X432666D02*
X436616D01*
X432666Y224422D02*
Y225522D01*
Y224422D02*
X436616D01*
X440967Y220071D02*
X442067D01*
X440967Y216121D02*
Y220071D01*
Y216121D02*
X442067D01*
Y220071D01*
X442936D02*
X444036D01*
X442936Y216121D02*
Y220071D01*
Y216121D02*
X444036D01*
Y220071D01*
X444904D02*
X446004D01*
X444904Y216121D02*
Y220071D01*
Y216121D02*
X446004D01*
Y220071D01*
X446873D02*
X447973D01*
X446873Y216121D02*
Y220071D01*
Y216121D02*
X447973D01*
Y220071D01*
X448841D02*
X449941D01*
X448841Y216121D02*
Y220071D01*
Y216121D02*
X449941D01*
Y220071D01*
X450810D02*
X451910D01*
X450810Y216121D02*
Y220071D01*
Y216121D02*
X451910D01*
Y220071D01*
X452778D02*
X453878D01*
X452778Y216121D02*
Y220071D01*
Y216121D02*
X453878D01*
Y220071D01*
X454747D02*
X455847D01*
X454747Y216121D02*
Y220071D01*
Y216121D02*
X455847D01*
Y220071D01*
X456715D02*
X457815D01*
X456715Y216121D02*
Y220071D01*
Y216121D02*
X457815D01*
Y220071D01*
X458684D02*
X459784D01*
X458684Y216121D02*
Y220071D01*
Y216121D02*
X459784D01*
Y220071D01*
X460652D02*
X461752D01*
X460652Y216121D02*
Y220071D01*
Y216121D02*
X461752D01*
Y220071D01*
X462621D02*
X463721D01*
X462621Y216121D02*
Y220071D01*
Y216121D02*
X463721D01*
Y220071D01*
X464589D02*
X465689D01*
X464589Y216121D02*
Y220071D01*
Y216121D02*
X465689D01*
Y220071D01*
X466558D02*
X467658D01*
X466558Y216121D02*
Y220071D01*
Y216121D02*
X467658D01*
Y220071D01*
X468526D02*
X469626D01*
X468526Y216121D02*
Y220071D01*
Y216121D02*
X469626D01*
Y220071D01*
X470495D02*
X471595D01*
X470495Y216121D02*
Y220071D01*
Y216121D02*
X471595D01*
Y220071D01*
X472463D02*
X473563D01*
X472463Y216121D02*
Y220071D01*
Y216121D02*
X473563D01*
Y220071D01*
X474432D02*
X475532D01*
X474432Y216121D02*
Y220071D01*
Y216121D02*
X475532D01*
Y220071D01*
X476400D02*
X477500D01*
X476400Y216121D02*
Y220071D01*
Y216121D02*
X477500D01*
Y220071D01*
X478369D02*
X479469D01*
X478369Y216121D02*
Y220071D01*
Y216121D02*
X479469D01*
Y220071D01*
X480337D02*
X481437D01*
X480337Y216121D02*
Y220071D01*
Y216121D02*
X481437D01*
Y220071D01*
X482306D02*
X483406D01*
X482306Y216121D02*
Y220071D01*
Y216121D02*
X483406D01*
Y220071D01*
X484274D02*
X485374D01*
X484274Y216121D02*
Y220071D01*
Y216121D02*
X485374D01*
Y220071D01*
X486243D02*
X487343D01*
X486243Y216121D02*
Y220071D01*
Y216121D02*
X487343D01*
Y220071D01*
X488211D02*
X489311D01*
X488211Y216121D02*
Y220071D01*
Y216121D02*
X489311D01*
Y220071D01*
X490180D02*
X491280D01*
X490180Y216121D02*
Y220071D01*
Y216121D02*
X491280D01*
Y220071D01*
X492148D02*
X493248D01*
X492148Y216121D02*
Y220071D01*
Y216121D02*
X493248D01*
Y220071D01*
X494117D02*
X495217D01*
X494117Y216121D02*
Y220071D01*
Y216121D02*
X495217D01*
Y220071D01*
X496085D02*
X497185D01*
X496085Y216121D02*
Y220071D01*
Y216121D02*
X497185D01*
Y220071D01*
X498054D02*
X499154D01*
X498054Y216121D02*
Y220071D01*
Y216121D02*
X499154D01*
Y220071D01*
X500022D02*
X501122D01*
X500022Y216121D02*
Y220071D01*
Y216121D02*
X501122D01*
Y220071D01*
X501991D02*
X503091D01*
X501991Y216121D02*
Y220071D01*
Y216121D02*
X503091D01*
Y220071D01*
X503959D02*
X505059D01*
X503959Y216121D02*
Y220071D01*
Y216121D02*
X505059D01*
Y220071D01*
X505928D02*
X507028D01*
X505928Y216121D02*
Y220071D01*
Y216121D02*
X507028D01*
Y220071D01*
X507896D02*
X508996D01*
X507896Y216121D02*
Y220071D01*
Y216121D02*
X508996D01*
Y220071D01*
X509865D02*
X510965D01*
X509865Y216121D02*
Y220071D01*
Y216121D02*
X510965D01*
Y220071D01*
X510316Y298771D02*
X515316Y293771D01*
X436616Y220071D02*
Y298771D01*
Y220071D02*
X515316D01*
Y298771D01*
X436616D02*
X515316D01*
D96*
X491689Y351268D02*
X491425Y352252D01*
X490705Y352973D01*
X489720Y353236D01*
X488736Y352973D01*
X488016Y352252D01*
X487752Y351268D01*
X488016Y350284D01*
X488736Y349563D01*
X489720Y349299D01*
X490705Y349563D01*
X491425Y350284D01*
X491689Y351268D01*
X463736Y388276D02*
X493264D01*
X463736Y347724D02*
X493264D01*
X463736D02*
Y388276D01*
X493264Y347724D02*
Y388276D01*
X270331Y234646D02*
Y240354D01*
X261669Y234646D02*
Y240354D01*
Y234646D02*
X270331D01*
X261669Y240354D02*
X270331D01*
X560697Y324504D02*
X580185D01*
X560697Y242496D02*
Y324504D01*
Y242496D02*
X580185D01*
Y324504D01*
X516484Y173433D02*
Y183433D01*
X434516Y173433D02*
X516484D01*
X434516D02*
Y183433D01*
X516484D01*
X493228Y206347D02*
X496772D01*
X493228Y199653D02*
X496772D01*
Y206347D01*
X493228Y199653D02*
Y206347D01*
X492075Y199850D02*
Y206150D01*
X488925D02*
X492075D01*
X488925Y199850D02*
X492075D01*
X488925D02*
Y206150D01*
X310496Y371890D02*
X317386D01*
X310496Y368110D02*
X317386D01*
Y371890D01*
X310496Y368110D02*
Y371890D01*
X296728Y363094D02*
X300272D01*
X296728Y369787D02*
X300272D01*
Y363094D02*
Y369787D01*
X296728Y363094D02*
Y369787D01*
X292130Y363252D02*
X295870D01*
X292130Y369748D02*
X295870D01*
X292130Y363252D02*
Y369748D01*
X295870Y363252D02*
Y369748D01*
X297130Y369748D02*
X300870D01*
X297130Y363252D02*
X300870D01*
Y369748D01*
X297130Y363252D02*
Y369748D01*
X271146Y375992D02*
X276854D01*
X271146Y367331D02*
X276854D01*
X271146D02*
Y375992D01*
X276854Y367331D02*
Y375992D01*
X485130Y319153D02*
X488870D01*
X485130Y325847D02*
X488870D01*
X485130Y319153D02*
Y325847D01*
X488870Y319153D02*
Y325847D01*
X459228Y408153D02*
X462772D01*
X459228Y414847D02*
X462772D01*
Y408153D02*
Y414847D01*
X459228Y408153D02*
Y414847D01*
X464728Y408153D02*
X468272D01*
X464728Y414847D02*
X468272D01*
Y408153D02*
Y414847D01*
X464728Y408153D02*
Y414847D01*
X272228Y259653D02*
Y266347D01*
X275772Y259653D02*
Y266347D01*
X272228D02*
X275772D01*
X272228Y259653D02*
X275772D01*
X315130Y210748D02*
X318870D01*
X315130Y204252D02*
X318870D01*
X315130D02*
Y210748D01*
X318870Y204252D02*
Y210748D01*
X320630Y204252D02*
X324370D01*
X320630Y210748D02*
X324370D01*
Y204252D02*
Y210748D01*
X320630Y204252D02*
Y210748D01*
X342228Y187847D02*
X345772D01*
X342228Y181154D02*
X345772D01*
X342228D02*
Y187847D01*
X345772Y181154D02*
Y187847D01*
X288252Y299941D02*
X299748D01*
X288252Y305059D02*
X299748D01*
Y299941D02*
Y305059D01*
X288252Y299941D02*
Y305059D01*
X316252Y294059D02*
X327748D01*
X316252Y288941D02*
X327748D01*
X316252D02*
Y294059D01*
X327748Y288941D02*
Y294059D01*
X493555Y357390D02*
X500445D01*
X493555Y353610D02*
X500445D01*
Y357390D01*
X493555Y353610D02*
Y357390D01*
X456555Y358610D02*
X463445D01*
X456555Y362390D02*
X463445D01*
X456555Y358610D02*
Y362390D01*
X463445Y358610D02*
Y362390D01*
X532654Y310228D02*
Y313772D01*
X539347Y310228D02*
Y313772D01*
X532654Y310228D02*
X539347D01*
X532654Y313772D02*
X539347D01*
X532654Y323228D02*
Y326772D01*
X539347Y323228D02*
Y326772D01*
X532654Y323228D02*
X539347D01*
X532654Y326772D02*
X539347D01*
X453390Y212055D02*
Y218945D01*
X449610Y212055D02*
Y218945D01*
Y212055D02*
X453390D01*
X449610Y218945D02*
X453390D01*
X428496Y246110D02*
X435386D01*
X428496Y249890D02*
X435386D01*
X428496Y246110D02*
Y249890D01*
X435386Y246110D02*
Y249890D01*
X453610Y300055D02*
Y306945D01*
X457390Y300055D02*
Y306945D01*
X453610D02*
X457390D01*
X453610Y300055D02*
X457390D01*
X428555Y276610D02*
X435445D01*
X428555Y280390D02*
X435445D01*
X428555Y276610D02*
Y280390D01*
X435445Y276610D02*
Y280390D01*
X402055Y369496D02*
X408945D01*
X402055Y381504D02*
X408945D01*
Y369496D02*
Y381504D01*
X402055Y369496D02*
Y381504D01*
X415228Y372153D02*
Y378847D01*
X418772Y372153D02*
Y378847D01*
X415228D02*
X418772D01*
X415228Y372153D02*
X418772D01*
X400654Y403772D02*
X407346D01*
X400654Y400228D02*
X407346D01*
Y403772D01*
X400654Y400228D02*
Y403772D01*
X401272Y372000D02*
Y378693D01*
X397728Y372000D02*
Y378693D01*
Y372000D02*
X401272D01*
X397728Y378693D02*
X401272D01*
X322153Y407772D02*
X328847D01*
X322153Y404228D02*
X328847D01*
Y407772D01*
X322153Y404228D02*
Y407772D01*
X375654Y405728D02*
X382347D01*
X375654Y409272D02*
X382347D01*
X375654Y405728D02*
Y409272D01*
X382347Y405728D02*
Y409272D01*
X397996Y409925D02*
X410004D01*
X397996Y403035D02*
X410004D01*
Y409925D01*
X397996Y403035D02*
Y409925D01*
X396890Y401055D02*
Y407945D01*
X393110Y401055D02*
Y407945D01*
X396890D01*
X393110Y401055D02*
X396890D01*
X328847Y412228D02*
Y415772D01*
X322153Y412228D02*
Y415772D01*
X328847D01*
X322153Y412228D02*
X328847D01*
X479228Y306591D02*
X482772D01*
X479228Y299898D02*
X482772D01*
X479228D02*
Y306591D01*
X482772Y299898D02*
Y306591D01*
X516555Y268390D02*
X523445D01*
X516555Y264610D02*
X523445D01*
Y268390D01*
X516555Y264610D02*
Y268390D01*
X441610Y300055D02*
Y306945D01*
X445390Y300055D02*
Y306945D01*
X441610D02*
X445390D01*
X441610Y300055D02*
X445390D01*
X428555Y271610D02*
X435445D01*
X428555Y275390D02*
X435445D01*
X428555Y271610D02*
Y275390D01*
X435445Y271610D02*
Y275390D01*
X428496Y292110D02*
X435386D01*
X428496Y295890D02*
X435386D01*
X428496Y292110D02*
Y295890D01*
X435386Y292110D02*
Y295890D01*
X516496Y238890D02*
X523386D01*
X516496Y235110D02*
X523386D01*
Y238890D01*
X516496Y235110D02*
Y238890D01*
X516555Y276390D02*
X523445D01*
X516555Y272610D02*
X523445D01*
Y276390D01*
X516555Y272610D02*
Y276390D01*
X500610Y300055D02*
Y306945D01*
X504390Y300055D02*
Y306945D01*
X500610D02*
X504390D01*
X500610Y300055D02*
X504390D01*
X488390Y212055D02*
Y218945D01*
X484610Y212055D02*
Y218945D01*
Y212055D02*
X488390D01*
X484610Y218945D02*
X488390D01*
X516496Y226890D02*
X523386D01*
X516496Y223110D02*
X523386D01*
Y226890D01*
X516496Y223110D02*
Y226890D01*
X500390Y212055D02*
Y218945D01*
X496610Y212055D02*
Y218945D01*
Y212055D02*
X500390D01*
X496610Y218945D02*
X500390D01*
X516555Y244390D02*
X523445D01*
X516555Y240610D02*
X523445D01*
Y244390D01*
X516555Y240610D02*
Y244390D01*
X459610Y300055D02*
Y306945D01*
X463390Y300055D02*
Y306945D01*
X459610D02*
X463390D01*
X459610Y300055D02*
X463390D01*
X516496Y285890D02*
X523386D01*
X516496Y282110D02*
X523386D01*
Y285890D01*
X516496Y282110D02*
Y285890D01*
X516555Y252390D02*
X523445D01*
X516555Y248610D02*
X523445D01*
Y252390D01*
X516555Y248610D02*
Y252390D01*
X428496Y241110D02*
X435386D01*
X428496Y244890D02*
X435386D01*
X428496Y241110D02*
Y244890D01*
X435386Y241110D02*
Y244890D01*
X459390Y212055D02*
Y218945D01*
X455610Y212055D02*
Y218945D01*
Y212055D02*
X459390D01*
X455610Y218945D02*
X459390D01*
X428555Y286110D02*
X435445D01*
X428555Y289890D02*
X435445D01*
X428555Y286110D02*
Y289890D01*
X435445Y286110D02*
Y289890D01*
X428614Y254610D02*
X435504D01*
X428614Y258390D02*
X435504D01*
X428614Y254610D02*
Y258390D01*
X435504Y254610D02*
Y258390D01*
X482890Y212055D02*
Y218945D01*
X479110Y212055D02*
Y218945D01*
Y212055D02*
X482890D01*
X479110Y218945D02*
X482890D01*
X329555Y180110D02*
X336445D01*
X329555Y183890D02*
X336445D01*
X329555Y180110D02*
Y183890D01*
X336445Y180110D02*
Y183890D01*
X529866Y309343D02*
X538134D01*
X529866Y314657D02*
X538134D01*
Y309343D02*
Y314657D01*
X529866Y309343D02*
Y314657D01*
Y322342D02*
X538134D01*
X529866Y327658D02*
X538134D01*
Y322342D02*
Y327658D01*
X529866Y322342D02*
Y327658D01*
X401154Y413272D02*
X407846D01*
X401154Y409728D02*
X407846D01*
Y413272D01*
X401154Y409728D02*
Y413272D01*
X409610Y372055D02*
Y378945D01*
X413390Y372055D02*
Y378945D01*
X409610D02*
X413390D01*
X409610Y372055D02*
X413390D01*
X372756Y252496D02*
X392244D01*
Y334504D01*
X372756D02*
X392244D01*
X372756Y252496D02*
Y334504D01*
X393004Y210256D02*
Y229744D01*
X350996D02*
X393004D01*
X350996Y210256D02*
Y229744D01*
Y210256D02*
X393004D01*
X344996Y357756D02*
X387004D01*
X344996D02*
Y377244D01*
X387004D01*
Y357756D02*
Y377244D01*
X580185Y173933D02*
Y205941D01*
X560697Y173933D02*
Y205941D01*
Y173933D02*
X580185D01*
X560697Y205941D02*
X580185D01*
X350996Y192921D02*
X393004D01*
Y173433D02*
Y192921D01*
X350996Y173433D02*
X393004D01*
X350996D02*
Y192921D01*
X499217Y405083D02*
Y415083D01*
X581185D01*
Y405083D02*
Y415083D01*
X499217Y405083D02*
X581185D01*
X328847Y408228D02*
Y411772D01*
X322153Y408228D02*
Y411772D01*
Y408228D02*
X328847D01*
X322153Y411772D02*
X328847D01*
M02*
