M48
;Layer_Color=9474304
;FILE_FORMAT=2:4
INCH,TZ
;TYPE=PLATED
T2F00S00C0.0280
T3F00S00C0.0402
T4F00S00C0.0409
%
T02
X48100Y22550
X48800
X49850Y22350
X51150Y22500
Y23650
X51168Y24268
X51150Y25050
Y26650
Y27450
Y28400
X50250Y29100
X49450Y28850
X48500
X47850Y29316
X47000Y28400
X47650Y31050
X49140Y30969
X50900Y31150
X54400Y31200
X53100Y27050
X49550Y25800
X49350Y23700
X47600
X50000Y20650
X50850Y20950
X45850Y22350
X45100
X44300Y23100
X44000Y24250
X44051Y24842
X44196Y25408
X44550Y26050
X44000Y27100
Y27850
X44450Y28350
X44100Y28850
X44000Y29500
X44650
X45450Y29550
X45700Y29000
X46200Y29500
X46383Y28417
X45350Y25100
X42350Y24350
X41000Y24450
X40300Y24500
X41400Y23293
X42100Y22850
X41700Y22250
X40900Y22200
X41550Y20700
X42150Y21150
X43350Y21650
X42448Y27450
X36700Y26800
X36690Y23990
X35800Y24050
X31300Y24350
X31650Y23000
X31800Y22250
X32050Y21550
X33000Y21050
X33950Y21000
X34200Y19250
X33450Y19400
X32300Y18100
X32800Y16250
X34300Y17100
X35050Y17000
X33400Y27000
X32500Y27100
X32100Y28050
X31400Y30100
X31450Y31200
X32150Y31238
X33150Y31150
X35150Y30350
X29900Y30600
X30600Y26350
X28100Y26196
X28500Y24600
X30300Y23750
X30150Y19050
X30900Y17500
X30728Y16428
X28050Y18600
X28200Y20150
X28862Y31338
X29950Y31350
X30850Y31300
X30750Y35850
X30500Y36800
Y38100
X29804Y38136
X29672Y37356
X28591Y37509
X28228Y38322
X28031Y36600
X28318Y33800
X28050Y33150
X29250Y34400
X31200Y38900
X28050Y40975
Y41800
X31700Y41000
X32500Y38950
X34152Y39456
X36300Y40350
X40742Y39508
X40600Y41750
X44980Y41680
X46400Y41850
X46750Y36050
X46350Y34500
X44750Y34900
X44736Y33914
X45200Y33400
X45500Y31550
X44900Y31500
X43050Y31850
X42500Y31600
X42000Y31250
X41700Y32000
X40700Y32600
X40400Y36400
X39350Y37150
X42300Y37950
X43700Y37200
X43300Y35750
X32700
X34050Y32850
X47900Y32350
X48682Y31482
X49100Y34050
X49975Y33925
X50547Y35003
X50567Y36117
X50400Y37950
X51800Y36900
X53500Y34350
X54128Y32722
X56850Y36150
X56450Y36650
X56550Y37650
X57750Y35600
X48850Y34900
X47332Y35332
X47000Y37750
X47200Y40400
T03
X47050Y17843
X48050
X49050
X50050
X51050
X46050
X45050
X44050
X50520Y41008
X51520
X52520
X53520
X54520
X55520
X56520
X57520
T04
X56544Y17994
X57544
Y18994
Y19994
X56544
Y18994
Y24850
Y25850
Y26850
Y27850
Y28850
Y29850
Y30850
X57544
Y29850
Y28850
Y27850
Y26850
Y25850
Y24850
X38750Y25850
Y26850
Y27850
Y28850
Y29850
Y30850
X37750
Y29850
Y28850
Y27850
Y26850
Y25850
X37700Y22500
X36700
X35700
Y21500
X36700
X37700
X38700
Y22500
Y18818
X37700
X36700
X35700
Y17818
X36700
X37700
X38700
X38750Y31850
Y32850
X37750
Y31850
X38100Y36250
X37100
X36100
X35100
Y37250
X36100
X37100
X38100
X56544Y31850
X57544
M30
