G04*
G04 #@! TF.GenerationSoftware,Altium Limited,Altium Designer,21.0.9 (235)*
G04*
G04 Layer_Color=16711935*
%FSLAX25Y25*%
%MOIN*%
G70*
G04*
G04 #@! TF.SameCoordinates,E84AEAD4-148F-411F-9A4D-F382D4A6362F*
G04*
G04*
G04 #@! TF.FilePolarity,Negative*
G04*
G01*
G75*
%ADD22R,0.03550X0.02762*%
%ADD29R,0.03747X0.03156*%
%ADD30R,0.02953X0.03937*%
%ADD33R,0.03943X0.03156*%
%ADD34R,0.03937X0.02953*%
%ADD35R,0.02613X0.03394*%
%ADD39R,0.03943X0.03747*%
%ADD45C,0.06502*%
%ADD46R,0.06502X0.06502*%
%ADD47R,0.06502X0.06502*%
G04:AMPARAMS|DCode=48|XSize=43.31mil|YSize=102.36mil|CornerRadius=21.65mil|HoleSize=0mil|Usage=FLASHONLY|Rotation=270.000|XOffset=0mil|YOffset=0mil|HoleType=Round|Shape=RoundedRectangle|*
%AMROUNDEDRECTD48*
21,1,0.04331,0.05906,0,0,270.0*
21,1,0.00000,0.10236,0,0,270.0*
1,1,0.04331,-0.02953,0.00000*
1,1,0.04331,-0.02953,0.00000*
1,1,0.04331,0.02953,0.00000*
1,1,0.04331,0.02953,0.00000*
%
%ADD48ROUNDEDRECTD48*%
G04:AMPARAMS|DCode=49|XSize=43.31mil|YSize=82.68mil|CornerRadius=21.65mil|HoleSize=0mil|Usage=FLASHONLY|Rotation=270.000|XOffset=0mil|YOffset=0mil|HoleType=Round|Shape=RoundedRectangle|*
%AMROUNDEDRECTD49*
21,1,0.04331,0.03937,0,0,270.0*
21,1,0.00000,0.08268,0,0,270.0*
1,1,0.04331,-0.01968,0.00000*
1,1,0.04331,-0.01968,0.00000*
1,1,0.04331,0.01968,0.00000*
1,1,0.04331,0.01968,0.00000*
%
%ADD49ROUNDEDRECTD49*%
%ADD50C,0.05400*%
%ADD79R,0.03347X0.03543*%
%ADD80R,0.03543X0.03347*%
%ADD82R,0.06457X0.05512*%
%ADD83R,0.05512X0.06457*%
%ADD86R,0.03394X0.02613*%
%ADD87R,0.03550X0.03943*%
%ADD88R,0.03747X0.03943*%
%ADD89R,0.06502X0.05715*%
%ADD90R,0.04534X0.02959*%
%ADD91R,0.02762X0.03550*%
%ADD92R,0.02959X0.04534*%
D22*
X298500Y363882D02*
D03*
Y369000D02*
D03*
X461000Y408941D02*
D03*
Y414059D02*
D03*
X466500Y408941D02*
D03*
Y414059D02*
D03*
X344000Y187059D02*
D03*
Y181941D02*
D03*
D29*
X317000Y209764D02*
D03*
Y205236D02*
D03*
X322500D02*
D03*
Y209764D02*
D03*
D30*
X473642Y382500D02*
D03*
X479547D02*
D03*
X485953Y366500D02*
D03*
X480047D02*
D03*
X485953Y374500D02*
D03*
X480047D02*
D03*
X475547Y244000D02*
D03*
X481453D02*
D03*
X493453D02*
D03*
X487547D02*
D03*
D33*
X481000Y306000D02*
D03*
Y300488D02*
D03*
D34*
X470000Y279453D02*
D03*
Y273547D02*
D03*
X461500Y279453D02*
D03*
Y273547D02*
D03*
X491500Y279453D02*
D03*
Y273547D02*
D03*
X482500Y279453D02*
D03*
Y273547D02*
D03*
D35*
X329978Y368500D02*
D03*
X325022D02*
D03*
X304022Y301000D02*
D03*
X308978D02*
D03*
X311478Y282000D02*
D03*
X306522D02*
D03*
D39*
X451500Y212941D02*
D03*
Y218059D02*
D03*
X455500Y306059D02*
D03*
Y300941D02*
D03*
X443500Y306059D02*
D03*
Y300941D02*
D03*
X502500Y306059D02*
D03*
Y300941D02*
D03*
X486500Y212941D02*
D03*
Y218059D02*
D03*
X498500Y212941D02*
D03*
Y218059D02*
D03*
X461500Y306059D02*
D03*
Y300941D02*
D03*
X457500Y212941D02*
D03*
Y218059D02*
D03*
X481000Y212941D02*
D03*
Y218059D02*
D03*
X411500Y378059D02*
D03*
Y372941D02*
D03*
D45*
X565441Y248500D02*
D03*
Y258500D02*
D03*
Y268500D02*
D03*
Y278500D02*
D03*
Y288500D02*
D03*
Y298500D02*
D03*
Y308500D02*
D03*
Y318500D02*
D03*
X575441Y248500D02*
D03*
Y258500D02*
D03*
Y268500D02*
D03*
Y278500D02*
D03*
Y288500D02*
D03*
Y298500D02*
D03*
Y308500D02*
D03*
X510500Y178433D02*
D03*
X500500D02*
D03*
X490500D02*
D03*
X450500D02*
D03*
X460500D02*
D03*
X470500D02*
D03*
X480500D02*
D03*
X387500Y328500D02*
D03*
Y318500D02*
D03*
Y308500D02*
D03*
Y298500D02*
D03*
Y288500D02*
D03*
Y278500D02*
D03*
Y268500D02*
D03*
Y258500D02*
D03*
X377500Y328500D02*
D03*
Y318500D02*
D03*
Y308500D02*
D03*
Y298500D02*
D03*
Y288500D02*
D03*
Y278500D02*
D03*
Y268500D02*
D03*
X357000Y225000D02*
D03*
X367000D02*
D03*
X377000D02*
D03*
X387000D02*
D03*
X357000Y215000D02*
D03*
X367000D02*
D03*
X377000D02*
D03*
X371000Y362500D02*
D03*
X361000D02*
D03*
X351000D02*
D03*
X381000Y372500D02*
D03*
X371000D02*
D03*
X361000D02*
D03*
X351000D02*
D03*
X575441Y189937D02*
D03*
Y179937D02*
D03*
X565441Y199937D02*
D03*
Y179937D02*
D03*
Y189937D02*
D03*
X367000Y188177D02*
D03*
X377000D02*
D03*
X387000D02*
D03*
X357000Y178177D02*
D03*
X367000D02*
D03*
X377000D02*
D03*
X387000D02*
D03*
X505201Y410083D02*
D03*
X515201D02*
D03*
X525201D02*
D03*
X565201D02*
D03*
X555201D02*
D03*
X545201D02*
D03*
X535201D02*
D03*
D46*
X575441Y318500D02*
D03*
X377500Y258500D02*
D03*
X575441Y199937D02*
D03*
D47*
X440500Y178433D02*
D03*
X387000Y215000D02*
D03*
X381000Y362500D02*
D03*
X357000Y188177D02*
D03*
X575201Y410083D02*
D03*
D48*
X253067Y358492D02*
D03*
Y392508D02*
D03*
Y175992D02*
D03*
Y210008D02*
D03*
D49*
X274169Y358492D02*
D03*
Y392508D02*
D03*
Y175992D02*
D03*
Y210008D02*
D03*
D50*
X457000Y290000D02*
D03*
X463826Y284174D02*
D03*
X454500Y295500D02*
D03*
X449000Y315000D02*
D03*
X440000Y295000D02*
D03*
X444500Y283500D02*
D03*
X441000Y288500D02*
D03*
X421000Y228500D02*
D03*
X423500Y243500D02*
D03*
X470000Y284000D02*
D03*
X445500Y260500D02*
D03*
X446500Y295000D02*
D03*
X509000Y311500D02*
D03*
X498500Y223500D02*
D03*
X455000Y315500D02*
D03*
X511500Y284000D02*
D03*
Y266500D02*
D03*
X458500Y223500D02*
D03*
X511500Y236500D02*
D03*
X440000Y278500D02*
D03*
X443000Y231000D02*
D03*
X417000Y320000D02*
D03*
X491000Y340500D02*
D03*
X535000Y343500D02*
D03*
X511682Y242682D02*
D03*
X403000Y245000D02*
D03*
X511500Y250500D02*
D03*
X478500Y293157D02*
D03*
X502500Y291000D02*
D03*
X494500Y288500D02*
D03*
X511500Y225000D02*
D03*
X430500Y318500D02*
D03*
X531000Y270500D02*
D03*
X511500Y274500D02*
D03*
X410000Y244500D02*
D03*
X451000Y223500D02*
D03*
X491396Y309689D02*
D03*
X414000Y232932D02*
D03*
X508500Y209500D02*
D03*
X476000Y237000D02*
D03*
X440510Y248418D02*
D03*
X440000Y242500D02*
D03*
X488000Y225500D02*
D03*
X417000Y222500D02*
D03*
X481000Y225500D02*
D03*
X425000Y316000D02*
D03*
X493500Y237000D02*
D03*
X440000Y271000D02*
D03*
X424484Y274500D02*
D03*
X485000Y288500D02*
D03*
X441959Y254077D02*
D03*
X433500Y216500D02*
D03*
X409000Y222000D02*
D03*
X476500Y310500D02*
D03*
X462000Y295000D02*
D03*
X420000Y312500D02*
D03*
X499750Y339250D02*
D03*
X504000Y379500D02*
D03*
X488500Y349000D02*
D03*
X505475Y350025D02*
D03*
X467500Y360500D02*
D03*
X505668Y361168D02*
D03*
X437000Y372000D02*
D03*
X473323Y353323D02*
D03*
X470000Y377500D02*
D03*
X463500Y345000D02*
D03*
X308500Y313000D02*
D03*
X486818Y314818D02*
D03*
X296724Y373563D02*
D03*
X314000Y301000D02*
D03*
X340500Y328500D02*
D03*
X351500Y303500D02*
D03*
X544000Y312000D02*
D03*
X280311Y366000D02*
D03*
X447356Y339144D02*
D03*
X320500Y215500D02*
D03*
X282000Y201500D02*
D03*
X280500Y186000D02*
D03*
X327000Y357500D02*
D03*
X307500Y358500D02*
D03*
X464000Y418500D02*
D03*
X472000Y404000D02*
D03*
X449795Y416795D02*
D03*
X423000Y379500D02*
D03*
X518000Y369000D02*
D03*
X495500Y258000D02*
D03*
X453500Y251000D02*
D03*
X479000Y323500D02*
D03*
X367000Y268000D02*
D03*
X407000Y326000D02*
D03*
X404000Y364000D02*
D03*
X415500Y207000D02*
D03*
X421500Y211500D02*
D03*
X334000Y270000D02*
D03*
X306000Y263500D02*
D03*
X283181Y338000D02*
D03*
X280500Y331500D02*
D03*
X314500Y312000D02*
D03*
X321500Y312385D02*
D03*
X321000Y280500D02*
D03*
X325000Y271000D02*
D03*
X339500Y210000D02*
D03*
X330000Y210500D02*
D03*
X323000Y181000D02*
D03*
X318000Y222500D02*
D03*
X316500Y230000D02*
D03*
X309000Y175000D02*
D03*
X328000Y162500D02*
D03*
X307275Y164275D02*
D03*
X343000Y171000D02*
D03*
X350500Y170000D02*
D03*
X334500Y194000D02*
D03*
X342000Y192500D02*
D03*
X301500Y190500D02*
D03*
X577500Y356000D02*
D03*
X568500Y361500D02*
D03*
X541275Y327225D02*
D03*
X564500Y366500D02*
D03*
X565500Y376500D02*
D03*
X363000Y403500D02*
D03*
X433000Y357500D02*
D03*
X452000Y334000D02*
D03*
X447500Y349000D02*
D03*
X500000Y206500D02*
D03*
X331500Y311500D02*
D03*
X366904Y239904D02*
D03*
X288617Y313383D02*
D03*
X358000Y240500D02*
D03*
X285000Y246000D02*
D03*
X281000Y261959D02*
D03*
X303000Y237500D02*
D03*
X299000Y306000D02*
D03*
X299500Y313500D02*
D03*
X313000Y243500D02*
D03*
X407423Y395077D02*
D03*
X406000Y417500D02*
D03*
X393500Y371500D02*
D03*
X292500Y344000D02*
D03*
X312000Y389000D02*
D03*
X305000Y381000D02*
D03*
X325000Y389500D02*
D03*
X298044Y381357D02*
D03*
X305000Y368000D02*
D03*
X282275Y383225D02*
D03*
X285913Y375087D02*
D03*
X341518Y394565D02*
D03*
X317000Y410000D02*
D03*
X280500Y409750D02*
D03*
Y418000D02*
D03*
D79*
X285441Y239000D02*
D03*
X290559D02*
D03*
D80*
X274000Y254967D02*
D03*
Y249849D02*
D03*
D82*
X326941Y335933D02*
D03*
Y320067D02*
D03*
X309720Y335933D02*
D03*
Y320067D02*
D03*
X292500Y335933D02*
D03*
Y320067D02*
D03*
D83*
X301933Y165500D02*
D03*
X286067D02*
D03*
X303433Y183000D02*
D03*
X287567D02*
D03*
D86*
X284500Y251022D02*
D03*
Y255978D02*
D03*
D87*
X322000Y287563D02*
D03*
X325740Y295437D02*
D03*
X318260D02*
D03*
X297740Y298563D02*
D03*
X290260D02*
D03*
X294000Y306437D02*
D03*
D88*
X316500Y370000D02*
D03*
X311382D02*
D03*
X499559Y355500D02*
D03*
X494441D02*
D03*
X457441Y360500D02*
D03*
X462559D02*
D03*
X429382Y248000D02*
D03*
X434500D02*
D03*
X429441Y278500D02*
D03*
X434559D02*
D03*
X522559Y266500D02*
D03*
X517441D02*
D03*
X429441Y273500D02*
D03*
X434559D02*
D03*
X429382Y294000D02*
D03*
X434500D02*
D03*
X522500Y237000D02*
D03*
X517382D02*
D03*
X522559Y274500D02*
D03*
X517441D02*
D03*
X522500Y225000D02*
D03*
X517382D02*
D03*
X522559Y242500D02*
D03*
X517441D02*
D03*
X522500Y284000D02*
D03*
X517382D02*
D03*
X522559Y250500D02*
D03*
X517441D02*
D03*
X429382Y243000D02*
D03*
X434500D02*
D03*
X429441Y288000D02*
D03*
X434559D02*
D03*
X429500Y256500D02*
D03*
X434618D02*
D03*
X330441Y182000D02*
D03*
X335559D02*
D03*
D89*
X274000Y375500D02*
D03*
Y367823D02*
D03*
D90*
Y266347D02*
D03*
Y259653D02*
D03*
X417000Y378847D02*
D03*
Y372153D02*
D03*
X399500Y372000D02*
D03*
Y378693D02*
D03*
D91*
X533441Y312000D02*
D03*
X538559D02*
D03*
X533441Y325000D02*
D03*
X538559D02*
D03*
X328059Y414000D02*
D03*
X322941D02*
D03*
D92*
X407346Y402000D02*
D03*
X400654D02*
D03*
X328847Y406000D02*
D03*
X322153D02*
D03*
X375654Y407500D02*
D03*
X382347D02*
D03*
X407846Y411500D02*
D03*
X401154D02*
D03*
M02*
