G04*
G04 #@! TF.GenerationSoftware,Altium Limited,Altium Designer,21.0.9 (235)*
G04*
G04 Layer_Color=16711935*
%FSLAX25Y25*%
%MOIN*%
G70*
G04*
G04 #@! TF.SameCoordinates,6D6A50FB-4127-4E02-A886-79615C3BA6FE*
G04*
G04*
G04 #@! TF.FilePolarity,Positive*
G04*
G01*
G75*
%ADD13C,0.00787*%
G36*
X428766Y212221D02*
Y306621D01*
X523166D01*
Y212221D01*
X428766D01*
D02*
G37*
G36*
X547699Y370225D02*
X547695D01*
X547680D01*
X547657D01*
X547630Y370229D01*
X547599Y370233D01*
X547565Y370236D01*
X547526Y370248D01*
X547488Y370259D01*
X547484D01*
X547480Y370263D01*
X547457Y370271D01*
X547426Y370286D01*
X547380Y370309D01*
X547330Y370336D01*
X547273Y370375D01*
X547215Y370413D01*
X547154Y370463D01*
X547150D01*
X547146Y370471D01*
X547123Y370490D01*
X547088Y370520D01*
X547042Y370567D01*
X546988Y370624D01*
X546923Y370693D01*
X546850Y370778D01*
X546770Y370870D01*
X546766Y370874D01*
X546754Y370889D01*
X546739Y370908D01*
X546712Y370935D01*
X546685Y370970D01*
X546651Y371008D01*
X546578Y371093D01*
X546489Y371185D01*
X546401Y371277D01*
X546359Y371323D01*
X546316Y371361D01*
X546274Y371396D01*
X546236Y371427D01*
X546232D01*
X546228Y371434D01*
X546217Y371442D01*
X546201Y371450D01*
X546163Y371473D01*
X546113Y371500D01*
X546055Y371527D01*
X545994Y371550D01*
X545925Y371565D01*
X545859Y371573D01*
X545856D01*
X545852D01*
X545829Y371569D01*
X545794Y371565D01*
X545752Y371557D01*
X545702Y371538D01*
X545652Y371515D01*
X545598Y371484D01*
X545548Y371438D01*
X545545Y371431D01*
X545529Y371415D01*
X545510Y371385D01*
X545483Y371346D01*
X545460Y371296D01*
X545441Y371239D01*
X545426Y371169D01*
X545422Y371093D01*
Y371070D01*
X545426Y371054D01*
X545429Y371016D01*
X545437Y370966D01*
X545456Y370908D01*
X545479Y370847D01*
X545514Y370789D01*
X545560Y370736D01*
X545568Y370732D01*
X545583Y370716D01*
X545614Y370693D01*
X545656Y370670D01*
X545710Y370643D01*
X545771Y370624D01*
X545844Y370609D01*
X545929Y370601D01*
X545894Y370282D01*
X545890D01*
X545879D01*
X545859Y370286D01*
X545836Y370290D01*
X545806Y370298D01*
X545771Y370302D01*
X545694Y370325D01*
X545606Y370355D01*
X545518Y370398D01*
X545429Y370455D01*
X545391Y370486D01*
X545353Y370524D01*
X545349Y370528D01*
X545345Y370536D01*
X545333Y370547D01*
X545322Y370563D01*
X545310Y370586D01*
X545291Y370613D01*
X545276Y370643D01*
X545257Y370678D01*
X545241Y370716D01*
X545222Y370759D01*
X545207Y370809D01*
X545195Y370858D01*
X545172Y370974D01*
X545168Y371035D01*
X545164Y371100D01*
Y371135D01*
X545168Y371162D01*
X545172Y371193D01*
X545176Y371227D01*
X545180Y371265D01*
X545191Y371308D01*
X545214Y371400D01*
X545249Y371496D01*
X545272Y371546D01*
X545299Y371592D01*
X545333Y371634D01*
X545368Y371676D01*
X545372Y371680D01*
X545376Y371684D01*
X545387Y371695D01*
X545403Y371711D01*
X545426Y371726D01*
X545449Y371745D01*
X545506Y371784D01*
X545579Y371822D01*
X545664Y371857D01*
X545760Y371884D01*
X545813Y371887D01*
X545867Y371891D01*
X545875D01*
X545894D01*
X545925Y371887D01*
X545963Y371884D01*
X546009Y371876D01*
X546059Y371865D01*
X546113Y371849D01*
X546167Y371826D01*
X546174Y371822D01*
X546194Y371815D01*
X546220Y371799D01*
X546259Y371776D01*
X546305Y371749D01*
X546359Y371715D01*
X546413Y371669D01*
X546474Y371619D01*
X546482Y371611D01*
X546505Y371592D01*
X546539Y371557D01*
X546562Y371534D01*
X546589Y371507D01*
X546620Y371477D01*
X546654Y371438D01*
X546689Y371400D01*
X546731Y371358D01*
X546773Y371311D01*
X546819Y371258D01*
X546866Y371204D01*
X546919Y371143D01*
X546923Y371139D01*
X546931Y371131D01*
X546942Y371116D01*
X546958Y371096D01*
X546996Y371050D01*
X547046Y370993D01*
X547100Y370935D01*
X547154Y370874D01*
X547200Y370824D01*
X547219Y370805D01*
X547238Y370785D01*
X547242Y370782D01*
X547253Y370774D01*
X547269Y370759D01*
X547292Y370739D01*
X547342Y370697D01*
X547403Y370655D01*
Y371895D01*
X547699D01*
Y370225D01*
D02*
G37*
G36*
Y369165D02*
X545725D01*
X545729Y369161D01*
X545744Y369146D01*
X545763Y369119D01*
X545790Y369084D01*
X545825Y369042D01*
X545859Y368992D01*
X545902Y368935D01*
X545940Y368869D01*
Y368865D01*
X545944Y368862D01*
X545959Y368839D01*
X545979Y368804D01*
X546002Y368762D01*
X546029Y368712D01*
X546052Y368658D01*
X546078Y368601D01*
X546101Y368547D01*
X545798D01*
Y368551D01*
X545794Y368558D01*
X545787Y368574D01*
X545775Y368589D01*
X545763Y368612D01*
X545752Y368639D01*
X545717Y368700D01*
X545675Y368769D01*
X545625Y368846D01*
X545568Y368923D01*
X545506Y368996D01*
X545502Y369000D01*
X545499Y369004D01*
X545475Y369027D01*
X545441Y369061D01*
X545399Y369104D01*
X545345Y369150D01*
X545287Y369196D01*
X545226Y369238D01*
X545164Y369272D01*
Y369476D01*
X547699D01*
Y369165D01*
D02*
G37*
G36*
X546977Y367886D02*
X547008D01*
X547077Y367882D01*
X547157Y367871D01*
X547238Y367859D01*
X547319Y367840D01*
X547388Y367813D01*
X547396Y367809D01*
X547415Y367798D01*
X547445Y367779D01*
X547484Y367756D01*
X547530Y367721D01*
X547572Y367679D01*
X547614Y367625D01*
X547653Y367567D01*
X547657Y367560D01*
X547668Y367537D01*
X547680Y367502D01*
X547695Y367456D01*
X547714Y367399D01*
X547726Y367333D01*
X547737Y367256D01*
X547741Y367176D01*
Y367145D01*
X547737Y367122D01*
X547733Y367095D01*
X547730Y367061D01*
X547718Y366988D01*
X547695Y366907D01*
X547660Y366823D01*
X547641Y366780D01*
X547614Y366742D01*
X547587Y366704D01*
X547553Y366669D01*
X547549D01*
X547545Y366661D01*
X547534Y366654D01*
X547518Y366642D01*
X547495Y366627D01*
X547472Y366615D01*
X547442Y366596D01*
X547411Y366581D01*
X547372Y366565D01*
X547330Y366550D01*
X547284Y366535D01*
X547230Y366523D01*
X547177Y366512D01*
X547115Y366504D01*
X547054Y366500D01*
X546985D01*
X546942Y366799D01*
X546946D01*
X546954D01*
X546969D01*
X546988Y366803D01*
X547012D01*
X547038Y366807D01*
X547100Y366819D01*
X547169Y366830D01*
X547234Y366849D01*
X547292Y366876D01*
X547319Y366892D01*
X547342Y366907D01*
X547346Y366911D01*
X547357Y366926D01*
X547376Y366945D01*
X547392Y366976D01*
X547411Y367015D01*
X547430Y367061D01*
X547442Y367114D01*
X547445Y367176D01*
Y367199D01*
X547442Y367222D01*
X547438Y367249D01*
X547430Y367283D01*
X547422Y367322D01*
X547407Y367356D01*
X547388Y367391D01*
X547384Y367395D01*
X547376Y367406D01*
X547365Y367422D01*
X547346Y367441D01*
X547326Y367464D01*
X547299Y367483D01*
X547269Y367502D01*
X547234Y367518D01*
X547230D01*
X547215Y367525D01*
X547192Y367529D01*
X547157Y367537D01*
X547111Y367545D01*
X547058Y367548D01*
X546992Y367556D01*
X546915D01*
X545176D01*
Y367890D01*
X546896D01*
X546900D01*
X546912D01*
X546927D01*
X546950D01*
X546977Y367886D01*
D02*
G37*
G36*
X296276Y293429D02*
X294302D01*
X294306Y293426D01*
X294321Y293410D01*
X294340Y293383D01*
X294367Y293349D01*
X294402Y293307D01*
X294436Y293257D01*
X294479Y293199D01*
X294517Y293134D01*
Y293130D01*
X294521Y293126D01*
X294536Y293103D01*
X294555Y293069D01*
X294578Y293026D01*
X294605Y292976D01*
X294628Y292923D01*
X294655Y292865D01*
X294678Y292811D01*
X294375D01*
Y292815D01*
X294371Y292823D01*
X294363Y292838D01*
X294352Y292853D01*
X294340Y292877D01*
X294329Y292903D01*
X294294Y292965D01*
X294252Y293034D01*
X294202Y293111D01*
X294144Y293188D01*
X294083Y293261D01*
X294079Y293264D01*
X294075Y293268D01*
X294052Y293291D01*
X294018Y293326D01*
X293975Y293368D01*
X293922Y293414D01*
X293864Y293460D01*
X293803Y293502D01*
X293741Y293537D01*
Y293741D01*
X296276D01*
Y293429D01*
D02*
G37*
G36*
X295074Y292235D02*
X295104D01*
X295174Y292231D01*
X295250Y292224D01*
X295339Y292208D01*
X295427Y292193D01*
X295512Y292170D01*
X295515D01*
X295523Y292166D01*
X295534Y292162D01*
X295550Y292159D01*
X295588Y292143D01*
X295642Y292124D01*
X295700Y292101D01*
X295761Y292070D01*
X295823Y292036D01*
X295880Y291997D01*
X295888Y291993D01*
X295903Y291978D01*
X295930Y291959D01*
X295965Y291928D01*
X295999Y291897D01*
X296038Y291855D01*
X296076Y291813D01*
X296111Y291767D01*
X296114Y291763D01*
X296122Y291744D01*
X296137Y291717D01*
X296157Y291682D01*
X296176Y291640D01*
X296195Y291590D01*
X296214Y291532D01*
X296233Y291467D01*
Y291460D01*
X296241Y291437D01*
X296245Y291402D01*
X296253Y291352D01*
X296260Y291295D01*
X296268Y291225D01*
X296272Y291148D01*
X296276Y291064D01*
Y290158D01*
X293753D01*
Y291125D01*
X293757Y291191D01*
X293760Y291260D01*
X293768Y291337D01*
X293780Y291410D01*
X293791Y291471D01*
Y291475D01*
X293795Y291483D01*
Y291490D01*
X293803Y291506D01*
X293814Y291548D01*
X293833Y291598D01*
X293856Y291655D01*
X293887Y291717D01*
X293926Y291778D01*
X293972Y291840D01*
Y291844D01*
X293979Y291847D01*
X294002Y291874D01*
X294041Y291909D01*
X294091Y291951D01*
X294152Y292001D01*
X294225Y292051D01*
X294309Y292097D01*
X294406Y292139D01*
X294409D01*
X294417Y292143D01*
X294432Y292147D01*
X294452Y292155D01*
X294475Y292162D01*
X294505Y292170D01*
X294540Y292181D01*
X294578Y292189D01*
X294621Y292197D01*
X294667Y292208D01*
X294766Y292224D01*
X294878Y292235D01*
X295001Y292239D01*
X295005D01*
X295012D01*
X295028D01*
X295051D01*
X295074Y292235D01*
D02*
G37*
G36*
X296276Y289298D02*
X294164D01*
X296276Y288560D01*
Y288261D01*
X294129Y287535D01*
X296276D01*
Y287213D01*
X293753D01*
Y287712D01*
X295538Y288311D01*
X295542D01*
X295550Y288315D01*
X295561Y288318D01*
X295581Y288322D01*
X295623Y288338D01*
X295677Y288357D01*
X295738Y288376D01*
X295799Y288395D01*
X295861Y288415D01*
X295911Y288430D01*
X295903Y288434D01*
X295884Y288438D01*
X295853Y288449D01*
X295811Y288464D01*
X295753Y288480D01*
X295684Y288503D01*
X295604Y288533D01*
X295508Y288564D01*
X293753Y289167D01*
Y289620D01*
X296276D01*
Y289298D01*
D02*
G37*
G36*
X323776Y376573D02*
X323825Y376565D01*
X323883Y376554D01*
X323948Y376538D01*
X324013Y376515D01*
X324079Y376484D01*
X324083D01*
X324086Y376481D01*
X324110Y376469D01*
X324140Y376450D01*
X324179Y376423D01*
X324221Y376388D01*
X324267Y376346D01*
X324309Y376296D01*
X324348Y376242D01*
X324352Y376235D01*
X324363Y376216D01*
X324378Y376185D01*
X324394Y376147D01*
X324409Y376097D01*
X324424Y376043D01*
X324436Y375985D01*
X324440Y375920D01*
Y375912D01*
Y375893D01*
X324436Y375862D01*
X324428Y375824D01*
X324417Y375778D01*
X324401Y375728D01*
X324382Y375674D01*
X324352Y375624D01*
X324348Y375617D01*
X324336Y375601D01*
X324313Y375578D01*
X324286Y375548D01*
X324248Y375513D01*
X324205Y375478D01*
X324152Y375440D01*
X324090Y375409D01*
X324094D01*
X324102Y375405D01*
X324113D01*
X324129Y375398D01*
X324167Y375386D01*
X324217Y375363D01*
X324271Y375336D01*
X324328Y375298D01*
X324386Y375252D01*
X324436Y375194D01*
X324440Y375186D01*
X324455Y375164D01*
X324474Y375129D01*
X324501Y375083D01*
X324524Y375025D01*
X324543Y374956D01*
X324559Y374875D01*
X324563Y374787D01*
Y374783D01*
Y374772D01*
Y374756D01*
X324559Y374733D01*
X324555Y374703D01*
X324551Y374672D01*
X324543Y374634D01*
X324532Y374595D01*
X324505Y374507D01*
X324486Y374457D01*
X324459Y374411D01*
X324432Y374365D01*
X324401Y374319D01*
X324363Y374273D01*
X324321Y374226D01*
X324317Y374223D01*
X324309Y374215D01*
X324298Y374207D01*
X324278Y374192D01*
X324255Y374173D01*
X324225Y374153D01*
X324190Y374134D01*
X324156Y374115D01*
X324113Y374092D01*
X324067Y374073D01*
X324017Y374054D01*
X323964Y374035D01*
X323906Y374019D01*
X323845Y374011D01*
X323779Y374004D01*
X323714Y374000D01*
X323683D01*
X323660Y374004D01*
X323630Y374008D01*
X323599Y374011D01*
X323560Y374015D01*
X323522Y374023D01*
X323434Y374046D01*
X323342Y374084D01*
X323295Y374104D01*
X323253Y374131D01*
X323207Y374161D01*
X323165Y374196D01*
X323161Y374200D01*
X323157Y374203D01*
X323146Y374215D01*
X323130Y374230D01*
X323115Y374253D01*
X323096Y374276D01*
X323073Y374303D01*
X323054Y374334D01*
X323007Y374411D01*
X322969Y374499D01*
X322935Y374599D01*
X322923Y374653D01*
X322915Y374710D01*
X323226Y374753D01*
Y374749D01*
X323230Y374741D01*
Y374726D01*
X323238Y374710D01*
X323249Y374664D01*
X323269Y374607D01*
X323292Y374545D01*
X323322Y374480D01*
X323361Y374422D01*
X323403Y374372D01*
X323411Y374369D01*
X323426Y374353D01*
X323453Y374338D01*
X323491Y374315D01*
X323534Y374296D01*
X323587Y374276D01*
X323649Y374261D01*
X323714Y374257D01*
X323737D01*
X323752Y374261D01*
X323791Y374265D01*
X323841Y374276D01*
X323902Y374296D01*
X323964Y374319D01*
X324025Y374357D01*
X324083Y374407D01*
X324090Y374415D01*
X324106Y374434D01*
X324129Y374465D01*
X324160Y374511D01*
X324186Y374564D01*
X324209Y374630D01*
X324225Y374703D01*
X324232Y374783D01*
Y374787D01*
Y374791D01*
Y374802D01*
X324229Y374818D01*
X324225Y374856D01*
X324213Y374906D01*
X324198Y374960D01*
X324171Y375021D01*
X324136Y375079D01*
X324090Y375133D01*
X324083Y375140D01*
X324067Y375156D01*
X324037Y375175D01*
X323994Y375202D01*
X323944Y375229D01*
X323883Y375248D01*
X323818Y375263D01*
X323741Y375271D01*
X323706D01*
X323679Y375267D01*
X323649Y375263D01*
X323610Y375259D01*
X323568Y375252D01*
X323522Y375240D01*
X323557Y375513D01*
X323576D01*
X323591Y375509D01*
X323641D01*
X323676Y375513D01*
X323726Y375521D01*
X323779Y375532D01*
X323837Y375551D01*
X323898Y375574D01*
X323960Y375609D01*
X323968Y375613D01*
X323987Y375628D01*
X324010Y375655D01*
X324040Y375690D01*
X324071Y375732D01*
X324094Y375786D01*
X324113Y375851D01*
X324121Y375928D01*
Y375932D01*
Y375935D01*
Y375955D01*
X324113Y375985D01*
X324106Y376027D01*
X324094Y376070D01*
X324071Y376116D01*
X324044Y376166D01*
X324006Y376208D01*
X324002Y376212D01*
X323987Y376227D01*
X323960Y376246D01*
X323925Y376266D01*
X323883Y376289D01*
X323833Y376304D01*
X323776Y376319D01*
X323710Y376323D01*
X323679D01*
X323645Y376315D01*
X323606Y376308D01*
X323557Y376296D01*
X323507Y376273D01*
X323457Y376246D01*
X323407Y376208D01*
X323403Y376204D01*
X323388Y376189D01*
X323368Y376162D01*
X323345Y376123D01*
X323319Y376077D01*
X323295Y376020D01*
X323272Y375951D01*
X323257Y375870D01*
X322946Y375924D01*
Y375928D01*
X322950Y375939D01*
X322954Y375955D01*
X322957Y375974D01*
X322965Y376001D01*
X322973Y376031D01*
X323000Y376100D01*
X323030Y376177D01*
X323077Y376258D01*
X323130Y376335D01*
X323200Y376404D01*
X323203Y376408D01*
X323207Y376412D01*
X323219Y376419D01*
X323238Y376431D01*
X323257Y376442D01*
X323280Y376458D01*
X323338Y376492D01*
X323411Y376523D01*
X323499Y376550D01*
X323595Y376569D01*
X323649Y376577D01*
X323737D01*
X323776Y376573D01*
D02*
G37*
G36*
X322481Y375106D02*
Y375102D01*
Y375091D01*
Y375071D01*
Y375044D01*
X322478Y375010D01*
Y374975D01*
X322474Y374933D01*
X322470Y374887D01*
X322458Y374791D01*
X322443Y374691D01*
X322424Y374591D01*
X322393Y374503D01*
Y374499D01*
X322389Y374492D01*
X322385Y374480D01*
X322378Y374465D01*
X322355Y374426D01*
X322324Y374372D01*
X322282Y374315D01*
X322228Y374253D01*
X322159Y374196D01*
X322082Y374138D01*
X322078D01*
X322071Y374131D01*
X322059Y374127D01*
X322040Y374115D01*
X322021Y374108D01*
X321994Y374096D01*
X321959Y374081D01*
X321925Y374069D01*
X321886Y374058D01*
X321840Y374042D01*
X321794Y374031D01*
X321740Y374023D01*
X321625Y374008D01*
X321495Y374000D01*
X321460D01*
X321437Y374004D01*
X321406D01*
X321372Y374008D01*
X321333Y374011D01*
X321291Y374015D01*
X321199Y374031D01*
X321103Y374050D01*
X321003Y374081D01*
X320915Y374119D01*
X320911D01*
X320903Y374127D01*
X320896Y374131D01*
X320880Y374142D01*
X320838Y374169D01*
X320792Y374211D01*
X320738Y374261D01*
X320688Y374319D01*
X320638Y374392D01*
X320596Y374472D01*
Y374476D01*
X320592Y374484D01*
X320588Y374495D01*
X320581Y374515D01*
X320573Y374538D01*
X320565Y374568D01*
X320557Y374603D01*
X320550Y374641D01*
X320538Y374683D01*
X320531Y374730D01*
X320523Y374783D01*
X320515Y374837D01*
X320508Y374899D01*
X320504Y374964D01*
X320500Y375033D01*
Y375106D01*
Y376565D01*
X320834D01*
Y375106D01*
Y375102D01*
Y375091D01*
Y375075D01*
Y375052D01*
Y375025D01*
X320838Y374994D01*
X320842Y374921D01*
X320849Y374845D01*
X320857Y374764D01*
X320872Y374687D01*
X320880Y374653D01*
X320892Y374622D01*
X320896Y374614D01*
X320903Y374595D01*
X320918Y374568D01*
X320942Y374534D01*
X320968Y374495D01*
X321007Y374453D01*
X321049Y374415D01*
X321103Y374380D01*
X321111Y374376D01*
X321130Y374369D01*
X321160Y374353D01*
X321203Y374342D01*
X321256Y374326D01*
X321318Y374311D01*
X321387Y374303D01*
X321464Y374300D01*
X321498D01*
X321525Y374303D01*
X321556D01*
X321590Y374307D01*
X321667Y374319D01*
X321756Y374342D01*
X321840Y374369D01*
X321921Y374411D01*
X321959Y374434D01*
X321990Y374465D01*
Y374468D01*
X321998Y374472D01*
X322005Y374484D01*
X322013Y374499D01*
X322028Y374518D01*
X322040Y374541D01*
X322055Y374572D01*
X322071Y374607D01*
X322082Y374649D01*
X322097Y374695D01*
X322113Y374745D01*
X322124Y374806D01*
X322132Y374872D01*
X322140Y374941D01*
X322147Y375021D01*
Y375106D01*
Y376565D01*
X322481D01*
Y375106D01*
D02*
G37*
G36*
X291000Y415435D02*
X289829D01*
X289798Y415439D01*
X289767D01*
X289691Y415443D01*
X289610Y415450D01*
X289526Y415466D01*
X289445Y415481D01*
X289406Y415492D01*
X289372Y415504D01*
X289368D01*
X289364Y415508D01*
X289341Y415516D01*
X289310Y415535D01*
X289272Y415562D01*
X289226Y415592D01*
X289180Y415635D01*
X289134Y415685D01*
X289092Y415746D01*
X289088Y415754D01*
X289076Y415777D01*
X289057Y415811D01*
X289038Y415857D01*
X289019Y415915D01*
X288999Y415980D01*
X288988Y416049D01*
X288984Y416126D01*
Y416130D01*
Y416138D01*
Y416153D01*
X288988Y416172D01*
Y416195D01*
X288992Y416222D01*
X289007Y416284D01*
X289026Y416357D01*
X289057Y416430D01*
X289103Y416506D01*
X289130Y416545D01*
X289161Y416579D01*
X289168Y416587D01*
X289180Y416595D01*
X289191Y416610D01*
X289211Y416621D01*
X289234Y416641D01*
X289261Y416656D01*
X289291Y416675D01*
X289326Y416694D01*
X289368Y416714D01*
X289410Y416733D01*
X289460Y416752D01*
X289510Y416771D01*
X289568Y416787D01*
X289629Y416798D01*
X289694Y416810D01*
X289687Y416814D01*
X289671Y416821D01*
X289648Y416833D01*
X289621Y416848D01*
X289556Y416890D01*
X289522Y416913D01*
X289495Y416936D01*
X289487Y416944D01*
X289468Y416959D01*
X289441Y416990D01*
X289406Y417029D01*
X289364Y417078D01*
X289318Y417136D01*
X289268Y417201D01*
X289218Y417274D01*
X288780Y417958D01*
X289199D01*
X289533Y417436D01*
Y417432D01*
X289541Y417424D01*
X289548Y417413D01*
X289556Y417397D01*
X289583Y417359D01*
X289618Y417309D01*
X289656Y417251D01*
X289698Y417194D01*
X289737Y417140D01*
X289775Y417090D01*
X289779Y417086D01*
X289790Y417071D01*
X289810Y417048D01*
X289829Y417021D01*
X289886Y416967D01*
X289913Y416940D01*
X289944Y416921D01*
X289948Y416917D01*
X289955Y416913D01*
X289971Y416906D01*
X289990Y416894D01*
X290036Y416871D01*
X290094Y416852D01*
X290098D01*
X290105Y416848D01*
X290121D01*
X290140Y416844D01*
X290167Y416840D01*
X290197D01*
X290236Y416837D01*
X290666D01*
Y417958D01*
X291000D01*
Y415435D01*
D02*
G37*
G36*
X288631Y417954D02*
Y417939D01*
Y417915D01*
X288627Y417889D01*
X288623Y417858D01*
X288619Y417823D01*
X288608Y417785D01*
X288596Y417747D01*
Y417743D01*
X288592Y417739D01*
X288585Y417716D01*
X288569Y417685D01*
X288546Y417639D01*
X288519Y417589D01*
X288481Y417531D01*
X288443Y417474D01*
X288393Y417413D01*
Y417409D01*
X288385Y417405D01*
X288366Y417382D01*
X288335Y417347D01*
X288289Y417301D01*
X288231Y417247D01*
X288162Y417182D01*
X288078Y417109D01*
X287986Y417029D01*
X287982Y417025D01*
X287966Y417013D01*
X287947Y416998D01*
X287920Y416971D01*
X287886Y416944D01*
X287847Y416910D01*
X287763Y416837D01*
X287671Y416748D01*
X287579Y416660D01*
X287532Y416618D01*
X287494Y416575D01*
X287459Y416533D01*
X287429Y416495D01*
Y416491D01*
X287421Y416487D01*
X287414Y416476D01*
X287406Y416460D01*
X287383Y416422D01*
X287356Y416372D01*
X287329Y416314D01*
X287306Y416253D01*
X287291Y416184D01*
X287283Y416118D01*
Y416115D01*
Y416111D01*
X287287Y416088D01*
X287291Y416053D01*
X287298Y416011D01*
X287317Y415961D01*
X287340Y415911D01*
X287371Y415857D01*
X287417Y415807D01*
X287425Y415803D01*
X287440Y415788D01*
X287471Y415769D01*
X287509Y415742D01*
X287559Y415719D01*
X287617Y415700D01*
X287686Y415685D01*
X287763Y415681D01*
X287786D01*
X287801Y415685D01*
X287840Y415688D01*
X287890Y415696D01*
X287947Y415715D01*
X288009Y415738D01*
X288066Y415773D01*
X288120Y415819D01*
X288124Y415827D01*
X288139Y415842D01*
X288162Y415873D01*
X288185Y415915D01*
X288212Y415969D01*
X288231Y416030D01*
X288247Y416103D01*
X288254Y416188D01*
X288573Y416153D01*
Y416149D01*
Y416138D01*
X288569Y416118D01*
X288565Y416095D01*
X288558Y416065D01*
X288554Y416030D01*
X288531Y415953D01*
X288500Y415865D01*
X288458Y415777D01*
X288400Y415688D01*
X288370Y415650D01*
X288331Y415612D01*
X288327Y415608D01*
X288320Y415604D01*
X288308Y415592D01*
X288293Y415581D01*
X288270Y415569D01*
X288243Y415550D01*
X288212Y415535D01*
X288178Y415516D01*
X288139Y415500D01*
X288097Y415481D01*
X288047Y415466D01*
X287997Y415454D01*
X287882Y415431D01*
X287821Y415427D01*
X287755Y415423D01*
X287721D01*
X287694Y415427D01*
X287663Y415431D01*
X287629Y415435D01*
X287590Y415439D01*
X287548Y415450D01*
X287456Y415473D01*
X287360Y415508D01*
X287310Y415531D01*
X287264Y415558D01*
X287222Y415592D01*
X287179Y415627D01*
X287175Y415631D01*
X287172Y415635D01*
X287160Y415646D01*
X287145Y415661D01*
X287129Y415685D01*
X287110Y415707D01*
X287072Y415765D01*
X287033Y415838D01*
X286999Y415923D01*
X286972Y416019D01*
X286968Y416072D01*
X286964Y416126D01*
Y416134D01*
Y416153D01*
X286968Y416184D01*
X286972Y416222D01*
X286980Y416268D01*
X286991Y416318D01*
X287006Y416372D01*
X287030Y416426D01*
X287033Y416433D01*
X287041Y416453D01*
X287056Y416479D01*
X287079Y416518D01*
X287106Y416564D01*
X287141Y416618D01*
X287187Y416671D01*
X287237Y416733D01*
X287245Y416741D01*
X287264Y416764D01*
X287298Y416798D01*
X287321Y416821D01*
X287348Y416848D01*
X287379Y416879D01*
X287417Y416913D01*
X287456Y416948D01*
X287498Y416990D01*
X287544Y417032D01*
X287598Y417078D01*
X287651Y417125D01*
X287713Y417178D01*
X287717Y417182D01*
X287724Y417190D01*
X287740Y417201D01*
X287759Y417217D01*
X287805Y417255D01*
X287863Y417305D01*
X287920Y417359D01*
X287982Y417413D01*
X288032Y417459D01*
X288051Y417478D01*
X288070Y417497D01*
X288074Y417501D01*
X288082Y417512D01*
X288097Y417528D01*
X288116Y417551D01*
X288158Y417601D01*
X288201Y417662D01*
X286960D01*
Y417958D01*
X288631D01*
Y417954D01*
D02*
G37*
G36*
X285870Y417996D02*
X285900Y417992D01*
X285935Y417985D01*
X285974Y417977D01*
X286016Y417969D01*
X286108Y417939D01*
X286158Y417915D01*
X286204Y417893D01*
X286254Y417862D01*
X286300Y417827D01*
X286342Y417789D01*
X286384Y417743D01*
X286388Y417739D01*
X286396Y417727D01*
X286407Y417708D01*
X286423Y417681D01*
X286442Y417647D01*
X286461Y417604D01*
X286484Y417555D01*
X286507Y417493D01*
X286530Y417428D01*
X286553Y417351D01*
X286573Y417267D01*
X286592Y417174D01*
X286607Y417071D01*
X286619Y416963D01*
X286626Y416840D01*
X286630Y416714D01*
Y416710D01*
Y416694D01*
Y416671D01*
Y416641D01*
X286626Y416602D01*
Y416560D01*
X286622Y416510D01*
X286619Y416456D01*
X286607Y416341D01*
X286592Y416222D01*
X286573Y416103D01*
X286557Y416049D01*
X286542Y415996D01*
Y415992D01*
X286538Y415984D01*
X286530Y415969D01*
X286523Y415949D01*
X286515Y415926D01*
X286503Y415900D01*
X286473Y415838D01*
X286434Y415769D01*
X286388Y415700D01*
X286334Y415635D01*
X286269Y415573D01*
X286265D01*
X286262Y415565D01*
X286250Y415558D01*
X286235Y415550D01*
X286196Y415527D01*
X286142Y415496D01*
X286077Y415470D01*
X285997Y415446D01*
X285908Y415431D01*
X285808Y415423D01*
X285774D01*
X285735Y415427D01*
X285689Y415435D01*
X285636Y415443D01*
X285574Y415458D01*
X285513Y415481D01*
X285455Y415508D01*
X285447Y415512D01*
X285428Y415523D01*
X285401Y415542D01*
X285363Y415565D01*
X285325Y415600D01*
X285282Y415642D01*
X285240Y415688D01*
X285202Y415742D01*
X285198Y415750D01*
X285186Y415769D01*
X285167Y415803D01*
X285144Y415846D01*
X285121Y415900D01*
X285094Y415965D01*
X285067Y416038D01*
X285044Y416118D01*
Y416122D01*
X285040Y416130D01*
Y416142D01*
X285036Y416161D01*
X285029Y416180D01*
X285025Y416207D01*
X285021Y416241D01*
X285014Y416276D01*
X285010Y416318D01*
X285006Y416360D01*
X284998Y416410D01*
X284994Y416464D01*
X284990Y416522D01*
Y416579D01*
X284987Y416714D01*
Y416717D01*
Y416733D01*
Y416756D01*
Y416787D01*
X284990Y416825D01*
Y416867D01*
X284994Y416917D01*
X284998Y416971D01*
X285010Y417086D01*
X285025Y417205D01*
X285048Y417324D01*
X285063Y417378D01*
X285079Y417432D01*
Y417436D01*
X285083Y417443D01*
X285086Y417459D01*
X285094Y417478D01*
X285106Y417501D01*
X285117Y417524D01*
X285148Y417585D01*
X285186Y417654D01*
X285232Y417724D01*
X285286Y417793D01*
X285351Y417854D01*
X285355D01*
X285359Y417862D01*
X285371Y417866D01*
X285382Y417877D01*
X285424Y417900D01*
X285474Y417927D01*
X285543Y417954D01*
X285620Y417977D01*
X285708Y417992D01*
X285808Y418000D01*
X285843D01*
X285870Y417996D01*
D02*
G37*
G36*
X291000Y406977D02*
X289829D01*
X289798Y406981D01*
X289767D01*
X289691Y406985D01*
X289610Y406992D01*
X289526Y407008D01*
X289445Y407023D01*
X289406Y407035D01*
X289372Y407046D01*
X289368D01*
X289364Y407050D01*
X289341Y407058D01*
X289310Y407077D01*
X289272Y407104D01*
X289226Y407135D01*
X289180Y407177D01*
X289134Y407227D01*
X289092Y407288D01*
X289088Y407296D01*
X289076Y407319D01*
X289057Y407353D01*
X289038Y407400D01*
X289019Y407457D01*
X288999Y407522D01*
X288988Y407592D01*
X288984Y407668D01*
Y407672D01*
Y407680D01*
Y407695D01*
X288988Y407714D01*
Y407737D01*
X288992Y407764D01*
X289007Y407826D01*
X289026Y407899D01*
X289057Y407972D01*
X289103Y408048D01*
X289130Y408087D01*
X289161Y408121D01*
X289168Y408129D01*
X289180Y408137D01*
X289191Y408152D01*
X289211Y408164D01*
X289234Y408183D01*
X289261Y408198D01*
X289291Y408217D01*
X289326Y408237D01*
X289368Y408256D01*
X289410Y408275D01*
X289460Y408294D01*
X289510Y408314D01*
X289568Y408329D01*
X289629Y408340D01*
X289694Y408352D01*
X289687Y408356D01*
X289671Y408363D01*
X289648Y408375D01*
X289621Y408390D01*
X289556Y408432D01*
X289522Y408456D01*
X289495Y408479D01*
X289487Y408486D01*
X289468Y408502D01*
X289441Y408532D01*
X289406Y408571D01*
X289364Y408621D01*
X289318Y408678D01*
X289268Y408744D01*
X289218Y408816D01*
X288780Y409500D01*
X289199D01*
X289533Y408978D01*
Y408974D01*
X289541Y408966D01*
X289548Y408955D01*
X289556Y408939D01*
X289583Y408901D01*
X289618Y408851D01*
X289656Y408793D01*
X289698Y408736D01*
X289737Y408682D01*
X289775Y408632D01*
X289779Y408628D01*
X289790Y408613D01*
X289810Y408590D01*
X289829Y408563D01*
X289886Y408509D01*
X289913Y408482D01*
X289944Y408463D01*
X289948Y408459D01*
X289955Y408456D01*
X289971Y408448D01*
X289990Y408436D01*
X290036Y408413D01*
X290094Y408394D01*
X290098D01*
X290105Y408390D01*
X290121D01*
X290140Y408386D01*
X290167Y408383D01*
X290197D01*
X290236Y408379D01*
X290666D01*
Y409500D01*
X291000D01*
Y406977D01*
D02*
G37*
G36*
X288631Y409496D02*
Y409481D01*
Y409458D01*
X288627Y409431D01*
X288623Y409400D01*
X288619Y409366D01*
X288608Y409327D01*
X288596Y409289D01*
Y409285D01*
X288592Y409281D01*
X288585Y409258D01*
X288569Y409227D01*
X288546Y409181D01*
X288519Y409131D01*
X288481Y409074D01*
X288443Y409016D01*
X288393Y408955D01*
Y408951D01*
X288385Y408947D01*
X288366Y408924D01*
X288335Y408889D01*
X288289Y408843D01*
X288231Y408790D01*
X288162Y408724D01*
X288078Y408651D01*
X287986Y408571D01*
X287982Y408567D01*
X287966Y408555D01*
X287947Y408540D01*
X287920Y408513D01*
X287886Y408486D01*
X287847Y408452D01*
X287763Y408379D01*
X287671Y408290D01*
X287579Y408202D01*
X287532Y408160D01*
X287494Y408118D01*
X287459Y408075D01*
X287429Y408037D01*
Y408033D01*
X287421Y408029D01*
X287414Y408018D01*
X287406Y408002D01*
X287383Y407964D01*
X287356Y407914D01*
X287329Y407857D01*
X287306Y407795D01*
X287291Y407726D01*
X287283Y407661D01*
Y407657D01*
Y407653D01*
X287287Y407630D01*
X287291Y407595D01*
X287298Y407553D01*
X287317Y407503D01*
X287340Y407453D01*
X287371Y407400D01*
X287417Y407350D01*
X287425Y407346D01*
X287440Y407330D01*
X287471Y407311D01*
X287509Y407284D01*
X287559Y407261D01*
X287617Y407242D01*
X287686Y407227D01*
X287763Y407223D01*
X287786D01*
X287801Y407227D01*
X287840Y407231D01*
X287890Y407238D01*
X287947Y407258D01*
X288009Y407280D01*
X288066Y407315D01*
X288120Y407361D01*
X288124Y407369D01*
X288139Y407384D01*
X288162Y407415D01*
X288185Y407457D01*
X288212Y407511D01*
X288231Y407572D01*
X288247Y407645D01*
X288254Y407730D01*
X288573Y407695D01*
Y407691D01*
Y407680D01*
X288569Y407661D01*
X288565Y407638D01*
X288558Y407607D01*
X288554Y407572D01*
X288531Y407496D01*
X288500Y407407D01*
X288458Y407319D01*
X288400Y407231D01*
X288370Y407192D01*
X288331Y407154D01*
X288327Y407150D01*
X288320Y407146D01*
X288308Y407135D01*
X288293Y407123D01*
X288270Y407112D01*
X288243Y407092D01*
X288212Y407077D01*
X288178Y407058D01*
X288139Y407042D01*
X288097Y407023D01*
X288047Y407008D01*
X287997Y406996D01*
X287882Y406973D01*
X287821Y406969D01*
X287755Y406966D01*
X287721D01*
X287694Y406969D01*
X287663Y406973D01*
X287629Y406977D01*
X287590Y406981D01*
X287548Y406992D01*
X287456Y407016D01*
X287360Y407050D01*
X287310Y407073D01*
X287264Y407100D01*
X287222Y407135D01*
X287179Y407169D01*
X287175Y407173D01*
X287172Y407177D01*
X287160Y407188D01*
X287145Y407204D01*
X287129Y407227D01*
X287110Y407250D01*
X287072Y407307D01*
X287033Y407380D01*
X286999Y407465D01*
X286972Y407561D01*
X286968Y407615D01*
X286964Y407668D01*
Y407676D01*
Y407695D01*
X286968Y407726D01*
X286972Y407764D01*
X286980Y407810D01*
X286991Y407860D01*
X287006Y407914D01*
X287030Y407968D01*
X287033Y407976D01*
X287041Y407995D01*
X287056Y408022D01*
X287079Y408060D01*
X287106Y408106D01*
X287141Y408160D01*
X287187Y408214D01*
X287237Y408275D01*
X287245Y408283D01*
X287264Y408306D01*
X287298Y408340D01*
X287321Y408363D01*
X287348Y408390D01*
X287379Y408421D01*
X287417Y408456D01*
X287456Y408490D01*
X287498Y408532D01*
X287544Y408575D01*
X287598Y408621D01*
X287651Y408667D01*
X287713Y408720D01*
X287717Y408724D01*
X287724Y408732D01*
X287740Y408744D01*
X287759Y408759D01*
X287805Y408797D01*
X287863Y408847D01*
X287920Y408901D01*
X287982Y408955D01*
X288032Y409001D01*
X288051Y409020D01*
X288070Y409039D01*
X288074Y409043D01*
X288082Y409055D01*
X288097Y409070D01*
X288116Y409093D01*
X288158Y409143D01*
X288201Y409204D01*
X286960D01*
Y409500D01*
X288631D01*
Y409496D01*
D02*
G37*
G36*
X285774Y407526D02*
X285778Y407530D01*
X285793Y407546D01*
X285820Y407565D01*
X285854Y407592D01*
X285897Y407626D01*
X285947Y407661D01*
X286004Y407703D01*
X286069Y407741D01*
X286073D01*
X286077Y407745D01*
X286100Y407760D01*
X286135Y407780D01*
X286177Y407803D01*
X286227Y407830D01*
X286281Y407853D01*
X286338Y407880D01*
X286392Y407903D01*
Y407599D01*
X286388D01*
X286381Y407595D01*
X286365Y407588D01*
X286350Y407576D01*
X286327Y407565D01*
X286300Y407553D01*
X286238Y407519D01*
X286169Y407476D01*
X286092Y407426D01*
X286016Y407369D01*
X285943Y407307D01*
X285939Y407303D01*
X285935Y407300D01*
X285912Y407277D01*
X285877Y407242D01*
X285835Y407200D01*
X285789Y407146D01*
X285743Y407089D01*
X285701Y407027D01*
X285666Y406966D01*
X285463D01*
Y409500D01*
X285774D01*
Y407526D01*
D02*
G37*
G36*
X262448Y375201D02*
X262444D01*
X262437D01*
X262421D01*
X262402Y375197D01*
X262379D01*
X262352Y375193D01*
X262291Y375181D01*
X262222Y375170D01*
X262156Y375151D01*
X262099Y375124D01*
X262072Y375108D01*
X262049Y375093D01*
X262045Y375089D01*
X262034Y375074D01*
X262014Y375055D01*
X261999Y375024D01*
X261980Y374986D01*
X261961Y374939D01*
X261949Y374886D01*
X261945Y374824D01*
Y374801D01*
X261949Y374778D01*
X261953Y374751D01*
X261961Y374717D01*
X261968Y374678D01*
X261984Y374644D01*
X262003Y374609D01*
X262007Y374605D01*
X262014Y374594D01*
X262026Y374578D01*
X262045Y374559D01*
X262064Y374536D01*
X262091Y374517D01*
X262122Y374498D01*
X262156Y374482D01*
X262160D01*
X262176Y374475D01*
X262199Y374471D01*
X262233Y374463D01*
X262279Y374456D01*
X262333Y374452D01*
X262398Y374444D01*
X262475D01*
X264215D01*
Y374110D01*
X262494D01*
X262491D01*
X262479D01*
X262464D01*
X262441D01*
X262414Y374114D01*
X262383D01*
X262314Y374118D01*
X262233Y374129D01*
X262153Y374141D01*
X262072Y374160D01*
X262003Y374187D01*
X261995Y374191D01*
X261976Y374202D01*
X261945Y374221D01*
X261907Y374244D01*
X261861Y374279D01*
X261819Y374321D01*
X261776Y374375D01*
X261738Y374432D01*
X261734Y374440D01*
X261722Y374463D01*
X261711Y374498D01*
X261696Y374544D01*
X261676Y374602D01*
X261665Y374667D01*
X261653Y374744D01*
X261649Y374824D01*
Y374855D01*
X261653Y374878D01*
X261657Y374905D01*
X261661Y374939D01*
X261673Y375012D01*
X261696Y375093D01*
X261730Y375178D01*
X261749Y375220D01*
X261776Y375258D01*
X261803Y375296D01*
X261838Y375331D01*
X261842D01*
X261845Y375339D01*
X261857Y375346D01*
X261872Y375358D01*
X261895Y375373D01*
X261918Y375385D01*
X261949Y375404D01*
X261980Y375419D01*
X262018Y375435D01*
X262060Y375450D01*
X262106Y375465D01*
X262160Y375477D01*
X262214Y375488D01*
X262276Y375496D01*
X262337Y375500D01*
X262406D01*
X262448Y375201D01*
D02*
G37*
G36*
X263439Y373688D02*
X263470Y373684D01*
X263508Y373680D01*
X263550Y373672D01*
X263596Y373664D01*
X263692Y373638D01*
X263746Y373618D01*
X263796Y373595D01*
X263850Y373572D01*
X263900Y373542D01*
X263946Y373507D01*
X263992Y373469D01*
X263996Y373465D01*
X264003Y373457D01*
X264015Y373446D01*
X264030Y373426D01*
X264046Y373407D01*
X264065Y373380D01*
X264088Y373350D01*
X264111Y373311D01*
X264130Y373273D01*
X264153Y373231D01*
X264192Y373135D01*
X264203Y373081D01*
X264215Y373023D01*
X264222Y372962D01*
X264226Y372900D01*
Y372877D01*
X264222Y372858D01*
Y372839D01*
X264218Y372812D01*
X264211Y372751D01*
X264192Y372681D01*
X264169Y372608D01*
X264138Y372528D01*
X264092Y372451D01*
Y372447D01*
X264084Y372443D01*
X264076Y372432D01*
X264069Y372416D01*
X264038Y372382D01*
X263996Y372336D01*
X263938Y372286D01*
X263877Y372232D01*
X263800Y372182D01*
X263712Y372140D01*
X263708D01*
X263700Y372136D01*
X263685Y372129D01*
X263666Y372125D01*
X263643Y372113D01*
X263612Y372106D01*
X263573Y372098D01*
X263531Y372086D01*
X263485Y372075D01*
X263431Y372067D01*
X263374Y372056D01*
X263312Y372048D01*
X263243Y372044D01*
X263170Y372036D01*
X263090Y372032D01*
X263005D01*
X263001D01*
X262982D01*
X262959D01*
X262924D01*
X262886Y372036D01*
X262836D01*
X262786Y372040D01*
X262729Y372044D01*
X262606Y372059D01*
X262475Y372079D01*
X262348Y372106D01*
X262291Y372121D01*
X262233Y372140D01*
X262229D01*
X262222Y372144D01*
X262206Y372152D01*
X262187Y372159D01*
X262160Y372171D01*
X262133Y372182D01*
X262072Y372217D01*
X261999Y372263D01*
X261926Y372317D01*
X261857Y372378D01*
X261795Y372451D01*
Y372455D01*
X261788Y372459D01*
X261784Y372470D01*
X261772Y372490D01*
X261761Y372509D01*
X261749Y372532D01*
X261722Y372589D01*
X261696Y372662D01*
X261673Y372743D01*
X261657Y372839D01*
X261649Y372939D01*
Y372966D01*
X261653Y372989D01*
Y373012D01*
X261657Y373042D01*
X261669Y373112D01*
X261688Y373188D01*
X261719Y373269D01*
X261757Y373346D01*
X261811Y373423D01*
X261815Y373426D01*
X261819Y373430D01*
X261842Y373453D01*
X261880Y373484D01*
X261930Y373522D01*
X261995Y373561D01*
X262076Y373595D01*
X262168Y373626D01*
X262276Y373645D01*
X262298Y373350D01*
X262295D01*
X262291D01*
X262279Y373346D01*
X262264Y373342D01*
X262226Y373334D01*
X262183Y373319D01*
X262133Y373300D01*
X262084Y373277D01*
X262034Y373246D01*
X261995Y373208D01*
X261991Y373204D01*
X261980Y373188D01*
X261964Y373165D01*
X261949Y373131D01*
X261934Y373092D01*
X261918Y373046D01*
X261907Y372992D01*
X261903Y372931D01*
Y372908D01*
X261907Y372881D01*
X261911Y372847D01*
X261918Y372808D01*
X261930Y372766D01*
X261945Y372724D01*
X261968Y372681D01*
X261972Y372678D01*
X261980Y372662D01*
X261995Y372643D01*
X262014Y372620D01*
X262037Y372589D01*
X262068Y372562D01*
X262103Y372532D01*
X262141Y372505D01*
X262145Y372501D01*
X262160Y372493D01*
X262187Y372482D01*
X262222Y372463D01*
X262264Y372447D01*
X262314Y372428D01*
X262371Y372409D01*
X262437Y372390D01*
X262441D01*
X262444Y372386D01*
X262456D01*
X262468Y372382D01*
X262506Y372374D01*
X262556Y372367D01*
X262613Y372359D01*
X262675Y372351D01*
X262744Y372344D01*
X262817D01*
X262821D01*
X262832D01*
X262852D01*
X262878D01*
X262871Y372347D01*
X262855Y372363D01*
X262825Y372382D01*
X262794Y372413D01*
X262755Y372447D01*
X262713Y372493D01*
X262675Y372543D01*
X262636Y372601D01*
X262633Y372608D01*
X262621Y372628D01*
X262610Y372662D01*
X262594Y372705D01*
X262575Y372754D01*
X262563Y372812D01*
X262552Y372877D01*
X262548Y372946D01*
Y372977D01*
X262552Y373000D01*
X262556Y373027D01*
X262560Y373058D01*
X262575Y373131D01*
X262602Y373215D01*
X262621Y373257D01*
X262644Y373304D01*
X262671Y373346D01*
X262702Y373392D01*
X262736Y373434D01*
X262775Y373476D01*
X262778Y373480D01*
X262786Y373484D01*
X262798Y373496D01*
X262817Y373511D01*
X262840Y373526D01*
X262867Y373546D01*
X262898Y373565D01*
X262936Y373584D01*
X262974Y373603D01*
X263020Y373622D01*
X263070Y373641D01*
X263124Y373657D01*
X263182Y373672D01*
X263239Y373684D01*
X263305Y373688D01*
X263374Y373691D01*
X263378D01*
X263389D01*
X263412D01*
X263439Y373688D01*
D02*
G37*
G36*
X339565Y217829D02*
X339561Y217798D01*
Y217767D01*
X339557Y217691D01*
X339550Y217610D01*
X339534Y217526D01*
X339519Y217445D01*
X339508Y217406D01*
X339496Y217372D01*
Y217368D01*
X339492Y217364D01*
X339485Y217341D01*
X339465Y217310D01*
X339438Y217272D01*
X339408Y217226D01*
X339365Y217180D01*
X339316Y217134D01*
X339254Y217092D01*
X339246Y217088D01*
X339223Y217076D01*
X339189Y217057D01*
X339143Y217038D01*
X339085Y217019D01*
X339020Y216999D01*
X338951Y216988D01*
X338874Y216984D01*
X338870D01*
X338862D01*
X338847D01*
X338828Y216988D01*
X338805D01*
X338778Y216992D01*
X338716Y217007D01*
X338644Y217026D01*
X338570Y217057D01*
X338494Y217103D01*
X338455Y217130D01*
X338421Y217161D01*
X338413Y217168D01*
X338405Y217180D01*
X338390Y217191D01*
X338379Y217211D01*
X338359Y217234D01*
X338344Y217261D01*
X338325Y217291D01*
X338306Y217326D01*
X338286Y217368D01*
X338267Y217410D01*
X338248Y217460D01*
X338229Y217510D01*
X338213Y217568D01*
X338202Y217629D01*
X338190Y217694D01*
X338187Y217687D01*
X338179Y217671D01*
X338167Y217648D01*
X338152Y217621D01*
X338110Y217556D01*
X338087Y217522D01*
X338064Y217495D01*
X338056Y217487D01*
X338041Y217468D01*
X338010Y217441D01*
X337971Y217406D01*
X337922Y217364D01*
X337864Y217318D01*
X337799Y217268D01*
X337726Y217218D01*
X337042Y216780D01*
Y217199D01*
X337564Y217533D01*
X337568D01*
X337576Y217541D01*
X337587Y217548D01*
X337603Y217556D01*
X337641Y217583D01*
X337691Y217618D01*
X337749Y217656D01*
X337806Y217698D01*
X337860Y217737D01*
X337910Y217775D01*
X337914Y217779D01*
X337929Y217790D01*
X337952Y217810D01*
X337979Y217829D01*
X338033Y217886D01*
X338060Y217913D01*
X338079Y217944D01*
X338083Y217948D01*
X338087Y217955D01*
X338094Y217971D01*
X338106Y217990D01*
X338129Y218036D01*
X338148Y218094D01*
Y218098D01*
X338152Y218105D01*
Y218121D01*
X338156Y218140D01*
X338160Y218167D01*
Y218197D01*
X338163Y218236D01*
Y218666D01*
X337042D01*
Y219000D01*
X339565D01*
Y217829D01*
D02*
G37*
G36*
X337111Y216627D02*
X337142Y216623D01*
X337177Y216619D01*
X337215Y216608D01*
X337253Y216596D01*
X337257D01*
X337261Y216592D01*
X337284Y216585D01*
X337315Y216569D01*
X337361Y216546D01*
X337411Y216519D01*
X337468Y216481D01*
X337526Y216443D01*
X337587Y216393D01*
X337591D01*
X337595Y216385D01*
X337618Y216366D01*
X337653Y216335D01*
X337699Y216289D01*
X337753Y216231D01*
X337818Y216162D01*
X337891Y216078D01*
X337971Y215986D01*
X337975Y215982D01*
X337987Y215966D01*
X338002Y215947D01*
X338029Y215920D01*
X338056Y215886D01*
X338090Y215847D01*
X338163Y215763D01*
X338252Y215671D01*
X338340Y215579D01*
X338382Y215532D01*
X338425Y215494D01*
X338467Y215459D01*
X338505Y215429D01*
X338509D01*
X338513Y215421D01*
X338524Y215413D01*
X338540Y215406D01*
X338578Y215383D01*
X338628Y215356D01*
X338686Y215329D01*
X338747Y215306D01*
X338816Y215291D01*
X338882Y215283D01*
X338885D01*
X338889D01*
X338912Y215287D01*
X338947Y215291D01*
X338989Y215298D01*
X339039Y215318D01*
X339089Y215340D01*
X339143Y215371D01*
X339193Y215417D01*
X339196Y215425D01*
X339212Y215440D01*
X339231Y215471D01*
X339258Y215510D01*
X339281Y215559D01*
X339300Y215617D01*
X339316Y215686D01*
X339319Y215763D01*
Y215786D01*
X339316Y215801D01*
X339312Y215840D01*
X339304Y215890D01*
X339285Y215947D01*
X339262Y216009D01*
X339227Y216066D01*
X339181Y216120D01*
X339173Y216124D01*
X339158Y216139D01*
X339127Y216162D01*
X339085Y216185D01*
X339031Y216212D01*
X338970Y216231D01*
X338897Y216247D01*
X338812Y216254D01*
X338847Y216573D01*
X338851D01*
X338862D01*
X338882Y216569D01*
X338905Y216565D01*
X338935Y216558D01*
X338970Y216554D01*
X339047Y216531D01*
X339135Y216500D01*
X339223Y216458D01*
X339312Y216400D01*
X339350Y216370D01*
X339388Y216331D01*
X339392Y216327D01*
X339396Y216320D01*
X339408Y216308D01*
X339419Y216293D01*
X339431Y216270D01*
X339450Y216243D01*
X339465Y216212D01*
X339485Y216178D01*
X339500Y216139D01*
X339519Y216097D01*
X339534Y216047D01*
X339546Y215997D01*
X339569Y215882D01*
X339573Y215821D01*
X339577Y215755D01*
Y215721D01*
X339573Y215694D01*
X339569Y215663D01*
X339565Y215629D01*
X339561Y215590D01*
X339550Y215548D01*
X339527Y215456D01*
X339492Y215360D01*
X339469Y215310D01*
X339442Y215264D01*
X339408Y215222D01*
X339373Y215179D01*
X339369Y215175D01*
X339365Y215172D01*
X339354Y215160D01*
X339338Y215145D01*
X339316Y215129D01*
X339293Y215110D01*
X339235Y215072D01*
X339162Y215033D01*
X339077Y214999D01*
X338981Y214972D01*
X338928Y214968D01*
X338874Y214964D01*
X338866D01*
X338847D01*
X338816Y214968D01*
X338778Y214972D01*
X338732Y214980D01*
X338682Y214991D01*
X338628Y215006D01*
X338574Y215030D01*
X338567Y215033D01*
X338547Y215041D01*
X338521Y215056D01*
X338482Y215079D01*
X338436Y215106D01*
X338382Y215141D01*
X338329Y215187D01*
X338267Y215237D01*
X338260Y215245D01*
X338236Y215264D01*
X338202Y215298D01*
X338179Y215321D01*
X338152Y215348D01*
X338121Y215379D01*
X338087Y215417D01*
X338052Y215456D01*
X338010Y215498D01*
X337968Y215544D01*
X337922Y215598D01*
X337876Y215651D01*
X337822Y215713D01*
X337818Y215717D01*
X337810Y215724D01*
X337799Y215740D01*
X337783Y215759D01*
X337745Y215805D01*
X337695Y215863D01*
X337641Y215920D01*
X337587Y215982D01*
X337541Y216032D01*
X337522Y216051D01*
X337503Y216070D01*
X337499Y216074D01*
X337488Y216082D01*
X337472Y216097D01*
X337449Y216116D01*
X337399Y216158D01*
X337338Y216201D01*
Y214960D01*
X337042D01*
Y216631D01*
X337046D01*
X337061D01*
X337085D01*
X337111Y216627D01*
D02*
G37*
G36*
X338789Y214626D02*
X338820Y214622D01*
X338859Y214619D01*
X338901Y214611D01*
X338947Y214603D01*
X339043Y214576D01*
X339097Y214557D01*
X339146Y214534D01*
X339200Y214511D01*
X339250Y214480D01*
X339296Y214446D01*
X339342Y214407D01*
X339346Y214404D01*
X339354Y214396D01*
X339365Y214384D01*
X339381Y214365D01*
X339396Y214346D01*
X339415Y214319D01*
X339438Y214288D01*
X339461Y214250D01*
X339481Y214212D01*
X339504Y214169D01*
X339542Y214073D01*
X339554Y214019D01*
X339565Y213962D01*
X339573Y213900D01*
X339577Y213839D01*
Y213816D01*
X339573Y213797D01*
Y213778D01*
X339569Y213751D01*
X339561Y213689D01*
X339542Y213620D01*
X339519Y213547D01*
X339488Y213467D01*
X339442Y213390D01*
Y213386D01*
X339435Y213382D01*
X339427Y213371D01*
X339419Y213355D01*
X339388Y213321D01*
X339346Y213275D01*
X339289Y213225D01*
X339227Y213171D01*
X339150Y213121D01*
X339062Y213079D01*
X339058D01*
X339051Y213075D01*
X339035Y213067D01*
X339016Y213063D01*
X338993Y213052D01*
X338962Y213044D01*
X338924Y213036D01*
X338882Y213025D01*
X338836Y213014D01*
X338782Y213006D01*
X338724Y212994D01*
X338663Y212987D01*
X338594Y212983D01*
X338521Y212975D01*
X338440Y212971D01*
X338355D01*
X338352D01*
X338333D01*
X338309D01*
X338275D01*
X338236Y212975D01*
X338187D01*
X338137Y212979D01*
X338079Y212983D01*
X337956Y212998D01*
X337826Y213017D01*
X337699Y213044D01*
X337641Y213059D01*
X337584Y213079D01*
X337580D01*
X337572Y213083D01*
X337557Y213090D01*
X337538Y213098D01*
X337511Y213109D01*
X337484Y213121D01*
X337422Y213156D01*
X337349Y213202D01*
X337277Y213255D01*
X337207Y213317D01*
X337146Y213390D01*
Y213394D01*
X337138Y213398D01*
X337134Y213409D01*
X337123Y213428D01*
X337111Y213447D01*
X337100Y213470D01*
X337073Y213528D01*
X337046Y213601D01*
X337023Y213682D01*
X337008Y213778D01*
X337000Y213878D01*
Y213904D01*
X337004Y213927D01*
Y213950D01*
X337008Y213981D01*
X337019Y214050D01*
X337038Y214127D01*
X337069Y214208D01*
X337107Y214284D01*
X337161Y214361D01*
X337165Y214365D01*
X337169Y214369D01*
X337192Y214392D01*
X337230Y214423D01*
X337280Y214461D01*
X337346Y214499D01*
X337426Y214534D01*
X337518Y214565D01*
X337626Y214584D01*
X337649Y214288D01*
X337645D01*
X337641D01*
X337630Y214284D01*
X337614Y214281D01*
X337576Y214273D01*
X337534Y214258D01*
X337484Y214238D01*
X337434Y214215D01*
X337384Y214185D01*
X337346Y214146D01*
X337342Y214142D01*
X337330Y214127D01*
X337315Y214104D01*
X337299Y214070D01*
X337284Y214031D01*
X337269Y213985D01*
X337257Y213931D01*
X337253Y213870D01*
Y213847D01*
X337257Y213820D01*
X337261Y213785D01*
X337269Y213747D01*
X337280Y213705D01*
X337296Y213662D01*
X337319Y213620D01*
X337322Y213616D01*
X337330Y213601D01*
X337346Y213582D01*
X337365Y213559D01*
X337388Y213528D01*
X337419Y213501D01*
X337453Y213470D01*
X337491Y213444D01*
X337495Y213440D01*
X337511Y213432D01*
X337538Y213421D01*
X337572Y213401D01*
X337614Y213386D01*
X337664Y213367D01*
X337722Y213348D01*
X337787Y213328D01*
X337791D01*
X337795Y213324D01*
X337806D01*
X337818Y213321D01*
X337856Y213313D01*
X337906Y213305D01*
X337964Y213298D01*
X338025Y213290D01*
X338094Y213282D01*
X338167D01*
X338171D01*
X338183D01*
X338202D01*
X338229D01*
X338221Y213286D01*
X338206Y213301D01*
X338175Y213321D01*
X338144Y213351D01*
X338106Y213386D01*
X338064Y213432D01*
X338025Y213482D01*
X337987Y213540D01*
X337983Y213547D01*
X337971Y213566D01*
X337960Y213601D01*
X337945Y213643D01*
X337925Y213693D01*
X337914Y213751D01*
X337902Y213816D01*
X337898Y213885D01*
Y213916D01*
X337902Y213939D01*
X337906Y213966D01*
X337910Y213997D01*
X337925Y214070D01*
X337952Y214154D01*
X337971Y214196D01*
X337995Y214242D01*
X338021Y214284D01*
X338052Y214331D01*
X338087Y214373D01*
X338125Y214415D01*
X338129Y214419D01*
X338137Y214423D01*
X338148Y214434D01*
X338167Y214450D01*
X338190Y214465D01*
X338217Y214484D01*
X338248Y214503D01*
X338286Y214523D01*
X338325Y214542D01*
X338371Y214561D01*
X338421Y214580D01*
X338474Y214596D01*
X338532Y214611D01*
X338590Y214622D01*
X338655Y214626D01*
X338724Y214630D01*
X338728D01*
X338739D01*
X338762D01*
X338789Y214626D01*
D02*
G37*
G36*
X331565Y217829D02*
X331561Y217798D01*
Y217767D01*
X331557Y217691D01*
X331550Y217610D01*
X331534Y217526D01*
X331519Y217445D01*
X331507Y217406D01*
X331496Y217372D01*
Y217368D01*
X331492Y217364D01*
X331485Y217341D01*
X331465Y217310D01*
X331438Y217272D01*
X331408Y217226D01*
X331365Y217180D01*
X331315Y217134D01*
X331254Y217092D01*
X331246Y217088D01*
X331223Y217076D01*
X331189Y217057D01*
X331143Y217038D01*
X331085Y217019D01*
X331020Y216999D01*
X330951Y216988D01*
X330874Y216984D01*
X330870D01*
X330862D01*
X330847D01*
X330828Y216988D01*
X330805D01*
X330778Y216992D01*
X330716Y217007D01*
X330644Y217026D01*
X330571Y217057D01*
X330494Y217103D01*
X330455Y217130D01*
X330421Y217161D01*
X330413Y217168D01*
X330405Y217180D01*
X330390Y217191D01*
X330379Y217211D01*
X330359Y217234D01*
X330344Y217261D01*
X330325Y217291D01*
X330306Y217326D01*
X330286Y217368D01*
X330267Y217410D01*
X330248Y217460D01*
X330229Y217510D01*
X330213Y217568D01*
X330202Y217629D01*
X330190Y217694D01*
X330187Y217687D01*
X330179Y217671D01*
X330167Y217648D01*
X330152Y217621D01*
X330110Y217556D01*
X330087Y217522D01*
X330064Y217495D01*
X330056Y217487D01*
X330041Y217468D01*
X330010Y217441D01*
X329972Y217406D01*
X329922Y217364D01*
X329864Y217318D01*
X329799Y217268D01*
X329726Y217218D01*
X329042Y216780D01*
Y217199D01*
X329564Y217533D01*
X329568D01*
X329576Y217541D01*
X329588Y217548D01*
X329603Y217556D01*
X329641Y217583D01*
X329691Y217618D01*
X329749Y217656D01*
X329806Y217698D01*
X329860Y217737D01*
X329910Y217775D01*
X329914Y217779D01*
X329929Y217790D01*
X329952Y217810D01*
X329979Y217829D01*
X330033Y217886D01*
X330060Y217913D01*
X330079Y217944D01*
X330083Y217948D01*
X330087Y217955D01*
X330094Y217971D01*
X330106Y217990D01*
X330129Y218036D01*
X330148Y218094D01*
Y218098D01*
X330152Y218105D01*
Y218121D01*
X330156Y218140D01*
X330160Y218167D01*
Y218197D01*
X330164Y218236D01*
Y218666D01*
X329042D01*
Y219000D01*
X331565D01*
Y217829D01*
D02*
G37*
G36*
X329753Y216274D02*
X329749D01*
X329741Y216270D01*
X329726D01*
X329710Y216262D01*
X329664Y216251D01*
X329607Y216231D01*
X329545Y216208D01*
X329480Y216178D01*
X329422Y216139D01*
X329372Y216097D01*
X329369Y216089D01*
X329353Y216074D01*
X329338Y216047D01*
X329315Y216009D01*
X329296Y215966D01*
X329276Y215913D01*
X329261Y215851D01*
X329257Y215786D01*
Y215763D01*
X329261Y215748D01*
X329265Y215709D01*
X329276Y215659D01*
X329296Y215598D01*
X329319Y215536D01*
X329357Y215475D01*
X329407Y215417D01*
X329415Y215410D01*
X329434Y215394D01*
X329465Y215371D01*
X329511Y215340D01*
X329564Y215314D01*
X329630Y215291D01*
X329703Y215275D01*
X329783Y215267D01*
X329787D01*
X329791D01*
X329802D01*
X329818Y215271D01*
X329856Y215275D01*
X329906Y215287D01*
X329960Y215302D01*
X330021Y215329D01*
X330079Y215364D01*
X330133Y215410D01*
X330140Y215417D01*
X330156Y215433D01*
X330175Y215463D01*
X330202Y215506D01*
X330229Y215556D01*
X330248Y215617D01*
X330263Y215682D01*
X330271Y215759D01*
Y215794D01*
X330267Y215821D01*
X330263Y215851D01*
X330259Y215890D01*
X330252Y215932D01*
X330240Y215978D01*
X330513Y215943D01*
Y215924D01*
X330509Y215909D01*
Y215859D01*
X330513Y215824D01*
X330521Y215774D01*
X330532Y215721D01*
X330551Y215663D01*
X330574Y215602D01*
X330609Y215540D01*
X330613Y215532D01*
X330628Y215513D01*
X330655Y215490D01*
X330690Y215459D01*
X330732Y215429D01*
X330786Y215406D01*
X330851Y215387D01*
X330928Y215379D01*
X330931D01*
X330935D01*
X330955D01*
X330985Y215387D01*
X331028Y215394D01*
X331070Y215406D01*
X331116Y215429D01*
X331166Y215456D01*
X331208Y215494D01*
X331212Y215498D01*
X331227Y215513D01*
X331246Y215540D01*
X331266Y215575D01*
X331289Y215617D01*
X331304Y215667D01*
X331319Y215724D01*
X331323Y215790D01*
Y215821D01*
X331315Y215855D01*
X331308Y215894D01*
X331296Y215943D01*
X331273Y215993D01*
X331246Y216043D01*
X331208Y216093D01*
X331204Y216097D01*
X331189Y216112D01*
X331162Y216132D01*
X331123Y216155D01*
X331077Y216181D01*
X331020Y216205D01*
X330951Y216228D01*
X330870Y216243D01*
X330924Y216554D01*
X330928D01*
X330939Y216550D01*
X330955Y216546D01*
X330974Y216542D01*
X331001Y216535D01*
X331031Y216527D01*
X331101Y216500D01*
X331177Y216470D01*
X331258Y216423D01*
X331335Y216370D01*
X331404Y216301D01*
X331408Y216297D01*
X331412Y216293D01*
X331419Y216281D01*
X331431Y216262D01*
X331442Y216243D01*
X331458Y216220D01*
X331492Y216162D01*
X331523Y216089D01*
X331550Y216001D01*
X331569Y215905D01*
X331577Y215851D01*
Y215763D01*
X331573Y215724D01*
X331565Y215675D01*
X331554Y215617D01*
X331538Y215552D01*
X331515Y215486D01*
X331485Y215421D01*
Y215417D01*
X331481Y215413D01*
X331469Y215390D01*
X331450Y215360D01*
X331423Y215321D01*
X331388Y215279D01*
X331346Y215233D01*
X331296Y215191D01*
X331242Y215152D01*
X331235Y215148D01*
X331216Y215137D01*
X331185Y215122D01*
X331147Y215106D01*
X331097Y215091D01*
X331043Y215076D01*
X330985Y215064D01*
X330920Y215060D01*
X330912D01*
X330893D01*
X330862Y215064D01*
X330824Y215072D01*
X330778Y215083D01*
X330728Y215099D01*
X330674Y215118D01*
X330624Y215148D01*
X330617Y215152D01*
X330601Y215164D01*
X330578Y215187D01*
X330547Y215214D01*
X330513Y215252D01*
X330478Y215294D01*
X330440Y215348D01*
X330409Y215410D01*
Y215406D01*
X330405Y215398D01*
Y215387D01*
X330398Y215371D01*
X330386Y215333D01*
X330363Y215283D01*
X330336Y215229D01*
X330298Y215172D01*
X330252Y215114D01*
X330194Y215064D01*
X330187Y215060D01*
X330164Y215045D01*
X330129Y215026D01*
X330083Y214999D01*
X330025Y214976D01*
X329956Y214956D01*
X329875Y214941D01*
X329787Y214937D01*
X329783D01*
X329772D01*
X329756D01*
X329733Y214941D01*
X329703Y214945D01*
X329672Y214949D01*
X329634Y214956D01*
X329595Y214968D01*
X329507Y214995D01*
X329457Y215014D01*
X329411Y215041D01*
X329365Y215068D01*
X329319Y215099D01*
X329273Y215137D01*
X329226Y215179D01*
X329223Y215183D01*
X329215Y215191D01*
X329207Y215202D01*
X329192Y215222D01*
X329173Y215245D01*
X329154Y215275D01*
X329134Y215310D01*
X329115Y215344D01*
X329092Y215387D01*
X329073Y215433D01*
X329054Y215483D01*
X329034Y215536D01*
X329019Y215594D01*
X329012Y215655D01*
X329004Y215721D01*
X329000Y215786D01*
Y215817D01*
X329004Y215840D01*
X329008Y215870D01*
X329012Y215901D01*
X329015Y215940D01*
X329023Y215978D01*
X329046Y216066D01*
X329084Y216158D01*
X329104Y216205D01*
X329131Y216247D01*
X329161Y216293D01*
X329196Y216335D01*
X329200Y216339D01*
X329204Y216343D01*
X329215Y216354D01*
X329230Y216370D01*
X329253Y216385D01*
X329276Y216404D01*
X329303Y216427D01*
X329334Y216446D01*
X329411Y216493D01*
X329499Y216531D01*
X329599Y216565D01*
X329653Y216577D01*
X329710Y216585D01*
X329753Y216274D01*
D02*
G37*
G36*
X330398Y214626D02*
X330440D01*
X330490Y214622D01*
X330544Y214619D01*
X330659Y214607D01*
X330778Y214592D01*
X330897Y214573D01*
X330951Y214557D01*
X331004Y214542D01*
X331008D01*
X331016Y214538D01*
X331031Y214530D01*
X331050Y214523D01*
X331074Y214515D01*
X331101Y214503D01*
X331162Y214473D01*
X331231Y214434D01*
X331300Y214388D01*
X331365Y214334D01*
X331427Y214269D01*
Y214265D01*
X331434Y214262D01*
X331442Y214250D01*
X331450Y214235D01*
X331473Y214196D01*
X331504Y214142D01*
X331530Y214077D01*
X331554Y213997D01*
X331569Y213908D01*
X331577Y213808D01*
Y213774D01*
X331573Y213735D01*
X331565Y213689D01*
X331557Y213636D01*
X331542Y213574D01*
X331519Y213513D01*
X331492Y213455D01*
X331488Y213447D01*
X331477Y213428D01*
X331458Y213401D01*
X331434Y213363D01*
X331400Y213324D01*
X331358Y213282D01*
X331312Y213240D01*
X331258Y213202D01*
X331250Y213198D01*
X331231Y213186D01*
X331196Y213167D01*
X331154Y213144D01*
X331101Y213121D01*
X331035Y213094D01*
X330962Y213067D01*
X330882Y213044D01*
X330878D01*
X330870Y213040D01*
X330858D01*
X330839Y213036D01*
X330820Y213029D01*
X330793Y213025D01*
X330759Y213021D01*
X330724Y213014D01*
X330682Y213010D01*
X330640Y213006D01*
X330590Y212998D01*
X330536Y212994D01*
X330478Y212990D01*
X330421D01*
X330286Y212987D01*
X330282D01*
X330267D01*
X330244D01*
X330213D01*
X330175Y212990D01*
X330133D01*
X330083Y212994D01*
X330029Y212998D01*
X329914Y213010D01*
X329795Y213025D01*
X329676Y213048D01*
X329622Y213063D01*
X329568Y213079D01*
X329564D01*
X329557Y213083D01*
X329541Y213086D01*
X329522Y213094D01*
X329499Y213106D01*
X329476Y213117D01*
X329415Y213148D01*
X329346Y213186D01*
X329276Y213232D01*
X329207Y213286D01*
X329146Y213351D01*
Y213355D01*
X329138Y213359D01*
X329134Y213371D01*
X329123Y213382D01*
X329100Y213424D01*
X329073Y213474D01*
X329046Y213543D01*
X329023Y213620D01*
X329008Y213708D01*
X329000Y213808D01*
Y213843D01*
X329004Y213870D01*
X329008Y213900D01*
X329015Y213935D01*
X329023Y213973D01*
X329031Y214016D01*
X329061Y214108D01*
X329084Y214158D01*
X329107Y214204D01*
X329138Y214254D01*
X329173Y214300D01*
X329211Y214342D01*
X329257Y214384D01*
X329261Y214388D01*
X329273Y214396D01*
X329292Y214407D01*
X329319Y214423D01*
X329353Y214442D01*
X329396Y214461D01*
X329445Y214484D01*
X329507Y214507D01*
X329572Y214530D01*
X329649Y214553D01*
X329733Y214573D01*
X329826Y214592D01*
X329929Y214607D01*
X330037Y214619D01*
X330160Y214626D01*
X330286Y214630D01*
X330290D01*
X330306D01*
X330329D01*
X330359D01*
X330398Y214626D01*
D02*
G37*
G36*
X298500Y203477D02*
X297329D01*
X297298Y203481D01*
X297267D01*
X297191Y203485D01*
X297110Y203492D01*
X297025Y203508D01*
X296945Y203523D01*
X296906Y203535D01*
X296872Y203546D01*
X296868D01*
X296864Y203550D01*
X296841Y203558D01*
X296810Y203577D01*
X296772Y203604D01*
X296726Y203635D01*
X296680Y203677D01*
X296634Y203727D01*
X296592Y203788D01*
X296588Y203796D01*
X296576Y203819D01*
X296557Y203854D01*
X296538Y203900D01*
X296519Y203957D01*
X296499Y204022D01*
X296488Y204092D01*
X296484Y204168D01*
Y204172D01*
Y204180D01*
Y204195D01*
X296488Y204214D01*
Y204238D01*
X296492Y204264D01*
X296507Y204326D01*
X296526Y204399D01*
X296557Y204472D01*
X296603Y204549D01*
X296630Y204587D01*
X296661Y204622D01*
X296668Y204629D01*
X296680Y204637D01*
X296691Y204652D01*
X296711Y204664D01*
X296734Y204683D01*
X296761Y204698D01*
X296791Y204717D01*
X296826Y204737D01*
X296868Y204756D01*
X296910Y204775D01*
X296960Y204794D01*
X297010Y204814D01*
X297068Y204829D01*
X297129Y204840D01*
X297194Y204852D01*
X297187Y204856D01*
X297171Y204863D01*
X297148Y204875D01*
X297122Y204890D01*
X297056Y204932D01*
X297022Y204956D01*
X296995Y204979D01*
X296987Y204986D01*
X296968Y205002D01*
X296941Y205032D01*
X296906Y205071D01*
X296864Y205121D01*
X296818Y205178D01*
X296768Y205244D01*
X296718Y205316D01*
X296281Y206000D01*
X296699D01*
X297033Y205478D01*
Y205474D01*
X297041Y205466D01*
X297048Y205455D01*
X297056Y205439D01*
X297083Y205401D01*
X297118Y205351D01*
X297156Y205293D01*
X297198Y205236D01*
X297237Y205182D01*
X297275Y205132D01*
X297279Y205128D01*
X297290Y205113D01*
X297310Y205090D01*
X297329Y205063D01*
X297386Y205009D01*
X297413Y204982D01*
X297444Y204963D01*
X297448Y204959D01*
X297456Y204956D01*
X297471Y204948D01*
X297490Y204936D01*
X297536Y204913D01*
X297594Y204894D01*
X297598D01*
X297605Y204890D01*
X297621D01*
X297640Y204886D01*
X297667Y204883D01*
X297697D01*
X297736Y204879D01*
X298166D01*
Y206000D01*
X298500D01*
Y203477D01*
D02*
G37*
G36*
X293758Y205996D02*
Y205985D01*
Y205969D01*
X293754Y205946D01*
Y205919D01*
X293750Y205885D01*
X293746Y205843D01*
X293742Y205800D01*
X293735Y205750D01*
X293727Y205693D01*
X293719Y205635D01*
X293708Y205574D01*
X293696Y205505D01*
X293681Y205436D01*
X293642Y205282D01*
Y205278D01*
X293639Y205263D01*
X293631Y205240D01*
X293623Y205209D01*
X293612Y205171D01*
X293596Y205128D01*
X293581Y205078D01*
X293562Y205021D01*
X293539Y204963D01*
X293516Y204898D01*
X293462Y204760D01*
X293397Y204614D01*
X293324Y204468D01*
X293320Y204464D01*
X293312Y204449D01*
X293301Y204430D01*
X293285Y204403D01*
X293266Y204368D01*
X293243Y204330D01*
X293216Y204287D01*
X293189Y204238D01*
X293120Y204134D01*
X293043Y204022D01*
X292963Y203911D01*
X292874Y203803D01*
X294111D01*
Y203508D01*
X292479D01*
Y203750D01*
X292483Y203754D01*
X292490Y203761D01*
X292502Y203777D01*
X292521Y203796D01*
X292540Y203823D01*
X292567Y203854D01*
X292598Y203892D01*
X292629Y203930D01*
X292663Y203976D01*
X292702Y204030D01*
X292744Y204084D01*
X292782Y204145D01*
X292825Y204211D01*
X292871Y204280D01*
X292913Y204357D01*
X292959Y204433D01*
X292963Y204437D01*
X292970Y204452D01*
X292982Y204475D01*
X292997Y204506D01*
X293017Y204545D01*
X293040Y204591D01*
X293066Y204644D01*
X293093Y204702D01*
X293120Y204764D01*
X293151Y204833D01*
X293182Y204906D01*
X293212Y204982D01*
X293270Y205140D01*
X293324Y205309D01*
Y205313D01*
X293328Y205324D01*
X293331Y205340D01*
X293339Y205363D01*
X293347Y205393D01*
X293354Y205428D01*
X293362Y205470D01*
X293374Y205512D01*
X293381Y205562D01*
X293393Y205616D01*
X293412Y205731D01*
X293427Y205862D01*
X293439Y206000D01*
X293758D01*
Y205996D01*
D02*
G37*
G36*
X296131D02*
Y205981D01*
Y205958D01*
X296127Y205931D01*
X296123Y205900D01*
X296119Y205866D01*
X296108Y205827D01*
X296096Y205789D01*
Y205785D01*
X296092Y205781D01*
X296085Y205758D01*
X296069Y205727D01*
X296046Y205681D01*
X296019Y205631D01*
X295981Y205574D01*
X295943Y205516D01*
X295893Y205455D01*
Y205451D01*
X295885Y205447D01*
X295866Y205424D01*
X295835Y205389D01*
X295789Y205343D01*
X295731Y205290D01*
X295662Y205224D01*
X295578Y205151D01*
X295486Y205071D01*
X295482Y205067D01*
X295466Y205055D01*
X295447Y205040D01*
X295420Y205013D01*
X295386Y204986D01*
X295347Y204952D01*
X295263Y204879D01*
X295171Y204790D01*
X295079Y204702D01*
X295033Y204660D01*
X294994Y204618D01*
X294959Y204575D01*
X294929Y204537D01*
Y204533D01*
X294921Y204529D01*
X294914Y204518D01*
X294906Y204502D01*
X294883Y204464D01*
X294856Y204414D01*
X294829Y204357D01*
X294806Y204295D01*
X294791Y204226D01*
X294783Y204161D01*
Y204157D01*
Y204153D01*
X294787Y204130D01*
X294791Y204095D01*
X294798Y204053D01*
X294817Y204003D01*
X294841Y203953D01*
X294871Y203900D01*
X294917Y203850D01*
X294925Y203846D01*
X294940Y203830D01*
X294971Y203811D01*
X295009Y203784D01*
X295059Y203761D01*
X295117Y203742D01*
X295186Y203727D01*
X295263Y203723D01*
X295286D01*
X295301Y203727D01*
X295340Y203731D01*
X295390Y203738D01*
X295447Y203758D01*
X295509Y203781D01*
X295566Y203815D01*
X295620Y203861D01*
X295624Y203869D01*
X295639Y203884D01*
X295662Y203915D01*
X295685Y203957D01*
X295712Y204011D01*
X295731Y204072D01*
X295747Y204145D01*
X295754Y204230D01*
X296073Y204195D01*
Y204191D01*
Y204180D01*
X296069Y204161D01*
X296065Y204138D01*
X296058Y204107D01*
X296054Y204072D01*
X296031Y203996D01*
X296000Y203907D01*
X295958Y203819D01*
X295900Y203731D01*
X295870Y203692D01*
X295831Y203654D01*
X295827Y203650D01*
X295820Y203646D01*
X295808Y203635D01*
X295793Y203623D01*
X295770Y203612D01*
X295743Y203592D01*
X295712Y203577D01*
X295678Y203558D01*
X295639Y203542D01*
X295597Y203523D01*
X295547Y203508D01*
X295497Y203496D01*
X295382Y203473D01*
X295321Y203469D01*
X295255Y203466D01*
X295221D01*
X295194Y203469D01*
X295163Y203473D01*
X295128Y203477D01*
X295090Y203481D01*
X295048Y203492D01*
X294956Y203516D01*
X294860Y203550D01*
X294810Y203573D01*
X294764Y203600D01*
X294722Y203635D01*
X294679Y203669D01*
X294675Y203673D01*
X294672Y203677D01*
X294660Y203688D01*
X294645Y203704D01*
X294629Y203727D01*
X294610Y203750D01*
X294572Y203807D01*
X294533Y203880D01*
X294499Y203965D01*
X294472Y204061D01*
X294468Y204115D01*
X294464Y204168D01*
Y204176D01*
Y204195D01*
X294468Y204226D01*
X294472Y204264D01*
X294480Y204310D01*
X294491Y204360D01*
X294506Y204414D01*
X294530Y204468D01*
X294533Y204475D01*
X294541Y204495D01*
X294556Y204522D01*
X294579Y204560D01*
X294606Y204606D01*
X294641Y204660D01*
X294687Y204714D01*
X294737Y204775D01*
X294744Y204783D01*
X294764Y204806D01*
X294798Y204840D01*
X294821Y204863D01*
X294848Y204890D01*
X294879Y204921D01*
X294917Y204956D01*
X294956Y204990D01*
X294998Y205032D01*
X295044Y205075D01*
X295098Y205121D01*
X295151Y205167D01*
X295213Y205221D01*
X295217Y205224D01*
X295224Y205232D01*
X295240Y205244D01*
X295259Y205259D01*
X295305Y205297D01*
X295363Y205347D01*
X295420Y205401D01*
X295482Y205455D01*
X295532Y205501D01*
X295551Y205520D01*
X295570Y205539D01*
X295574Y205543D01*
X295582Y205555D01*
X295597Y205570D01*
X295616Y205593D01*
X295658Y205643D01*
X295701Y205704D01*
X294460D01*
Y206000D01*
X296131D01*
Y205996D01*
D02*
G37*
G36*
X322598Y177355D02*
X323692D01*
Y177071D01*
X322540Y175439D01*
X322287D01*
Y177071D01*
X321945D01*
Y177355D01*
X322287D01*
Y177958D01*
X322598D01*
Y177355D01*
D02*
G37*
G36*
X325063Y177996D02*
X325094D01*
X325128Y177992D01*
X325167Y177989D01*
X325209Y177985D01*
X325301Y177969D01*
X325397Y177950D01*
X325497Y177919D01*
X325585Y177881D01*
X325589D01*
X325597Y177873D01*
X325605Y177869D01*
X325620Y177858D01*
X325662Y177831D01*
X325708Y177789D01*
X325762Y177739D01*
X325812Y177681D01*
X325862Y177608D01*
X325904Y177528D01*
Y177524D01*
X325908Y177516D01*
X325912Y177505D01*
X325919Y177486D01*
X325927Y177462D01*
X325935Y177432D01*
X325942Y177397D01*
X325950Y177359D01*
X325962Y177316D01*
X325969Y177270D01*
X325977Y177217D01*
X325985Y177163D01*
X325992Y177102D01*
X325996Y177036D01*
X326000Y176967D01*
Y176894D01*
Y175435D01*
X325666D01*
Y176894D01*
Y176898D01*
Y176909D01*
Y176925D01*
Y176948D01*
Y176975D01*
X325662Y177006D01*
X325658Y177078D01*
X325651Y177155D01*
X325643Y177236D01*
X325628Y177313D01*
X325620Y177347D01*
X325608Y177378D01*
X325605Y177386D01*
X325597Y177405D01*
X325582Y177432D01*
X325558Y177466D01*
X325532Y177505D01*
X325493Y177547D01*
X325451Y177585D01*
X325397Y177620D01*
X325390Y177624D01*
X325370Y177631D01*
X325340Y177647D01*
X325297Y177658D01*
X325244Y177674D01*
X325182Y177689D01*
X325113Y177697D01*
X325036Y177700D01*
X325002D01*
X324975Y177697D01*
X324944D01*
X324909Y177693D01*
X324833Y177681D01*
X324744Y177658D01*
X324660Y177631D01*
X324579Y177589D01*
X324541Y177566D01*
X324510Y177535D01*
Y177532D01*
X324502Y177528D01*
X324495Y177516D01*
X324487Y177501D01*
X324472Y177482D01*
X324460Y177459D01*
X324445Y177428D01*
X324429Y177393D01*
X324418Y177351D01*
X324403Y177305D01*
X324387Y177255D01*
X324376Y177194D01*
X324368Y177128D01*
X324360Y177059D01*
X324353Y176979D01*
Y176894D01*
Y175435D01*
X324019D01*
Y176894D01*
Y176898D01*
Y176909D01*
Y176929D01*
Y176955D01*
X324022Y176990D01*
Y177025D01*
X324026Y177067D01*
X324030Y177113D01*
X324042Y177209D01*
X324057Y177309D01*
X324076Y177409D01*
X324107Y177497D01*
Y177501D01*
X324111Y177508D01*
X324115Y177520D01*
X324122Y177535D01*
X324145Y177574D01*
X324176Y177628D01*
X324218Y177685D01*
X324272Y177747D01*
X324341Y177804D01*
X324418Y177862D01*
X324422D01*
X324429Y177869D01*
X324441Y177873D01*
X324460Y177885D01*
X324479Y177892D01*
X324506Y177904D01*
X324541Y177919D01*
X324575Y177931D01*
X324614Y177942D01*
X324660Y177958D01*
X324706Y177969D01*
X324760Y177977D01*
X324875Y177992D01*
X325006Y178000D01*
X325040D01*
X325063Y177996D01*
D02*
G37*
G36*
X468523Y315597D02*
X467759Y315098D01*
X467755D01*
X467751Y315090D01*
X467739Y315082D01*
X467724Y315075D01*
X467682Y315048D01*
X467628Y315013D01*
X467563Y314975D01*
X467490Y314932D01*
X467413Y314886D01*
X467332Y314840D01*
X467336D01*
X467340Y314837D01*
X467352Y314829D01*
X467367Y314821D01*
X467409Y314798D01*
X467463Y314763D01*
X467528Y314725D01*
X467605Y314675D01*
X467690Y314621D01*
X467778Y314564D01*
X468523Y314076D01*
Y313688D01*
X467067Y314694D01*
X466000D01*
Y315029D01*
X467067D01*
X468523Y316000D01*
Y315597D01*
D02*
G37*
G36*
X467901Y313270D02*
X467905Y313262D01*
X467912Y313247D01*
X467924Y313231D01*
X467935Y313208D01*
X467947Y313181D01*
X467981Y313120D01*
X468024Y313051D01*
X468074Y312974D01*
X468131Y312897D01*
X468193Y312824D01*
X468196Y312821D01*
X468200Y312817D01*
X468223Y312794D01*
X468258Y312759D01*
X468300Y312717D01*
X468354Y312671D01*
X468411Y312625D01*
X468473Y312582D01*
X468534Y312548D01*
Y312344D01*
X466000D01*
Y312655D01*
X467974D01*
X467970Y312659D01*
X467954Y312675D01*
X467935Y312702D01*
X467908Y312736D01*
X467874Y312778D01*
X467839Y312828D01*
X467797Y312886D01*
X467759Y312951D01*
Y312955D01*
X467755Y312959D01*
X467739Y312982D01*
X467720Y313016D01*
X467697Y313059D01*
X467670Y313108D01*
X467647Y313162D01*
X467620Y313220D01*
X467597Y313274D01*
X467901D01*
Y313270D01*
D02*
G37*
G36*
X476937Y418260D02*
X476964Y418256D01*
X476999Y418252D01*
X477071Y418241D01*
X477152Y418218D01*
X477237Y418183D01*
X477279Y418164D01*
X477317Y418137D01*
X477356Y418110D01*
X477390Y418076D01*
Y418072D01*
X477398Y418068D01*
X477406Y418056D01*
X477417Y418041D01*
X477432Y418018D01*
X477444Y417995D01*
X477463Y417964D01*
X477479Y417934D01*
X477494Y417895D01*
X477509Y417853D01*
X477525Y417807D01*
X477536Y417753D01*
X477548Y417699D01*
X477555Y417638D01*
X477559Y417577D01*
Y417507D01*
X477260Y417465D01*
Y417469D01*
Y417477D01*
Y417492D01*
X477256Y417511D01*
Y417534D01*
X477252Y417561D01*
X477240Y417623D01*
X477229Y417692D01*
X477210Y417757D01*
X477183Y417815D01*
X477167Y417841D01*
X477152Y417865D01*
X477148Y417868D01*
X477133Y417880D01*
X477114Y417899D01*
X477083Y417914D01*
X477044Y417934D01*
X476999Y417953D01*
X476945Y417964D01*
X476883Y417968D01*
X476860D01*
X476837Y417964D01*
X476810Y417961D01*
X476776Y417953D01*
X476737Y417945D01*
X476703Y417930D01*
X476668Y417911D01*
X476664Y417907D01*
X476653Y417899D01*
X476638Y417887D01*
X476618Y417868D01*
X476595Y417849D01*
X476576Y417822D01*
X476557Y417792D01*
X476542Y417757D01*
Y417753D01*
X476534Y417738D01*
X476530Y417715D01*
X476522Y417680D01*
X476515Y417634D01*
X476511Y417580D01*
X476503Y417515D01*
Y417438D01*
Y415699D01*
X476169D01*
Y417419D01*
Y417423D01*
Y417434D01*
Y417450D01*
Y417473D01*
X476173Y417500D01*
Y417530D01*
X476177Y417599D01*
X476188Y417680D01*
X476200Y417761D01*
X476219Y417841D01*
X476246Y417911D01*
X476250Y417918D01*
X476261Y417937D01*
X476280Y417968D01*
X476303Y418007D01*
X476338Y418053D01*
X476380Y418095D01*
X476434Y418137D01*
X476492Y418176D01*
X476499Y418179D01*
X476522Y418191D01*
X476557Y418202D01*
X476603Y418218D01*
X476660Y418237D01*
X476726Y418249D01*
X476803Y418260D01*
X476883Y418264D01*
X476914D01*
X476937Y418260D01*
D02*
G37*
G36*
X474894Y416248D02*
X474898Y416252D01*
X474913Y416267D01*
X474940Y416286D01*
X474975Y416313D01*
X475017Y416348D01*
X475067Y416382D01*
X475125Y416425D01*
X475190Y416463D01*
X475194D01*
X475198Y416467D01*
X475220Y416482D01*
X475255Y416501D01*
X475297Y416524D01*
X475347Y416551D01*
X475401Y416574D01*
X475459Y416601D01*
X475512Y416624D01*
Y416321D01*
X475508D01*
X475501Y416317D01*
X475486Y416309D01*
X475470Y416298D01*
X475447Y416286D01*
X475420Y416275D01*
X475359Y416240D01*
X475290Y416198D01*
X475213Y416148D01*
X475136Y416090D01*
X475063Y416029D01*
X475059Y416025D01*
X475055Y416021D01*
X475032Y415998D01*
X474998Y415964D01*
X474956Y415921D01*
X474909Y415868D01*
X474863Y415810D01*
X474821Y415749D01*
X474787Y415687D01*
X474583D01*
Y418222D01*
X474894D01*
Y416248D01*
D02*
G37*
G36*
X262448Y192701D02*
X262444D01*
X262437D01*
X262421D01*
X262402Y192697D01*
X262379D01*
X262352Y192693D01*
X262291Y192681D01*
X262222Y192670D01*
X262156Y192651D01*
X262099Y192624D01*
X262072Y192608D01*
X262049Y192593D01*
X262045Y192589D01*
X262034Y192574D01*
X262014Y192555D01*
X261999Y192524D01*
X261980Y192485D01*
X261961Y192439D01*
X261949Y192386D01*
X261945Y192324D01*
Y192301D01*
X261949Y192278D01*
X261953Y192251D01*
X261961Y192217D01*
X261968Y192178D01*
X261984Y192144D01*
X262003Y192109D01*
X262007Y192105D01*
X262014Y192094D01*
X262026Y192078D01*
X262045Y192059D01*
X262064Y192036D01*
X262091Y192017D01*
X262122Y191998D01*
X262156Y191982D01*
X262160D01*
X262176Y191975D01*
X262199Y191971D01*
X262233Y191963D01*
X262279Y191956D01*
X262333Y191952D01*
X262398Y191944D01*
X262475D01*
X264215D01*
Y191610D01*
X262494D01*
X262491D01*
X262479D01*
X262464D01*
X262441D01*
X262414Y191614D01*
X262383D01*
X262314Y191618D01*
X262233Y191629D01*
X262153Y191641D01*
X262072Y191660D01*
X262003Y191687D01*
X261995Y191691D01*
X261976Y191702D01*
X261945Y191721D01*
X261907Y191744D01*
X261861Y191779D01*
X261819Y191821D01*
X261776Y191875D01*
X261738Y191932D01*
X261734Y191940D01*
X261722Y191963D01*
X261711Y191998D01*
X261696Y192044D01*
X261676Y192102D01*
X261665Y192167D01*
X261653Y192244D01*
X261649Y192324D01*
Y192355D01*
X261653Y192378D01*
X261657Y192405D01*
X261661Y192439D01*
X261673Y192512D01*
X261696Y192593D01*
X261730Y192677D01*
X261749Y192720D01*
X261776Y192758D01*
X261803Y192797D01*
X261838Y192831D01*
X261842D01*
X261845Y192839D01*
X261857Y192846D01*
X261872Y192858D01*
X261895Y192873D01*
X261918Y192885D01*
X261949Y192904D01*
X261980Y192919D01*
X262018Y192935D01*
X262060Y192950D01*
X262106Y192965D01*
X262160Y192977D01*
X262214Y192989D01*
X262276Y192996D01*
X262337Y193000D01*
X262406D01*
X262448Y192701D01*
D02*
G37*
G36*
X263593Y190949D02*
X263596Y190942D01*
X263604Y190926D01*
X263616Y190911D01*
X263627Y190888D01*
X263639Y190861D01*
X263673Y190800D01*
X263716Y190731D01*
X263765Y190654D01*
X263823Y190577D01*
X263884Y190504D01*
X263888Y190500D01*
X263892Y190496D01*
X263915Y190473D01*
X263950Y190439D01*
X263992Y190396D01*
X264046Y190350D01*
X264103Y190304D01*
X264165Y190262D01*
X264226Y190228D01*
Y190024D01*
X261692D01*
Y190335D01*
X263666D01*
X263662Y190339D01*
X263646Y190354D01*
X263627Y190381D01*
X263600Y190416D01*
X263566Y190458D01*
X263531Y190508D01*
X263489Y190566D01*
X263451Y190631D01*
Y190635D01*
X263447Y190638D01*
X263431Y190662D01*
X263412Y190696D01*
X263389Y190738D01*
X263362Y190788D01*
X263339Y190842D01*
X263312Y190900D01*
X263289Y190953D01*
X263593D01*
Y190949D01*
D02*
G37*
G36*
X262402Y188918D02*
X262398D01*
X262391Y188914D01*
X262375D01*
X262360Y188907D01*
X262314Y188895D01*
X262256Y188876D01*
X262195Y188853D01*
X262130Y188822D01*
X262072Y188784D01*
X262022Y188742D01*
X262018Y188734D01*
X262003Y188718D01*
X261987Y188692D01*
X261964Y188653D01*
X261945Y188611D01*
X261926Y188557D01*
X261911Y188496D01*
X261907Y188430D01*
Y188407D01*
X261911Y188392D01*
X261914Y188354D01*
X261926Y188304D01*
X261945Y188242D01*
X261968Y188181D01*
X262007Y188119D01*
X262057Y188062D01*
X262064Y188054D01*
X262084Y188039D01*
X262114Y188016D01*
X262160Y187985D01*
X262214Y187958D01*
X262279Y187935D01*
X262352Y187920D01*
X262433Y187912D01*
X262437D01*
X262441D01*
X262452D01*
X262468Y187916D01*
X262506Y187920D01*
X262556Y187931D01*
X262610Y187947D01*
X262671Y187973D01*
X262729Y188008D01*
X262782Y188054D01*
X262790Y188062D01*
X262805Y188077D01*
X262825Y188108D01*
X262852Y188150D01*
X262878Y188200D01*
X262898Y188261D01*
X262913Y188327D01*
X262921Y188404D01*
Y188438D01*
X262917Y188465D01*
X262913Y188496D01*
X262909Y188534D01*
X262901Y188576D01*
X262890Y188622D01*
X263162Y188588D01*
Y188569D01*
X263159Y188553D01*
Y188503D01*
X263162Y188469D01*
X263170Y188419D01*
X263182Y188365D01*
X263201Y188308D01*
X263224Y188246D01*
X263259Y188185D01*
X263262Y188177D01*
X263278Y188158D01*
X263305Y188135D01*
X263339Y188104D01*
X263381Y188073D01*
X263435Y188050D01*
X263500Y188031D01*
X263577Y188023D01*
X263581D01*
X263585D01*
X263604D01*
X263635Y188031D01*
X263677Y188039D01*
X263719Y188050D01*
X263765Y188073D01*
X263815Y188100D01*
X263858Y188139D01*
X263861Y188142D01*
X263877Y188158D01*
X263896Y188185D01*
X263915Y188219D01*
X263938Y188261D01*
X263953Y188311D01*
X263969Y188369D01*
X263973Y188434D01*
Y188465D01*
X263965Y188500D01*
X263957Y188538D01*
X263946Y188588D01*
X263923Y188638D01*
X263896Y188688D01*
X263858Y188738D01*
X263854Y188742D01*
X263838Y188757D01*
X263811Y188776D01*
X263773Y188799D01*
X263727Y188826D01*
X263669Y188849D01*
X263600Y188872D01*
X263520Y188887D01*
X263573Y189198D01*
X263577D01*
X263589Y189195D01*
X263604Y189191D01*
X263623Y189187D01*
X263650Y189179D01*
X263681Y189172D01*
X263750Y189145D01*
X263827Y189114D01*
X263908Y189068D01*
X263984Y189014D01*
X264053Y188945D01*
X264057Y188941D01*
X264061Y188937D01*
X264069Y188926D01*
X264080Y188907D01*
X264092Y188887D01*
X264107Y188864D01*
X264142Y188807D01*
X264172Y188734D01*
X264199Y188646D01*
X264218Y188549D01*
X264226Y188496D01*
Y188407D01*
X264222Y188369D01*
X264215Y188319D01*
X264203Y188261D01*
X264188Y188196D01*
X264165Y188131D01*
X264134Y188066D01*
Y188062D01*
X264130Y188058D01*
X264119Y188035D01*
X264100Y188004D01*
X264073Y187966D01*
X264038Y187924D01*
X263996Y187878D01*
X263946Y187835D01*
X263892Y187797D01*
X263884Y187793D01*
X263865Y187782D01*
X263835Y187766D01*
X263796Y187751D01*
X263746Y187735D01*
X263692Y187720D01*
X263635Y187708D01*
X263569Y187705D01*
X263562D01*
X263543D01*
X263512Y187708D01*
X263474Y187716D01*
X263427Y187728D01*
X263378Y187743D01*
X263324Y187762D01*
X263274Y187793D01*
X263266Y187797D01*
X263251Y187808D01*
X263228Y187831D01*
X263197Y187858D01*
X263162Y187897D01*
X263128Y187939D01*
X263090Y187993D01*
X263059Y188054D01*
Y188050D01*
X263055Y188043D01*
Y188031D01*
X263047Y188016D01*
X263036Y187977D01*
X263013Y187927D01*
X262986Y187874D01*
X262948Y187816D01*
X262901Y187758D01*
X262844Y187708D01*
X262836Y187705D01*
X262813Y187689D01*
X262778Y187670D01*
X262732Y187643D01*
X262675Y187620D01*
X262606Y187601D01*
X262525Y187586D01*
X262437Y187582D01*
X262433D01*
X262421D01*
X262406D01*
X262383Y187586D01*
X262352Y187590D01*
X262321Y187593D01*
X262283Y187601D01*
X262245Y187612D01*
X262156Y187639D01*
X262106Y187659D01*
X262060Y187686D01*
X262014Y187712D01*
X261968Y187743D01*
X261922Y187782D01*
X261876Y187824D01*
X261872Y187828D01*
X261865Y187835D01*
X261857Y187847D01*
X261842Y187866D01*
X261822Y187889D01*
X261803Y187920D01*
X261784Y187954D01*
X261765Y187989D01*
X261742Y188031D01*
X261722Y188077D01*
X261703Y188127D01*
X261684Y188181D01*
X261669Y188238D01*
X261661Y188300D01*
X261653Y188365D01*
X261649Y188430D01*
Y188461D01*
X261653Y188484D01*
X261657Y188515D01*
X261661Y188546D01*
X261665Y188584D01*
X261673Y188622D01*
X261696Y188711D01*
X261734Y188803D01*
X261753Y188849D01*
X261780Y188891D01*
X261811Y188937D01*
X261845Y188980D01*
X261849Y188983D01*
X261853Y188987D01*
X261865Y188999D01*
X261880Y189014D01*
X261903Y189030D01*
X261926Y189049D01*
X261953Y189072D01*
X261984Y189091D01*
X262060Y189137D01*
X262149Y189175D01*
X262249Y189210D01*
X262302Y189222D01*
X262360Y189229D01*
X262402Y188918D01*
D02*
G37*
G36*
X366352Y406073D02*
X366375D01*
X366406Y406069D01*
X366475Y406057D01*
X366552Y406034D01*
X366633Y406004D01*
X366713Y405965D01*
X366752Y405938D01*
X366790Y405908D01*
X366794D01*
X366798Y405900D01*
X366821Y405877D01*
X366851Y405838D01*
X366890Y405789D01*
X366932Y405723D01*
X366967Y405647D01*
X367001Y405554D01*
X367020Y405451D01*
X366713Y405428D01*
Y405432D01*
Y405435D01*
X366705Y405458D01*
X366694Y405489D01*
X366683Y405527D01*
X366644Y405616D01*
X366621Y405654D01*
X366594Y405689D01*
X366590Y405696D01*
X366571Y405712D01*
X366544Y405731D01*
X366510Y405758D01*
X366464Y405781D01*
X366410Y405804D01*
X366348Y405819D01*
X366283Y405823D01*
X366256D01*
X366229Y405819D01*
X366195Y405812D01*
X366153Y405804D01*
X366107Y405789D01*
X366064Y405765D01*
X366018Y405739D01*
X366010Y405735D01*
X365995Y405720D01*
X365968Y405693D01*
X365938Y405658D01*
X365899Y405616D01*
X365861Y405562D01*
X365822Y405497D01*
X365788Y405424D01*
Y405420D01*
X365784Y405416D01*
X365780Y405401D01*
X365776Y405385D01*
X365769Y405366D01*
X365761Y405339D01*
X365753Y405309D01*
X365746Y405274D01*
X365738Y405236D01*
X365730Y405193D01*
X365722Y405143D01*
X365715Y405094D01*
X365711Y405036D01*
X365707Y404975D01*
X365703Y404909D01*
Y404844D01*
X365707Y404848D01*
X365722Y404867D01*
X365746Y404898D01*
X365780Y404936D01*
X365819Y404978D01*
X365865Y405021D01*
X365918Y405059D01*
X365976Y405094D01*
X365984Y405097D01*
X366003Y405105D01*
X366037Y405120D01*
X366080Y405136D01*
X366130Y405151D01*
X366187Y405166D01*
X366249Y405174D01*
X366314Y405178D01*
X366345D01*
X366368Y405174D01*
X366394Y405170D01*
X366425Y405166D01*
X366498Y405151D01*
X366579Y405120D01*
X366625Y405105D01*
X366667Y405082D01*
X366713Y405055D01*
X366759Y405024D01*
X366802Y404990D01*
X366844Y404948D01*
X366848Y404944D01*
X366851Y404936D01*
X366863Y404925D01*
X366878Y404905D01*
X366894Y404882D01*
X366913Y404855D01*
X366932Y404825D01*
X366955Y404790D01*
X366974Y404748D01*
X366994Y404706D01*
X367013Y404656D01*
X367028Y404606D01*
X367043Y404548D01*
X367055Y404491D01*
X367059Y404425D01*
X367063Y404360D01*
Y404356D01*
Y404349D01*
Y404337D01*
Y404322D01*
X367059Y404299D01*
Y404276D01*
X367051Y404214D01*
X367036Y404149D01*
X367020Y404072D01*
X366994Y403995D01*
X366959Y403919D01*
Y403915D01*
X366955Y403911D01*
X366948Y403899D01*
X366940Y403884D01*
X366917Y403849D01*
X366886Y403803D01*
X366844Y403753D01*
X366794Y403703D01*
X366740Y403653D01*
X366675Y403608D01*
X366667Y403604D01*
X366644Y403592D01*
X366606Y403573D01*
X366560Y403554D01*
X366498Y403535D01*
X366429Y403515D01*
X366352Y403504D01*
X366272Y403500D01*
X366256D01*
X366233Y403504D01*
X366206D01*
X366176Y403508D01*
X366137Y403515D01*
X366095Y403523D01*
X366049Y403535D01*
X365999Y403550D01*
X365945Y403569D01*
X365895Y403592D01*
X365842Y403619D01*
X365788Y403653D01*
X365734Y403692D01*
X365684Y403734D01*
X365638Y403784D01*
X365634Y403788D01*
X365627Y403799D01*
X365615Y403815D01*
X365600Y403838D01*
X365580Y403869D01*
X365561Y403907D01*
X365538Y403953D01*
X365519Y404007D01*
X365496Y404068D01*
X365473Y404137D01*
X365454Y404214D01*
X365435Y404299D01*
X365419Y404391D01*
X365408Y404494D01*
X365400Y404602D01*
X365396Y404721D01*
Y404725D01*
Y404729D01*
Y404740D01*
Y404752D01*
Y404790D01*
X365400Y404840D01*
X365404Y404902D01*
X365411Y404971D01*
X365419Y405048D01*
X365431Y405128D01*
X365442Y405216D01*
X365461Y405305D01*
X365484Y405393D01*
X365511Y405478D01*
X365542Y405566D01*
X365577Y405643D01*
X365619Y405720D01*
X365665Y405785D01*
X365669Y405789D01*
X365676Y405796D01*
X365688Y405812D01*
X365707Y405831D01*
X365734Y405854D01*
X365761Y405877D01*
X365795Y405904D01*
X365834Y405931D01*
X365876Y405958D01*
X365926Y405984D01*
X365976Y406007D01*
X366034Y406031D01*
X366095Y406050D01*
X366160Y406065D01*
X366229Y406073D01*
X366302Y406077D01*
X366329D01*
X366352Y406073D01*
D02*
G37*
G36*
X364981Y404606D02*
Y404602D01*
Y404591D01*
Y404571D01*
Y404544D01*
X364978Y404510D01*
Y404475D01*
X364974Y404433D01*
X364970Y404387D01*
X364958Y404291D01*
X364943Y404191D01*
X364924Y404091D01*
X364893Y404003D01*
Y403999D01*
X364889Y403992D01*
X364885Y403980D01*
X364878Y403965D01*
X364855Y403926D01*
X364824Y403872D01*
X364782Y403815D01*
X364728Y403753D01*
X364659Y403696D01*
X364582Y403638D01*
X364578D01*
X364570Y403630D01*
X364559Y403627D01*
X364540Y403615D01*
X364521Y403608D01*
X364494Y403596D01*
X364459Y403581D01*
X364425Y403569D01*
X364386Y403557D01*
X364340Y403542D01*
X364294Y403531D01*
X364240Y403523D01*
X364125Y403508D01*
X363995Y403500D01*
X363960D01*
X363937Y403504D01*
X363906D01*
X363872Y403508D01*
X363833Y403511D01*
X363791Y403515D01*
X363699Y403531D01*
X363603Y403550D01*
X363503Y403581D01*
X363415Y403619D01*
X363411D01*
X363403Y403627D01*
X363396Y403630D01*
X363380Y403642D01*
X363338Y403669D01*
X363292Y403711D01*
X363238Y403761D01*
X363188Y403819D01*
X363138Y403892D01*
X363096Y403972D01*
Y403976D01*
X363092Y403984D01*
X363088Y403995D01*
X363081Y404014D01*
X363073Y404038D01*
X363065Y404068D01*
X363057Y404103D01*
X363050Y404141D01*
X363038Y404183D01*
X363031Y404230D01*
X363023Y404283D01*
X363015Y404337D01*
X363008Y404398D01*
X363004Y404464D01*
X363000Y404533D01*
Y404606D01*
Y406065D01*
X363334D01*
Y404606D01*
Y404602D01*
Y404591D01*
Y404575D01*
Y404552D01*
Y404525D01*
X363338Y404494D01*
X363342Y404422D01*
X363349Y404345D01*
X363357Y404264D01*
X363372Y404187D01*
X363380Y404153D01*
X363392Y404122D01*
X363396Y404114D01*
X363403Y404095D01*
X363419Y404068D01*
X363442Y404034D01*
X363468Y403995D01*
X363507Y403953D01*
X363549Y403915D01*
X363603Y403880D01*
X363611Y403876D01*
X363630Y403869D01*
X363660Y403853D01*
X363703Y403842D01*
X363756Y403826D01*
X363818Y403811D01*
X363887Y403803D01*
X363964Y403799D01*
X363998D01*
X364025Y403803D01*
X364056D01*
X364090Y403807D01*
X364167Y403819D01*
X364256Y403842D01*
X364340Y403869D01*
X364421Y403911D01*
X364459Y403934D01*
X364490Y403965D01*
Y403968D01*
X364498Y403972D01*
X364505Y403984D01*
X364513Y403999D01*
X364528Y404018D01*
X364540Y404041D01*
X364555Y404072D01*
X364570Y404107D01*
X364582Y404149D01*
X364597Y404195D01*
X364613Y404245D01*
X364624Y404306D01*
X364632Y404372D01*
X364640Y404441D01*
X364647Y404521D01*
Y404606D01*
Y406065D01*
X364981D01*
Y404606D01*
D02*
G37*
G36*
X450437Y418260D02*
X450464Y418256D01*
X450498Y418252D01*
X450571Y418241D01*
X450652Y418218D01*
X450737Y418183D01*
X450779Y418164D01*
X450817Y418137D01*
X450856Y418110D01*
X450890Y418076D01*
Y418072D01*
X450898Y418068D01*
X450906Y418056D01*
X450917Y418041D01*
X450932Y418018D01*
X450944Y417995D01*
X450963Y417964D01*
X450979Y417934D01*
X450994Y417895D01*
X451009Y417853D01*
X451024Y417807D01*
X451036Y417753D01*
X451048Y417699D01*
X451055Y417638D01*
X451059Y417577D01*
Y417507D01*
X450760Y417465D01*
Y417469D01*
Y417477D01*
Y417492D01*
X450756Y417511D01*
Y417534D01*
X450752Y417561D01*
X450740Y417623D01*
X450729Y417692D01*
X450710Y417757D01*
X450683Y417815D01*
X450667Y417841D01*
X450652Y417865D01*
X450648Y417868D01*
X450633Y417880D01*
X450614Y417899D01*
X450583Y417914D01*
X450545Y417934D01*
X450498Y417953D01*
X450445Y417964D01*
X450383Y417968D01*
X450360D01*
X450337Y417964D01*
X450310Y417961D01*
X450276Y417953D01*
X450237Y417945D01*
X450203Y417930D01*
X450168Y417911D01*
X450164Y417907D01*
X450153Y417899D01*
X450138Y417887D01*
X450118Y417868D01*
X450095Y417849D01*
X450076Y417822D01*
X450057Y417792D01*
X450041Y417757D01*
Y417753D01*
X450034Y417738D01*
X450030Y417715D01*
X450022Y417680D01*
X450015Y417634D01*
X450011Y417580D01*
X450003Y417515D01*
Y417438D01*
Y415699D01*
X449669D01*
Y417419D01*
Y417423D01*
Y417434D01*
Y417450D01*
Y417473D01*
X449673Y417500D01*
Y417530D01*
X449677Y417599D01*
X449688Y417680D01*
X449700Y417761D01*
X449719Y417841D01*
X449746Y417911D01*
X449750Y417918D01*
X449761Y417937D01*
X449780Y417968D01*
X449803Y418007D01*
X449838Y418053D01*
X449880Y418095D01*
X449934Y418137D01*
X449992Y418176D01*
X449999Y418179D01*
X450022Y418191D01*
X450057Y418202D01*
X450103Y418218D01*
X450161Y418237D01*
X450226Y418249D01*
X450303Y418260D01*
X450383Y418264D01*
X450414D01*
X450437Y418260D01*
D02*
G37*
G36*
X449293Y418218D02*
Y418202D01*
Y418179D01*
X449289Y418153D01*
X449285Y418122D01*
X449281Y418087D01*
X449270Y418049D01*
X449258Y418010D01*
Y418007D01*
X449254Y418003D01*
X449247Y417980D01*
X449231Y417949D01*
X449208Y417903D01*
X449181Y417853D01*
X449143Y417795D01*
X449104Y417738D01*
X449055Y417676D01*
Y417672D01*
X449047Y417669D01*
X449028Y417646D01*
X448997Y417611D01*
X448951Y417565D01*
X448893Y417511D01*
X448824Y417446D01*
X448740Y417373D01*
X448648Y417292D01*
X448644Y417288D01*
X448628Y417277D01*
X448609Y417262D01*
X448582Y417235D01*
X448548Y417208D01*
X448509Y417173D01*
X448425Y417100D01*
X448333Y417012D01*
X448241Y416924D01*
X448195Y416881D01*
X448156Y416839D01*
X448122Y416797D01*
X448091Y416759D01*
Y416755D01*
X448083Y416751D01*
X448075Y416739D01*
X448068Y416724D01*
X448045Y416686D01*
X448018Y416636D01*
X447991Y416578D01*
X447968Y416517D01*
X447953Y416447D01*
X447945Y416382D01*
Y416378D01*
Y416375D01*
X447949Y416352D01*
X447953Y416317D01*
X447960Y416275D01*
X447979Y416225D01*
X448002Y416175D01*
X448033Y416121D01*
X448079Y416071D01*
X448087Y416067D01*
X448102Y416052D01*
X448133Y416033D01*
X448171Y416006D01*
X448221Y415983D01*
X448279Y415964D01*
X448348Y415948D01*
X448425Y415944D01*
X448448D01*
X448463Y415948D01*
X448502Y415952D01*
X448552Y415960D01*
X448609Y415979D01*
X448671Y416002D01*
X448728Y416037D01*
X448782Y416083D01*
X448786Y416090D01*
X448801Y416106D01*
X448824Y416137D01*
X448847Y416179D01*
X448874Y416232D01*
X448893Y416294D01*
X448909Y416367D01*
X448916Y416451D01*
X449235Y416417D01*
Y416413D01*
Y416401D01*
X449231Y416382D01*
X449227Y416359D01*
X449220Y416328D01*
X449216Y416294D01*
X449193Y416217D01*
X449162Y416129D01*
X449120Y416041D01*
X449062Y415952D01*
X449032Y415914D01*
X448993Y415875D01*
X448989Y415871D01*
X448982Y415868D01*
X448970Y415856D01*
X448955Y415845D01*
X448932Y415833D01*
X448905Y415814D01*
X448874Y415799D01*
X448840Y415779D01*
X448801Y415764D01*
X448759Y415745D01*
X448709Y415729D01*
X448659Y415718D01*
X448544Y415695D01*
X448483Y415691D01*
X448417Y415687D01*
X448383D01*
X448356Y415691D01*
X448325Y415695D01*
X448290Y415699D01*
X448252Y415703D01*
X448210Y415714D01*
X448118Y415737D01*
X448022Y415772D01*
X447972Y415795D01*
X447926Y415822D01*
X447883Y415856D01*
X447841Y415891D01*
X447837Y415895D01*
X447833Y415898D01*
X447822Y415910D01*
X447807Y415925D01*
X447791Y415948D01*
X447772Y415971D01*
X447734Y416029D01*
X447695Y416102D01*
X447661Y416186D01*
X447634Y416282D01*
X447630Y416336D01*
X447626Y416390D01*
Y416398D01*
Y416417D01*
X447630Y416447D01*
X447634Y416486D01*
X447642Y416532D01*
X447653Y416582D01*
X447668Y416636D01*
X447691Y416689D01*
X447695Y416697D01*
X447703Y416716D01*
X447718Y416743D01*
X447741Y416782D01*
X447768Y416828D01*
X447803Y416881D01*
X447849Y416935D01*
X447899Y416997D01*
X447906Y417004D01*
X447926Y417027D01*
X447960Y417062D01*
X447983Y417085D01*
X448010Y417112D01*
X448041Y417143D01*
X448079Y417177D01*
X448118Y417212D01*
X448160Y417254D01*
X448206Y417296D01*
X448260Y417342D01*
X448314Y417388D01*
X448375Y417442D01*
X448379Y417446D01*
X448386Y417454D01*
X448402Y417465D01*
X448421Y417481D01*
X448467Y417519D01*
X448525Y417569D01*
X448582Y417623D01*
X448644Y417676D01*
X448694Y417722D01*
X448713Y417742D01*
X448732Y417761D01*
X448736Y417765D01*
X448744Y417776D01*
X448759Y417792D01*
X448778Y417815D01*
X448820Y417865D01*
X448863Y417926D01*
X447622D01*
Y418222D01*
X449293D01*
Y418218D01*
D02*
G37*
G36*
X430442Y342456D02*
X430465D01*
X430527Y342448D01*
X430592Y342433D01*
X430669Y342418D01*
X430746Y342391D01*
X430823Y342356D01*
X430826D01*
X430830Y342352D01*
X430842Y342345D01*
X430857Y342337D01*
X430892Y342314D01*
X430938Y342283D01*
X430988Y342241D01*
X431038Y342191D01*
X431087Y342137D01*
X431134Y342072D01*
X431137Y342064D01*
X431149Y342041D01*
X431168Y342003D01*
X431187Y341957D01*
X431207Y341895D01*
X431226Y341826D01*
X431237Y341749D01*
X431241Y341669D01*
Y341653D01*
X431237Y341630D01*
Y341603D01*
X431233Y341573D01*
X431226Y341534D01*
X431218Y341492D01*
X431207Y341446D01*
X431191Y341396D01*
X431172Y341342D01*
X431149Y341293D01*
X431122Y341239D01*
X431087Y341185D01*
X431049Y341131D01*
X431007Y341081D01*
X430957Y341035D01*
X430953Y341031D01*
X430942Y341024D01*
X430926Y341012D01*
X430903Y340997D01*
X430872Y340978D01*
X430834Y340958D01*
X430788Y340935D01*
X430734Y340916D01*
X430673Y340893D01*
X430604Y340870D01*
X430527Y340851D01*
X430442Y340832D01*
X430350Y340816D01*
X430247Y340805D01*
X430139Y340797D01*
X430020Y340793D01*
X430016D01*
X430012D01*
X430001D01*
X429989D01*
X429951D01*
X429901Y340797D01*
X429840Y340801D01*
X429770Y340809D01*
X429694Y340816D01*
X429613Y340828D01*
X429525Y340839D01*
X429436Y340859D01*
X429348Y340882D01*
X429263Y340909D01*
X429175Y340939D01*
X429098Y340974D01*
X429022Y341016D01*
X428956Y341062D01*
X428953Y341066D01*
X428945Y341074D01*
X428929Y341085D01*
X428910Y341104D01*
X428887Y341131D01*
X428864Y341158D01*
X428837Y341193D01*
X428810Y341231D01*
X428784Y341273D01*
X428757Y341323D01*
X428734Y341373D01*
X428711Y341431D01*
X428691Y341492D01*
X428676Y341557D01*
X428668Y341627D01*
X428664Y341700D01*
Y341726D01*
X428668Y341749D01*
Y341773D01*
X428672Y341803D01*
X428684Y341872D01*
X428707Y341949D01*
X428737Y342030D01*
X428776Y342110D01*
X428803Y342149D01*
X428833Y342187D01*
Y342191D01*
X428841Y342195D01*
X428864Y342218D01*
X428903Y342249D01*
X428953Y342287D01*
X429018Y342329D01*
X429095Y342364D01*
X429187Y342398D01*
X429290Y342418D01*
X429313Y342110D01*
X429310D01*
X429306D01*
X429283Y342103D01*
X429252Y342091D01*
X429214Y342080D01*
X429125Y342041D01*
X429087Y342018D01*
X429052Y341991D01*
X429045Y341987D01*
X429029Y341968D01*
X429010Y341941D01*
X428983Y341907D01*
X428960Y341861D01*
X428937Y341807D01*
X428922Y341746D01*
X428918Y341680D01*
Y341653D01*
X428922Y341627D01*
X428929Y341592D01*
X428937Y341550D01*
X428953Y341504D01*
X428975Y341461D01*
X429002Y341415D01*
X429006Y341408D01*
X429022Y341392D01*
X429048Y341365D01*
X429083Y341335D01*
X429125Y341296D01*
X429179Y341258D01*
X429244Y341219D01*
X429317Y341185D01*
X429321D01*
X429325Y341181D01*
X429340Y341177D01*
X429356Y341173D01*
X429375Y341166D01*
X429402Y341158D01*
X429432Y341150D01*
X429467Y341143D01*
X429505Y341135D01*
X429548Y341127D01*
X429598Y341120D01*
X429647Y341112D01*
X429705Y341108D01*
X429767Y341104D01*
X429832Y341101D01*
X429897D01*
X429893Y341104D01*
X429874Y341120D01*
X429843Y341143D01*
X429805Y341177D01*
X429763Y341216D01*
X429720Y341262D01*
X429682Y341316D01*
X429647Y341373D01*
X429644Y341381D01*
X429636Y341400D01*
X429621Y341435D01*
X429605Y341477D01*
X429590Y341527D01*
X429575Y341584D01*
X429567Y341646D01*
X429563Y341711D01*
Y341742D01*
X429567Y341765D01*
X429571Y341792D01*
X429575Y341822D01*
X429590Y341895D01*
X429621Y341976D01*
X429636Y342022D01*
X429659Y342064D01*
X429686Y342110D01*
X429717Y342157D01*
X429751Y342199D01*
X429793Y342241D01*
X429797Y342245D01*
X429805Y342249D01*
X429816Y342260D01*
X429836Y342276D01*
X429859Y342291D01*
X429886Y342310D01*
X429916Y342329D01*
X429951Y342352D01*
X429993Y342372D01*
X430035Y342391D01*
X430085Y342410D01*
X430135Y342425D01*
X430193Y342441D01*
X430250Y342452D01*
X430316Y342456D01*
X430381Y342460D01*
X430385D01*
X430393D01*
X430404D01*
X430419D01*
X430442Y342456D01*
D02*
G37*
G36*
X430477Y340386D02*
X430508D01*
X430577Y340382D01*
X430657Y340371D01*
X430738Y340359D01*
X430819Y340340D01*
X430888Y340313D01*
X430896Y340309D01*
X430915Y340298D01*
X430945Y340279D01*
X430984Y340256D01*
X431030Y340221D01*
X431072Y340179D01*
X431114Y340125D01*
X431153Y340068D01*
X431157Y340060D01*
X431168Y340037D01*
X431180Y340002D01*
X431195Y339956D01*
X431214Y339899D01*
X431226Y339833D01*
X431237Y339756D01*
X431241Y339676D01*
Y339645D01*
X431237Y339622D01*
X431233Y339595D01*
X431230Y339561D01*
X431218Y339488D01*
X431195Y339407D01*
X431160Y339323D01*
X431141Y339280D01*
X431114Y339242D01*
X431087Y339204D01*
X431053Y339169D01*
X431049D01*
X431045Y339161D01*
X431034Y339154D01*
X431018Y339142D01*
X430995Y339127D01*
X430972Y339115D01*
X430942Y339096D01*
X430911Y339081D01*
X430872Y339065D01*
X430830Y339050D01*
X430784Y339035D01*
X430730Y339023D01*
X430677Y339012D01*
X430615Y339004D01*
X430554Y339000D01*
X430485D01*
X430442Y339300D01*
X430446D01*
X430454D01*
X430469D01*
X430488Y339303D01*
X430512D01*
X430538Y339307D01*
X430600Y339319D01*
X430669Y339330D01*
X430734Y339349D01*
X430792Y339376D01*
X430819Y339392D01*
X430842Y339407D01*
X430846Y339411D01*
X430857Y339426D01*
X430876Y339445D01*
X430892Y339476D01*
X430911Y339515D01*
X430930Y339561D01*
X430942Y339614D01*
X430945Y339676D01*
Y339699D01*
X430942Y339722D01*
X430938Y339749D01*
X430930Y339783D01*
X430922Y339822D01*
X430907Y339856D01*
X430888Y339891D01*
X430884Y339895D01*
X430876Y339906D01*
X430865Y339922D01*
X430846Y339941D01*
X430826Y339964D01*
X430799Y339983D01*
X430769Y340002D01*
X430734Y340018D01*
X430730D01*
X430715Y340025D01*
X430692Y340029D01*
X430657Y340037D01*
X430611Y340044D01*
X430558Y340048D01*
X430492Y340056D01*
X430415D01*
X428676D01*
Y340390D01*
X430396D01*
X430400D01*
X430412D01*
X430427D01*
X430450D01*
X430477Y340386D01*
D02*
G37*
%LPC*%
G36*
X294997Y291894D02*
X294993D01*
X294978D01*
X294958D01*
X294932D01*
X294897Y291890D01*
X294859Y291886D01*
X294816Y291882D01*
X294774Y291878D01*
X294674Y291863D01*
X294574Y291840D01*
X294479Y291805D01*
X294432Y291786D01*
X294390Y291763D01*
X294386D01*
X294383Y291755D01*
X294371Y291751D01*
X294356Y291740D01*
X294317Y291713D01*
X294275Y291675D01*
X294225Y291629D01*
X294179Y291575D01*
X294137Y291513D01*
X294102Y291448D01*
X294098Y291440D01*
X294094Y291421D01*
X294087Y291390D01*
X294075Y291344D01*
X294064Y291283D01*
X294056Y291210D01*
X294052Y291122D01*
X294048Y291018D01*
Y290492D01*
X295980D01*
Y291068D01*
X295976Y291110D01*
X295972Y291168D01*
X295968Y291229D01*
X295961Y291295D01*
X295949Y291356D01*
X295934Y291413D01*
X295930Y291421D01*
X295926Y291437D01*
X295915Y291463D01*
X295899Y291494D01*
X295880Y291532D01*
X295861Y291571D01*
X295834Y291605D01*
X295803Y291640D01*
X295799Y291644D01*
X295780Y291659D01*
X295753Y291682D01*
X295719Y291709D01*
X295673Y291736D01*
X295619Y291767D01*
X295554Y291797D01*
X295485Y291824D01*
X295481D01*
X295477Y291828D01*
X295465Y291832D01*
X295450Y291836D01*
X295431Y291840D01*
X295408Y291847D01*
X295350Y291859D01*
X295277Y291870D01*
X295193Y291882D01*
X295101Y291890D01*
X294997Y291894D01*
D02*
G37*
G36*
X290666Y416548D02*
X289913D01*
X289871Y416545D01*
X289821Y416541D01*
X289763Y416537D01*
X289702Y416529D01*
X289645Y416518D01*
X289595Y416502D01*
X289587Y416499D01*
X289571Y416495D01*
X289548Y416483D01*
X289522Y416468D01*
X289491Y416445D01*
X289456Y416418D01*
X289426Y416387D01*
X289399Y416353D01*
X289395Y416349D01*
X289387Y416333D01*
X289376Y416314D01*
X289364Y416284D01*
X289353Y416253D01*
X289341Y416214D01*
X289334Y416172D01*
X289330Y416126D01*
Y416122D01*
Y416118D01*
Y416095D01*
X289337Y416065D01*
X289345Y416022D01*
X289360Y415976D01*
X289383Y415926D01*
X289418Y415876D01*
X289460Y415830D01*
X289468Y415827D01*
X289483Y415811D01*
X289518Y415792D01*
X289560Y415773D01*
X289618Y415750D01*
X289687Y415734D01*
X289771Y415719D01*
X289871Y415715D01*
X290666D01*
Y416548D01*
D02*
G37*
G36*
X285808Y417747D02*
X285789D01*
X285774Y417743D01*
X285735Y417735D01*
X285685Y417720D01*
X285628Y417697D01*
X285570Y417662D01*
X285540Y417639D01*
X285509Y417608D01*
X285478Y417578D01*
X285451Y417543D01*
Y417539D01*
X285444Y417531D01*
X285436Y417520D01*
X285428Y417501D01*
X285417Y417478D01*
X285405Y417443D01*
X285394Y417405D01*
X285378Y417363D01*
X285363Y417309D01*
X285351Y417251D01*
X285340Y417182D01*
X285328Y417105D01*
X285317Y417021D01*
X285313Y416929D01*
X285305Y416825D01*
Y416714D01*
Y416706D01*
Y416687D01*
Y416656D01*
X285309Y416614D01*
Y416564D01*
X285313Y416506D01*
X285317Y416445D01*
X285325Y416376D01*
X285340Y416237D01*
X285367Y416103D01*
X285382Y416038D01*
X285401Y415980D01*
X285424Y415930D01*
X285451Y415888D01*
Y415884D01*
X285459Y415880D01*
X285478Y415857D01*
X285509Y415823D01*
X285551Y415784D01*
X285605Y415746D01*
X285666Y415711D01*
X285735Y415688D01*
X285774Y415685D01*
X285812Y415681D01*
X285831D01*
X285847Y415685D01*
X285885Y415688D01*
X285935Y415704D01*
X285989Y415727D01*
X286046Y415758D01*
X286104Y415803D01*
X286131Y415834D01*
X286154Y415865D01*
Y415869D01*
X286162Y415876D01*
X286169Y415892D01*
X286177Y415911D01*
X286189Y415938D01*
X286204Y415969D01*
X286219Y416011D01*
X286231Y416057D01*
X286246Y416111D01*
X286262Y416172D01*
X286273Y416241D01*
X286288Y416322D01*
X286296Y416406D01*
X286304Y416499D01*
X286311Y416602D01*
Y416714D01*
Y416721D01*
Y416741D01*
Y416771D01*
X286308Y416814D01*
Y416863D01*
X286304Y416921D01*
X286300Y416986D01*
X286292Y417052D01*
X286277Y417190D01*
X286250Y417328D01*
X286235Y417389D01*
X286215Y417447D01*
X286192Y417501D01*
X286169Y417543D01*
Y417547D01*
X286162Y417551D01*
X286142Y417574D01*
X286112Y417608D01*
X286069Y417643D01*
X286016Y417681D01*
X285954Y417716D01*
X285885Y417739D01*
X285847Y417743D01*
X285808Y417747D01*
D02*
G37*
G36*
X290666Y408091D02*
X289913D01*
X289871Y408087D01*
X289821Y408083D01*
X289763Y408079D01*
X289702Y408072D01*
X289645Y408060D01*
X289595Y408045D01*
X289587Y408041D01*
X289571Y408037D01*
X289548Y408026D01*
X289522Y408010D01*
X289491Y407987D01*
X289456Y407960D01*
X289426Y407930D01*
X289399Y407895D01*
X289395Y407891D01*
X289387Y407876D01*
X289376Y407857D01*
X289364Y407826D01*
X289353Y407795D01*
X289341Y407757D01*
X289334Y407714D01*
X289330Y407668D01*
Y407664D01*
Y407661D01*
Y407638D01*
X289337Y407607D01*
X289345Y407565D01*
X289360Y407519D01*
X289383Y407469D01*
X289418Y407419D01*
X289460Y407373D01*
X289468Y407369D01*
X289483Y407353D01*
X289518Y407334D01*
X289560Y407315D01*
X289618Y407292D01*
X289687Y407277D01*
X289771Y407261D01*
X289871Y407258D01*
X290666D01*
Y408091D01*
D02*
G37*
G36*
X263362Y373373D02*
X263358D01*
X263351D01*
X263339D01*
X263324Y373369D01*
X263278Y373365D01*
X263224Y373354D01*
X263159Y373338D01*
X263093Y373311D01*
X263032Y373277D01*
X262970Y373231D01*
X262963Y373223D01*
X262948Y373204D01*
X262924Y373173D01*
X262898Y373131D01*
X262867Y373077D01*
X262844Y373016D01*
X262828Y372946D01*
X262821Y372870D01*
Y372850D01*
X262825Y372835D01*
X262828Y372797D01*
X262840Y372747D01*
X262859Y372693D01*
X262882Y372632D01*
X262921Y372574D01*
X262970Y372520D01*
X262978Y372513D01*
X262997Y372497D01*
X263032Y372474D01*
X263078Y372447D01*
X263140Y372424D01*
X263209Y372401D01*
X263293Y372386D01*
X263385Y372378D01*
X263389D01*
X263397D01*
X263412D01*
X263431Y372382D01*
X263454D01*
X263477Y372386D01*
X263539Y372397D01*
X263608Y372413D01*
X263677Y372440D01*
X263746Y372474D01*
X263811Y372520D01*
X263819Y372528D01*
X263835Y372547D01*
X263861Y372574D01*
X263892Y372616D01*
X263919Y372666D01*
X263946Y372724D01*
X263961Y372789D01*
X263969Y372862D01*
Y372881D01*
X263965Y372897D01*
X263961Y372935D01*
X263950Y372985D01*
X263927Y373042D01*
X263896Y373100D01*
X263858Y373162D01*
X263831Y373192D01*
X263800Y373223D01*
X263792Y373231D01*
X263769Y373246D01*
X263731Y373269D01*
X263681Y373296D01*
X263619Y373327D01*
X263543Y373350D01*
X263458Y373365D01*
X263362Y373373D01*
D02*
G37*
G36*
X339285Y218666D02*
X338452D01*
Y217913D01*
X338455Y217871D01*
X338459Y217821D01*
X338463Y217763D01*
X338471Y217702D01*
X338482Y217645D01*
X338498Y217595D01*
X338501Y217587D01*
X338505Y217571D01*
X338517Y217548D01*
X338532Y217522D01*
X338555Y217491D01*
X338582Y217456D01*
X338613Y217426D01*
X338647Y217399D01*
X338651Y217395D01*
X338667Y217387D01*
X338686Y217376D01*
X338716Y217364D01*
X338747Y217353D01*
X338786Y217341D01*
X338828Y217334D01*
X338874Y217330D01*
X338878D01*
X338882D01*
X338905D01*
X338935Y217337D01*
X338978Y217345D01*
X339024Y217360D01*
X339074Y217383D01*
X339124Y217418D01*
X339170Y217460D01*
X339173Y217468D01*
X339189Y217483D01*
X339208Y217518D01*
X339227Y217560D01*
X339250Y217618D01*
X339266Y217687D01*
X339281Y217771D01*
X339285Y217871D01*
Y218666D01*
D02*
G37*
G36*
X338713Y214311D02*
X338709D01*
X338701D01*
X338690D01*
X338674Y214307D01*
X338628Y214304D01*
X338574Y214292D01*
X338509Y214277D01*
X338444Y214250D01*
X338382Y214215D01*
X338321Y214169D01*
X338313Y214162D01*
X338298Y214142D01*
X338275Y214112D01*
X338248Y214070D01*
X338217Y214016D01*
X338194Y213954D01*
X338179Y213885D01*
X338171Y213808D01*
Y213789D01*
X338175Y213774D01*
X338179Y213735D01*
X338190Y213685D01*
X338210Y213632D01*
X338233Y213570D01*
X338271Y213513D01*
X338321Y213459D01*
X338329Y213451D01*
X338348Y213436D01*
X338382Y213413D01*
X338428Y213386D01*
X338490Y213363D01*
X338559Y213340D01*
X338644Y213324D01*
X338736Y213317D01*
X338739D01*
X338747D01*
X338762D01*
X338782Y213321D01*
X338805D01*
X338828Y213324D01*
X338889Y213336D01*
X338958Y213351D01*
X339028Y213378D01*
X339097Y213413D01*
X339162Y213459D01*
X339170Y213467D01*
X339185Y213486D01*
X339212Y213513D01*
X339243Y213555D01*
X339269Y213605D01*
X339296Y213662D01*
X339312Y213728D01*
X339319Y213801D01*
Y213820D01*
X339316Y213835D01*
X339312Y213874D01*
X339300Y213924D01*
X339277Y213981D01*
X339246Y214039D01*
X339208Y214100D01*
X339181Y214131D01*
X339150Y214162D01*
X339143Y214169D01*
X339120Y214185D01*
X339081Y214208D01*
X339031Y214235D01*
X338970Y214265D01*
X338893Y214288D01*
X338809Y214304D01*
X338713Y214311D01*
D02*
G37*
G36*
X331285Y218666D02*
X330451D01*
Y217913D01*
X330455Y217871D01*
X330459Y217821D01*
X330463Y217763D01*
X330471Y217702D01*
X330482Y217645D01*
X330498Y217595D01*
X330501Y217587D01*
X330505Y217571D01*
X330517Y217548D01*
X330532Y217522D01*
X330555Y217491D01*
X330582Y217456D01*
X330613Y217426D01*
X330647Y217399D01*
X330651Y217395D01*
X330666Y217387D01*
X330686Y217376D01*
X330716Y217364D01*
X330747Y217353D01*
X330786Y217341D01*
X330828Y217334D01*
X330874Y217330D01*
X330878D01*
X330882D01*
X330905D01*
X330935Y217337D01*
X330978Y217345D01*
X331024Y217360D01*
X331074Y217383D01*
X331123Y217418D01*
X331170Y217460D01*
X331173Y217468D01*
X331189Y217483D01*
X331208Y217518D01*
X331227Y217560D01*
X331250Y217618D01*
X331266Y217687D01*
X331281Y217771D01*
X331285Y217871D01*
Y218666D01*
D02*
G37*
G36*
X330398Y214311D02*
X330286D01*
X330279D01*
X330259D01*
X330229D01*
X330187Y214307D01*
X330137D01*
X330079Y214304D01*
X330014Y214300D01*
X329948Y214292D01*
X329810Y214277D01*
X329672Y214250D01*
X329610Y214235D01*
X329553Y214215D01*
X329499Y214192D01*
X329457Y214169D01*
X329453D01*
X329449Y214162D01*
X329426Y214142D01*
X329392Y214112D01*
X329357Y214070D01*
X329319Y214016D01*
X329284Y213954D01*
X329261Y213885D01*
X329257Y213847D01*
X329253Y213808D01*
Y213789D01*
X329257Y213774D01*
X329265Y213735D01*
X329280Y213685D01*
X329303Y213628D01*
X329338Y213570D01*
X329361Y213540D01*
X329392Y213509D01*
X329422Y213478D01*
X329457Y213451D01*
X329461D01*
X329468Y213444D01*
X329480Y213436D01*
X329499Y213428D01*
X329522Y213417D01*
X329557Y213405D01*
X329595Y213394D01*
X329637Y213378D01*
X329691Y213363D01*
X329749Y213351D01*
X329818Y213340D01*
X329895Y213328D01*
X329979Y213317D01*
X330071Y213313D01*
X330175Y213305D01*
X330286D01*
X330294D01*
X330313D01*
X330344D01*
X330386Y213309D01*
X330436D01*
X330494Y213313D01*
X330555Y213317D01*
X330624Y213324D01*
X330763Y213340D01*
X330897Y213367D01*
X330962Y213382D01*
X331020Y213401D01*
X331070Y213424D01*
X331112Y213451D01*
X331116D01*
X331120Y213459D01*
X331143Y213478D01*
X331177Y213509D01*
X331216Y213551D01*
X331254Y213605D01*
X331289Y213666D01*
X331312Y213735D01*
X331315Y213774D01*
X331319Y213812D01*
Y213831D01*
X331315Y213847D01*
X331312Y213885D01*
X331296Y213935D01*
X331273Y213989D01*
X331242Y214046D01*
X331196Y214104D01*
X331166Y214131D01*
X331135Y214154D01*
X331131D01*
X331123Y214162D01*
X331108Y214169D01*
X331089Y214177D01*
X331062Y214189D01*
X331031Y214204D01*
X330989Y214219D01*
X330943Y214231D01*
X330889Y214246D01*
X330828Y214262D01*
X330759Y214273D01*
X330678Y214288D01*
X330594Y214296D01*
X330501Y214304D01*
X330398Y214311D01*
D02*
G37*
G36*
X298166Y204591D02*
X297413D01*
X297371Y204587D01*
X297321Y204583D01*
X297264Y204579D01*
X297202Y204572D01*
X297145Y204560D01*
X297095Y204545D01*
X297087Y204541D01*
X297072Y204537D01*
X297048Y204525D01*
X297022Y204510D01*
X296991Y204487D01*
X296956Y204460D01*
X296926Y204430D01*
X296899Y204395D01*
X296895Y204391D01*
X296887Y204376D01*
X296876Y204357D01*
X296864Y204326D01*
X296853Y204295D01*
X296841Y204257D01*
X296833Y204214D01*
X296830Y204168D01*
Y204165D01*
Y204161D01*
Y204138D01*
X296837Y204107D01*
X296845Y204065D01*
X296860Y204019D01*
X296883Y203969D01*
X296918Y203919D01*
X296960Y203873D01*
X296968Y203869D01*
X296983Y203854D01*
X297018Y203834D01*
X297060Y203815D01*
X297118Y203792D01*
X297187Y203777D01*
X297271Y203761D01*
X297371Y203758D01*
X298166D01*
Y204591D01*
D02*
G37*
G36*
X323389Y177071D02*
X322598D01*
Y175942D01*
X323389Y177071D01*
D02*
G37*
G36*
X366252Y404905D02*
X366233D01*
X366218Y404902D01*
X366179Y404898D01*
X366130Y404886D01*
X366076Y404867D01*
X366014Y404840D01*
X365957Y404802D01*
X365899Y404752D01*
X365892Y404744D01*
X365876Y404725D01*
X365853Y404690D01*
X365826Y404648D01*
X365799Y404591D01*
X365776Y404521D01*
X365761Y404445D01*
X365753Y404356D01*
Y404349D01*
Y404329D01*
X365757Y404299D01*
X365761Y404260D01*
X365769Y404210D01*
X365780Y404160D01*
X365795Y404107D01*
X365819Y404049D01*
X365822Y404041D01*
X365830Y404026D01*
X365845Y403999D01*
X365868Y403968D01*
X365895Y403930D01*
X365926Y403896D01*
X365964Y403857D01*
X366007Y403826D01*
X366010Y403823D01*
X366030Y403815D01*
X366053Y403803D01*
X366084Y403792D01*
X366122Y403776D01*
X366168Y403765D01*
X366214Y403757D01*
X366264Y403753D01*
X366283D01*
X366299Y403757D01*
X366333Y403761D01*
X366383Y403773D01*
X366433Y403792D01*
X366491Y403819D01*
X366548Y403857D01*
X366602Y403911D01*
X366610Y403919D01*
X366625Y403942D01*
X366648Y403976D01*
X366675Y404022D01*
X366698Y404084D01*
X366721Y404160D01*
X366736Y404245D01*
X366744Y404341D01*
Y404345D01*
Y404352D01*
Y404368D01*
X366740Y404383D01*
Y404406D01*
X366736Y404433D01*
X366729Y404491D01*
X366709Y404556D01*
X366686Y404625D01*
X366652Y404690D01*
X366606Y404752D01*
X366598Y404760D01*
X366583Y404775D01*
X366552Y404802D01*
X366510Y404829D01*
X366460Y404855D01*
X366398Y404882D01*
X366329Y404898D01*
X366252Y404905D01*
D02*
G37*
G36*
X430400Y342141D02*
X430396D01*
X430389D01*
X430373D01*
X430358Y342137D01*
X430335D01*
X430308Y342133D01*
X430250Y342126D01*
X430185Y342107D01*
X430116Y342084D01*
X430051Y342049D01*
X429989Y342003D01*
X429982Y341995D01*
X429966Y341980D01*
X429939Y341949D01*
X429913Y341907D01*
X429886Y341857D01*
X429859Y341795D01*
X429843Y341726D01*
X429836Y341650D01*
Y341630D01*
X429840Y341615D01*
X429843Y341577D01*
X429855Y341527D01*
X429874Y341473D01*
X429901Y341411D01*
X429939Y341354D01*
X429989Y341296D01*
X429997Y341289D01*
X430016Y341273D01*
X430051Y341250D01*
X430093Y341223D01*
X430151Y341196D01*
X430220Y341173D01*
X430297Y341158D01*
X430385Y341150D01*
X430393D01*
X430412D01*
X430442Y341154D01*
X430481Y341158D01*
X430531Y341166D01*
X430581Y341177D01*
X430634Y341193D01*
X430692Y341216D01*
X430700Y341219D01*
X430715Y341227D01*
X430742Y341243D01*
X430773Y341266D01*
X430811Y341293D01*
X430846Y341323D01*
X430884Y341362D01*
X430915Y341404D01*
X430919Y341408D01*
X430926Y341427D01*
X430938Y341450D01*
X430949Y341481D01*
X430965Y341519D01*
X430976Y341565D01*
X430984Y341611D01*
X430988Y341661D01*
Y341680D01*
X430984Y341696D01*
X430980Y341730D01*
X430969Y341780D01*
X430949Y341830D01*
X430922Y341888D01*
X430884Y341945D01*
X430830Y341999D01*
X430823Y342007D01*
X430799Y342022D01*
X430765Y342045D01*
X430719Y342072D01*
X430657Y342095D01*
X430581Y342118D01*
X430496Y342133D01*
X430400Y342141D01*
D02*
G37*
%LPD*%
D13*
X533102Y353350D02*
X560898D01*
Y379650D01*
X533102D02*
X560898D01*
X533102Y353350D02*
Y379650D01*
X244602Y249417D02*
X347949D01*
Y325008D01*
X244602D02*
X347949D01*
X244602Y249417D02*
Y325008D01*
X308787Y362287D02*
Y385713D01*
Y362287D02*
X332213D01*
Y385713D01*
X308787D02*
X332213D01*
X295823Y415638D02*
Y420362D01*
X286177D02*
X295823D01*
X286177Y415638D02*
Y420362D01*
Y415638D02*
X295823D01*
Y407138D02*
Y411862D01*
X286177D02*
X295823D01*
X286177Y407138D02*
Y411862D01*
Y407138D02*
X295823D01*
X244602Y395067D02*
X278697D01*
X244602Y355933D02*
Y395067D01*
Y355933D02*
X278697D01*
Y395067D01*
X334638Y223823D02*
X339362D01*
X334638Y214177D02*
Y223823D01*
Y214177D02*
X339362D01*
Y223823D01*
X326638D02*
X331362D01*
X326638Y214177D02*
Y223823D01*
Y214177D02*
X331362D01*
Y223823D01*
X302678Y203736D02*
Y208264D01*
X294322D02*
X302678D01*
X294322Y203736D02*
Y208264D01*
Y203736D02*
X302678D01*
X337713Y166287D02*
Y189713D01*
X314287D02*
X337713D01*
X314287Y166287D02*
Y189713D01*
Y166287D02*
X337713D01*
X460193Y323087D02*
X471807D01*
X460193Y308913D02*
Y323087D01*
Y308913D02*
X471807D01*
Y323087D01*
X487402Y406945D02*
Y429583D01*
X467717D02*
X487402D01*
X467717Y406945D02*
Y429583D01*
Y406945D02*
X487402D01*
X244602Y212567D02*
X278697D01*
X244602Y173433D02*
Y212567D01*
Y173433D02*
X278697D01*
Y212567D01*
X347055Y389917D02*
Y417083D01*
Y389917D02*
X378945D01*
Y417083D01*
X347055D02*
X378945D01*
X460902Y406945D02*
Y429583D01*
X441217D02*
X460902D01*
X441217Y406945D02*
Y429583D01*
Y406945D02*
X460902D01*
X416602Y325850D02*
X444398D01*
Y352150D01*
X416602D02*
X444398D01*
X416602Y325850D02*
Y352150D01*
M02*
