G04*
G04 #@! TF.GenerationSoftware,Altium Limited,Altium Designer,21.0.9 (235)*
G04*
G04 Layer_Physical_Order=2*
G04 Layer_Color=36540*
%FSLAX25Y25*%
%MOIN*%
G70*
G04*
G04 #@! TF.SameCoordinates,6D6A50FB-4127-4E02-A886-79615C3BA6FE*
G04*
G04*
G04 #@! TF.FilePolarity,Positive*
G04*
G01*
G75*
%ADD14C,0.01000*%
%ADD62C,0.03000*%
%ADD63C,0.02000*%
%ADD65C,0.04000*%
%ADD66C,0.05000*%
%ADD67C,0.06102*%
%ADD70C,0.05000*%
D14*
X464591Y284939D02*
Y287834D01*
X515447Y338689D01*
X463826Y284174D02*
X464591Y284939D01*
X455000Y315500D02*
Y320450D01*
X308550Y313000D02*
X313050Y308500D01*
X308500Y313000D02*
X308550D01*
X351500Y289141D02*
Y303500D01*
X350568Y288209D02*
X351500Y289141D01*
X350568Y274932D02*
Y288209D01*
X425765Y318715D02*
X442550Y335500D01*
X448450D01*
X461450Y348500D01*
X463550D01*
X306500Y201500D02*
X320500Y215500D01*
X282000Y201500D02*
X306500D01*
X455000Y320450D02*
X544633Y410083D01*
X545201D01*
X367000Y260621D02*
X385621Y242000D01*
X367000Y260621D02*
Y268000D01*
X417000Y320000D02*
X417550Y320550D01*
Y324000D02*
X463969Y370419D01*
X417550Y320550D02*
Y324000D01*
X420050Y317000D02*
X448550Y345500D01*
X420050Y312550D02*
Y317000D01*
X420000Y312500D02*
X420050Y312550D01*
X425000Y316000D02*
X425765Y316765D01*
Y318715D01*
X463969Y370419D02*
X467868D01*
X407157Y207000D02*
X415500D01*
X397500Y216657D02*
X407157Y207000D01*
X387295Y232827D02*
X408621Y211500D01*
X421500D01*
X339500Y210000D02*
Y264500D01*
X334000Y270000D02*
X339500Y264500D01*
X350568Y274932D02*
X385000Y240500D01*
X321500Y311728D02*
X324000Y309228D01*
Y304985D02*
Y309228D01*
X321500Y311728D02*
Y312385D01*
X314864Y312000D02*
X331483Y295381D01*
X313050Y308500D02*
X316243D01*
X314500Y312000D02*
X314864D01*
X330000Y210500D02*
Y265500D01*
X325500Y270000D02*
X330000Y265500D01*
X331500Y286879D02*
Y293243D01*
X334500Y288500D02*
X384157Y238843D01*
X331500Y286879D02*
X382536Y235843D01*
X333000Y287500D02*
Y293864D01*
Y287500D02*
X383157Y237343D01*
X334500Y288500D02*
Y297000D01*
X329983Y286017D02*
X381661Y234339D01*
X381052Y232827D02*
X387295D01*
X328483Y285396D02*
X381052Y232827D01*
X329983Y286017D02*
Y294759D01*
X328483Y285396D02*
Y294138D01*
X382536Y235843D02*
X388521D01*
X383157Y237343D02*
X389157D01*
X326983Y284774D02*
X380445Y231312D01*
X386688D01*
X384157Y238843D02*
X389778D01*
X326983Y284774D02*
Y293517D01*
X381661Y234339D02*
X387904D01*
X307275Y164275D02*
X319000Y176000D01*
X344500D01*
X350500Y170000D01*
X515447Y338689D02*
X552189D01*
X473908Y293514D02*
X486393Y306000D01*
X498550D01*
X529740Y337189D01*
X577500Y356000D02*
X578500D01*
X575000D02*
X577500D01*
X567735Y360735D02*
X568500Y361500D01*
X566149Y360735D02*
X567735D01*
X476500Y310500D02*
X526500Y360500D01*
X565914D02*
X566149Y360735D01*
X526500Y360500D02*
X565914D01*
X570000Y366500D02*
X572000Y364500D01*
X566000Y366500D02*
X570000D01*
X572000Y358500D02*
Y364500D01*
X552189Y338689D02*
X572000Y358500D01*
X565500Y376500D02*
X573500Y368500D01*
X552811Y337189D02*
X573500Y357879D01*
Y368500D01*
X529740Y337189D02*
X552811D01*
X480926Y294500D02*
X513500D01*
X575000Y356000D01*
X470000Y284000D02*
X473908Y287908D01*
Y293514D01*
X479582Y293157D02*
X480926Y294500D01*
X478500Y293157D02*
X479582D01*
X519837Y390387D02*
Y394719D01*
X447950Y318500D02*
X519837Y390387D01*
Y394719D02*
X535201Y410083D01*
X430500Y318500D02*
X447950D01*
X463550Y348500D02*
X525133Y410083D01*
X525201D01*
X448550Y345500D02*
X448950D01*
X464000Y360550D02*
Y361950D01*
X448950Y345500D02*
X464000Y360550D01*
Y361950D02*
X487578Y385528D01*
X490646D01*
X515201Y410083D01*
X487837Y390387D02*
Y392719D01*
X467868Y370419D02*
X487837Y390387D01*
Y392719D02*
X505201Y410083D01*
X439000Y236500D02*
X440617Y234883D01*
X443000Y231000D02*
Y231891D01*
X440617Y234274D02*
Y234883D01*
Y234274D02*
X443000Y231891D01*
X396364Y236500D02*
X439000D01*
X331500Y311500D02*
X332000Y311000D01*
Y299500D02*
Y311000D01*
X397500Y216657D02*
Y220500D01*
X386688Y231312D02*
X397500Y220500D01*
X410019Y228500D02*
X421000D01*
X414136Y226000D02*
X417000Y223136D01*
X400500Y226000D02*
X414136D01*
X417000Y222500D02*
Y223136D01*
X405743Y216500D02*
X433500D01*
X402364Y222000D02*
X409000D01*
X388521Y235843D02*
X402364Y222000D01*
X387904Y234339D02*
X405743Y216500D01*
X390864Y242000D02*
X396364Y236500D01*
X407000Y233000D02*
X413932D01*
X414000Y232932D01*
X409020Y227500D02*
X410019Y228500D01*
X385621Y242000D02*
X390864D01*
X401121Y227500D02*
X409020D01*
X389157Y237343D02*
X400500Y226000D01*
X389778Y238843D02*
X401121Y227500D01*
X404061Y230061D02*
X407000Y233000D01*
X385000Y240500D02*
X390243D01*
X400682Y230061D01*
X404061D01*
X332000Y299500D02*
X334500Y297000D01*
X304500Y305500D02*
X315000D01*
X306000Y307000D02*
X315621D01*
X324000Y304985D02*
X332983Y296002D01*
Y293881D02*
Y296002D01*
X331483Y293260D02*
Y295381D01*
X315621Y307000D02*
X328483Y294138D01*
X316243Y308500D02*
X329983Y294759D01*
X315000Y305500D02*
X326983Y293517D01*
X332983Y293881D02*
X333000Y293864D01*
X331483Y293260D02*
X331500Y293243D01*
X299500Y313500D02*
X306000Y307000D01*
X300500Y309500D02*
X304500Y305500D01*
X288974Y313739D02*
X294311D01*
X288617Y313383D02*
X288974Y313739D01*
X298550Y309500D02*
X300500D01*
X294311Y313739D02*
X298550Y309500D01*
D62*
X433385Y255543D02*
X440510Y248418D01*
X433385Y255543D02*
Y256115D01*
X446806Y242694D02*
X451000Y238500D01*
X440509Y248419D02*
Y248427D01*
Y248419D02*
X446234Y242694D01*
X446806D01*
X451000Y223500D02*
Y238500D01*
X285424Y370571D02*
X287761D01*
X280853Y366000D02*
X285424Y370571D01*
X280311Y366000D02*
X280853D01*
X287761Y370571D02*
X291345Y374155D01*
X423000Y362500D02*
Y379500D01*
X462000Y306500D02*
X479000Y323500D01*
X462000Y295000D02*
Y306500D01*
X511500Y225000D02*
Y236500D01*
X511117Y236883D02*
X511500Y236500D01*
X502500Y283500D02*
Y291000D01*
Y283500D02*
X511500Y274500D01*
X503000Y266000D02*
X511500Y274500D01*
X503000Y240000D02*
Y266000D01*
Y240000D02*
X506117Y236883D01*
X511117D01*
X510959Y225000D02*
X511500D01*
X498500Y223500D02*
X509459D01*
X510959Y225000D01*
X490000Y231500D02*
X498000Y223500D01*
X498500D01*
X451000D02*
X459000Y231500D01*
X490000D01*
X431180Y258320D02*
X433385Y256115D01*
Y271885D01*
X440000Y278500D01*
X407000Y346500D02*
X423000Y362500D01*
X407000Y326000D02*
Y346500D01*
X399500Y266757D02*
Y387154D01*
Y266757D02*
X407937Y258320D01*
X431180D01*
X399500Y387154D02*
X407423Y395077D01*
X481000Y225500D02*
X500000Y206500D01*
X291345Y374155D02*
X293000Y375810D01*
X291345Y374155D02*
X291500Y374000D01*
Y365500D02*
Y374000D01*
Y365500D02*
X292500Y364500D01*
Y344000D02*
Y364500D01*
X304500Y398000D02*
X321021D01*
X324456Y394565D02*
X341518D01*
X321021Y398000D02*
X324456Y394565D01*
X293000Y386500D02*
X304500Y398000D01*
X293000Y375810D02*
Y386500D01*
D63*
X451000Y290500D02*
Y291222D01*
X454500Y294722D01*
Y295500D01*
X440000Y295000D02*
X446737Y288263D01*
X445500Y278500D02*
X451000Y284000D01*
Y290500D01*
X440000Y278500D02*
X445500D01*
X448763Y288263D02*
X451000Y290500D01*
X488500Y349000D02*
X495500Y356000D01*
X518000Y363000D02*
Y369000D01*
X511000Y356000D02*
X518000Y363000D01*
X495500Y356000D02*
X511000D01*
X446737Y288263D02*
X448763D01*
D65*
X346500Y368000D02*
X351000Y372500D01*
X305000Y368000D02*
X346500D01*
D66*
X437000Y372000D02*
X464000Y399000D01*
Y418500D01*
X460500Y258000D02*
X495500D01*
X453500Y251000D02*
X460500Y258000D01*
D67*
X351000Y372500D02*
D03*
X505201Y410083D02*
D03*
X515201D02*
D03*
X525201D02*
D03*
X545201D02*
D03*
X535201D02*
D03*
D70*
X463826Y284174D02*
D03*
X454500Y295500D02*
D03*
X440000Y295000D02*
D03*
X421000Y228500D02*
D03*
X470000Y284000D02*
D03*
X498500Y223500D02*
D03*
X455000Y315500D02*
D03*
X511500Y236500D02*
D03*
X440000Y278500D02*
D03*
X443000Y231000D02*
D03*
X417000Y320000D02*
D03*
X478500Y293157D02*
D03*
X502500Y291000D02*
D03*
X511500Y225000D02*
D03*
X430500Y318500D02*
D03*
X511500Y274500D02*
D03*
X451000Y223500D02*
D03*
X414000Y232932D02*
D03*
X440510Y248418D02*
D03*
X417000Y222500D02*
D03*
X481000Y225500D02*
D03*
X425000Y316000D02*
D03*
X433500Y216500D02*
D03*
X409000Y222000D02*
D03*
X476500Y310500D02*
D03*
X462000Y295000D02*
D03*
X420000Y312500D02*
D03*
X488500Y349000D02*
D03*
X437000Y372000D02*
D03*
X308500Y313000D02*
D03*
X351500Y303500D02*
D03*
X280311Y366000D02*
D03*
X320500Y215500D02*
D03*
X282000Y201500D02*
D03*
X464000Y418500D02*
D03*
X423000Y379500D02*
D03*
X518000Y369000D02*
D03*
X495500Y258000D02*
D03*
X453500Y251000D02*
D03*
X479000Y323500D02*
D03*
X367000Y268000D02*
D03*
X407000Y326000D02*
D03*
X415500Y207000D02*
D03*
X421500Y211500D02*
D03*
X334000Y270000D02*
D03*
X314500Y312000D02*
D03*
X321500Y312385D02*
D03*
X325000Y271000D02*
D03*
X339500Y210000D02*
D03*
X330000Y210500D02*
D03*
X307275Y164275D02*
D03*
X350500Y170000D02*
D03*
X577500Y356000D02*
D03*
X568500Y361500D02*
D03*
X564500Y366500D02*
D03*
X565500Y376500D02*
D03*
X500000Y206500D02*
D03*
X331500Y311500D02*
D03*
X288617Y313383D02*
D03*
X299500Y313500D02*
D03*
X407423Y395077D02*
D03*
X292500Y344000D02*
D03*
X305000Y368000D02*
D03*
X341518Y394565D02*
D03*
M02*
