G04*
G04 #@! TF.GenerationSoftware,Altium Limited,Altium Designer,21.0.9 (235)*
G04*
G04 Layer_Color=65535*
%FSLAX25Y25*%
%MOIN*%
G70*
G04*
G04 #@! TF.SameCoordinates,6D6A50FB-4127-4E02-A886-79615C3BA6FE*
G04*
G04*
G04 #@! TF.FilePolarity,Positive*
G04*
G01*
G75*
%ADD10C,0.02362*%
%ADD11C,0.00984*%
%ADD12C,0.00600*%
%ADD13C,0.00787*%
%ADD14C,0.01000*%
%ADD15C,0.00300*%
G36*
X456047Y213721D02*
Y212721D01*
X454547D01*
Y213721D01*
X456047D01*
D02*
G37*
G36*
X430266Y228159D02*
Y229660D01*
X429266D01*
Y228159D01*
X430266D01*
D02*
G37*
G36*
Y247845D02*
Y249344D01*
X429266D01*
Y247845D01*
X430266D01*
D02*
G37*
G36*
Y267530D02*
Y269029D01*
X429266D01*
Y267530D01*
X430266D01*
D02*
G37*
G36*
Y287215D02*
Y288715D01*
X429266D01*
Y287215D01*
X430266D01*
D02*
G37*
G36*
X454078Y305121D02*
Y306121D01*
X452578D01*
Y305121D01*
X454078D01*
D02*
G37*
G36*
X473763D02*
Y306121D01*
X472263D01*
Y305121D01*
X473763D01*
D02*
G37*
G36*
X475732Y213721D02*
Y212721D01*
X474232D01*
Y213721D01*
X475732D01*
D02*
G37*
G36*
X495417D02*
Y212721D01*
X493917D01*
Y213721D01*
X495417D01*
D02*
G37*
G36*
X521666Y226191D02*
Y227691D01*
X522666D01*
Y226191D01*
X521666D01*
D02*
G37*
G36*
Y245876D02*
Y247376D01*
X522666D01*
Y245876D01*
X521666D01*
D02*
G37*
G36*
Y265561D02*
Y267061D01*
X522666D01*
Y265561D01*
X521666D01*
D02*
G37*
G36*
Y285246D02*
Y286746D01*
X522666D01*
Y285246D01*
X521666D01*
D02*
G37*
G36*
X493448Y305121D02*
Y306121D01*
X491948D01*
Y305121D01*
X493448D01*
D02*
G37*
D10*
X487653Y351661D02*
X487209Y352585D01*
X486210Y352813D01*
X485408Y352174D01*
Y351149D01*
X486210Y350510D01*
X487209Y350738D01*
X487653Y351661D01*
D11*
X497201Y346957D02*
X496463Y347383D01*
Y346531D01*
X497201Y346957D01*
X563299Y356598D02*
X562561Y357025D01*
Y356172D01*
X563299Y356598D01*
X440992Y185992D02*
X440254Y186418D01*
Y185566D01*
X440992Y185992D01*
X275468Y246760D02*
X274730Y247186D01*
Y246334D01*
X275468Y246760D01*
X307410Y379906D02*
X306671Y380332D01*
Y379479D01*
X307410Y379906D01*
X280764Y387390D02*
X280026Y387816D01*
Y386964D01*
X280764Y387390D01*
X340075Y172095D02*
X339337Y172521D01*
Y171668D01*
X340075Y172095D01*
X462653Y325252D02*
X461915Y325678D01*
Y324826D01*
X462653Y325252D01*
X400185Y382685D02*
X399447Y383111D01*
Y382259D01*
X400185Y382685D01*
X411480Y411500D02*
X410742Y411926D01*
Y411074D01*
X411480Y411500D01*
X480020Y404091D02*
X479282Y404517D01*
Y403664D01*
X480020Y404091D01*
X280764Y204890D02*
X280026Y205316D01*
Y204464D01*
X280764Y204890D01*
X344988Y412752D02*
X344250Y413178D01*
Y412326D01*
X344988Y412752D01*
X453520Y404091D02*
X452781Y404517D01*
Y403664D01*
X453520Y404091D01*
X446799Y329098D02*
X446061Y329525D01*
Y328672D01*
X446799Y329098D01*
X575693Y402524D02*
X574955Y402950D01*
Y402097D01*
X575693Y402524D01*
D12*
X515816Y295730D02*
Y299271D01*
X436116Y295730D02*
Y299271D01*
Y219571D02*
X439657D01*
X515816D02*
Y223112D01*
X512275Y299271D02*
X515816D01*
X436116D02*
X439657D01*
X436116Y219571D02*
Y223112D01*
X512275Y219571D02*
X515816D01*
D13*
X466590Y388276D02*
X490410D01*
X466590Y347724D02*
X490410D01*
X466590D02*
Y388276D01*
X490410Y347724D02*
Y388276D01*
X545957Y353744D02*
X548043D01*
X545957Y379256D02*
X548043D01*
X560697Y324504D02*
X580185D01*
X560697Y242496D02*
Y324504D01*
Y242496D02*
X580185D01*
Y324504D01*
X516484Y173433D02*
Y183433D01*
X434516Y173433D02*
X516484D01*
X434516D02*
Y183433D01*
X516484D01*
X483596Y202200D02*
X485565Y204169D01*
X485565D01*
X487533Y202200D01*
X483596D02*
X487533D01*
X483596Y204169D02*
X487533D01*
X244996Y251583D02*
X271433D01*
X342929D02*
X345783D01*
Y312961D02*
Y322843D01*
Y251583D02*
Y261465D01*
X244996Y322843D02*
X271433D01*
X342929D02*
X345783D01*
X244996Y251583D02*
Y322843D01*
X310461Y381972D02*
Y384039D01*
Y363961D02*
Y366028D01*
X328472Y363961D02*
X330539D01*
X310461D02*
X312528D01*
X330539Y381972D02*
Y384039D01*
Y363961D02*
Y366028D01*
X328472Y384039D02*
X330539D01*
X310461D02*
X312528D01*
X287850Y421543D02*
X294150D01*
X287850Y414457D02*
X294150D01*
X287850Y413043D02*
X294150D01*
X287850Y405957D02*
X294150D01*
X259760Y357508D02*
X268421D01*
X259760Y393492D02*
X268421D01*
X485622Y321713D02*
Y323287D01*
X488378Y321713D02*
Y323287D01*
X333457Y215850D02*
Y222150D01*
X340543Y215850D02*
Y222150D01*
X325457Y215850D02*
Y222150D01*
X332543Y215850D02*
Y222150D01*
X294716Y202555D02*
X302284D01*
X294716Y209445D02*
X302284D01*
X336039Y167961D02*
Y170028D01*
Y185972D02*
Y188039D01*
X315961D02*
X318028D01*
X333972D02*
X336039D01*
X315961Y167961D02*
Y170028D01*
Y185972D02*
Y188039D01*
Y167961D02*
X318028D01*
X333972D02*
X336039D01*
X459110Y309248D02*
Y322634D01*
X472890Y309504D02*
Y322890D01*
X407469Y369398D02*
Y381602D01*
X403532Y369398D02*
Y381602D01*
Y369398D02*
X407469D01*
X403532Y381602D02*
X407469D01*
X410102Y404512D02*
Y408449D01*
X397898Y404512D02*
Y408449D01*
X410102D01*
X397898Y404512D02*
X410102D01*
X533410Y310032D02*
Y313968D01*
Y310032D02*
X534590D01*
X533410Y313968D02*
X534590D01*
X533410Y323031D02*
Y326969D01*
Y323031D02*
X534590D01*
X533410Y326969D02*
X534590D01*
X372756Y252496D02*
X392244D01*
Y334504D01*
X372756D02*
X392244D01*
X372756Y252496D02*
Y334504D01*
X475591Y428402D02*
X479528D01*
X469685Y411669D02*
Y420035D01*
X485433Y411669D02*
Y420035D01*
X469685Y411669D02*
X471654D01*
X483465D02*
X485433D01*
X259760Y175008D02*
X268421D01*
X259760Y210992D02*
X268421D01*
X393004Y210256D02*
Y229744D01*
X350996D02*
X393004D01*
X350996Y210256D02*
Y229744D01*
Y210256D02*
X393004D01*
X355716Y390311D02*
Y416689D01*
Y390311D02*
X370284D01*
Y416689D01*
X355716D02*
X370284D01*
X344996Y357756D02*
X387004D01*
X344996D02*
Y377244D01*
X387004D01*
Y357756D02*
Y377244D01*
X449090Y428402D02*
X453027D01*
X443185Y411669D02*
Y420035D01*
X458933Y411669D02*
Y420035D01*
X443185Y411669D02*
X445154D01*
X456965D02*
X458933D01*
X580185Y173933D02*
Y205941D01*
X560697Y173933D02*
Y205941D01*
X580185D01*
X560697Y173933D02*
X580185D01*
X350996Y192921D02*
X393004D01*
Y173433D02*
Y192921D01*
X350996Y173433D02*
X393004D01*
X350996D02*
Y192921D01*
X429457Y326244D02*
X431543D01*
X429457Y351756D02*
X431543D01*
X499217Y405083D02*
Y415083D01*
X581185D01*
Y405083D02*
Y415083D01*
X499217Y405083D02*
X581185D01*
X331405Y408819D02*
Y411181D01*
D14*
X420501Y314499D02*
Y309501D01*
X421501Y308501D01*
X423500D01*
X424500Y309501D01*
Y314499D01*
X426499Y308501D02*
X428499D01*
X427499D01*
Y314499D01*
X426499Y313499D01*
X441002Y383499D02*
Y378501D01*
X442001Y377501D01*
X444001D01*
X445000Y378501D01*
Y383499D01*
X450998Y377501D02*
X447000D01*
X450998Y381500D01*
Y382499D01*
X449999Y383499D01*
X447999D01*
X447000Y382499D01*
X259003Y226501D02*
Y232499D01*
X262002D01*
X263001Y231499D01*
Y229500D01*
X262002Y228500D01*
X259003D01*
X261002D02*
X263001Y226501D01*
X268999D02*
X265001D01*
X268999Y230500D01*
Y231499D01*
X268000Y232499D01*
X266000D01*
X265001Y231499D01*
X270999D02*
X271998Y232499D01*
X273998D01*
X274997Y231499D01*
Y230500D01*
X273998Y229500D01*
X274997Y228500D01*
Y227501D01*
X273998Y226501D01*
X271998D01*
X270999Y227501D01*
Y228500D01*
X271998Y229500D01*
X270999Y230500D01*
Y231499D01*
X271998Y229500D02*
X273998D01*
X537699Y388998D02*
X535699D01*
X536699D01*
Y384000D01*
X535699Y383000D01*
X534700D01*
X533700Y384000D01*
X539698Y383000D02*
X541697D01*
X540698D01*
Y388998D01*
X539698Y387998D01*
X548695Y383000D02*
X544696D01*
X548695Y386999D01*
Y387998D01*
X547695Y388998D01*
X545696D01*
X544696Y387998D01*
X564699Y334498D02*
X562699D01*
X563699D01*
Y329500D01*
X562699Y328500D01*
X561700D01*
X560700Y329500D01*
X566698Y328500D02*
X568697D01*
X567698D01*
Y334498D01*
X566698Y333498D01*
X571696Y328500D02*
X573696D01*
X572696D01*
Y334498D01*
X571696Y333498D01*
X423501Y191499D02*
X421502D01*
X422502D01*
Y186501D01*
X421502Y185501D01*
X420502D01*
X419502Y186501D01*
X425500Y185501D02*
X427500D01*
X426500D01*
Y191499D01*
X425500Y190499D01*
X430499D02*
X431498Y191499D01*
X433498D01*
X434498Y190499D01*
Y186501D01*
X433498Y185501D01*
X431498D01*
X430499Y186501D01*
Y190499D01*
X494002Y191501D02*
Y197499D01*
X497002D01*
X498001Y196499D01*
Y194500D01*
X497002Y193500D01*
X494002D01*
X496002D02*
X498001Y191501D01*
X500000D02*
X502000D01*
X501000D01*
Y197499D01*
X500000Y196499D01*
X508998Y197499D02*
X504999D01*
Y194500D01*
X506998Y195500D01*
X507998D01*
X508998Y194500D01*
Y192501D01*
X507998Y191501D01*
X505999D01*
X504999Y192501D01*
X474502Y199999D02*
Y194001D01*
X477501D01*
X478501Y195001D01*
Y198999D01*
X477501Y199999D01*
X474502D01*
X484499Y198999D02*
X483499Y199999D01*
X481500D01*
X480500Y198999D01*
Y198000D01*
X481500Y197000D01*
X483499D01*
X484499Y196000D01*
Y195001D01*
X483499Y194001D01*
X481500D01*
X480500Y195001D01*
X486498Y194001D02*
X488498D01*
X487498D01*
Y199999D01*
X486498Y198999D01*
X245200Y328400D02*
Y334398D01*
X247199Y332399D01*
X249199Y334398D01*
Y328400D01*
X251198Y334398D02*
Y328400D01*
X254197D01*
X255197Y329400D01*
Y333398D01*
X254197Y334398D01*
X251198D01*
X257196Y328400D02*
X259195D01*
X258196D01*
Y334398D01*
X257196Y333398D01*
X297502Y394499D02*
Y389501D01*
X298501Y388501D01*
X300501D01*
X301500Y389501D01*
Y394499D01*
X303500Y393499D02*
X304499Y394499D01*
X306499D01*
X307498Y393499D01*
Y392500D01*
X306499Y391500D01*
X305499D01*
X306499D01*
X307498Y390500D01*
Y389501D01*
X306499Y388501D01*
X304499D01*
X303500Y389501D01*
X294857Y372207D02*
X288859D01*
Y375206D01*
X289859Y376206D01*
X291858D01*
X292858Y375206D01*
Y372207D01*
Y374206D02*
X294857Y376206D01*
Y382204D02*
Y378205D01*
X290858Y382204D01*
X289859D01*
X288859Y381204D01*
Y379205D01*
X289859Y378205D01*
X294857Y388202D02*
Y384203D01*
X290858Y388202D01*
X289859D01*
X288859Y387202D01*
Y385203D01*
X289859Y384203D01*
X290503Y355501D02*
Y361499D01*
X293502D01*
X294501Y360499D01*
Y358500D01*
X293502Y357500D01*
X290503D01*
X292502D02*
X294501Y355501D01*
X300499D02*
X296501D01*
X300499Y359500D01*
Y360499D01*
X299500Y361499D01*
X297500D01*
X296501Y360499D01*
X302499D02*
X303498Y361499D01*
X305498D01*
X306497Y360499D01*
Y359500D01*
X305498Y358500D01*
X304498D01*
X305498D01*
X306497Y357500D01*
Y356501D01*
X305498Y355501D01*
X303498D01*
X302499Y356501D01*
X283999Y409503D02*
X278001D01*
Y412502D01*
X279001Y413501D01*
X281000D01*
X282000Y412502D01*
Y409503D01*
Y411502D02*
X283999Y413501D01*
Y419499D02*
Y415501D01*
X280000Y419499D01*
X279001D01*
X278001Y418500D01*
Y416500D01*
X279001Y415501D01*
Y421499D02*
X278001Y422498D01*
Y424498D01*
X279001Y425497D01*
X282999D01*
X283999Y424498D01*
Y422498D01*
X282999Y421499D01*
X279001D01*
X284502Y398501D02*
Y404499D01*
X287501D01*
X288501Y403499D01*
Y401500D01*
X287501Y400500D01*
X284502D01*
X286502D02*
X288501Y398501D01*
X294499D02*
X290500D01*
X294499Y402500D01*
Y403499D01*
X293499Y404499D01*
X291500D01*
X290500Y403499D01*
X296498Y398501D02*
X298498D01*
X297498D01*
Y404499D01*
X296498Y403499D01*
X249199Y404498D02*
X247199D01*
X248199D01*
Y399500D01*
X247199Y398500D01*
X246200D01*
X245200Y399500D01*
X251198D02*
X252198Y398500D01*
X254197D01*
X255197Y399500D01*
Y403498D01*
X254197Y404498D01*
X252198D01*
X251198Y403498D01*
Y402499D01*
X252198Y401499D01*
X255197D01*
X485600Y330453D02*
Y336451D01*
X488599D01*
X489599Y335451D01*
Y333452D01*
X488599Y332452D01*
X485600D01*
X487599D02*
X489599Y330453D01*
X495597Y336451D02*
X493597Y335451D01*
X491598Y333452D01*
Y331452D01*
X492598Y330453D01*
X494597D01*
X495597Y331452D01*
Y332452D01*
X494597Y333452D01*
X491598D01*
X328003Y228001D02*
Y233999D01*
X331002D01*
X332001Y232999D01*
Y231000D01*
X331002Y230000D01*
X328003D01*
X330002D02*
X332001Y228001D01*
X337999D02*
X334001D01*
X337999Y232000D01*
Y232999D01*
X337000Y233999D01*
X335000D01*
X334001Y232999D01*
X339999Y229001D02*
X340998Y228001D01*
X342998D01*
X343997Y229001D01*
Y232999D01*
X342998Y233999D01*
X340998D01*
X339999Y232999D01*
Y232000D01*
X340998Y231000D01*
X343997D01*
X321503Y205001D02*
Y210999D01*
X324502D01*
X325501Y209999D01*
Y208000D01*
X324502Y207000D01*
X321503D01*
X323502D02*
X325501Y205001D01*
X327501Y209999D02*
X328500Y210999D01*
X330500D01*
X331499Y209999D01*
Y209000D01*
X330500Y208000D01*
X329500D01*
X330500D01*
X331499Y207000D01*
Y206001D01*
X330500Y205001D01*
X328500D01*
X327501Y206001D01*
X333499Y209999D02*
X334498Y210999D01*
X336498D01*
X337497Y209999D01*
Y206001D01*
X336498Y205001D01*
X334498D01*
X333499Y206001D01*
Y209999D01*
X294900Y212800D02*
Y218798D01*
X297899D01*
X298899Y217798D01*
Y215799D01*
X297899Y214799D01*
X294900D01*
X296899D02*
X298899Y212800D01*
X304897D02*
X300898D01*
X304897Y216799D01*
Y217798D01*
X303897Y218798D01*
X301898D01*
X300898Y217798D01*
X306896Y218798D02*
X310895D01*
Y217798D01*
X306896Y213800D01*
Y212800D01*
X302502Y189499D02*
Y184501D01*
X303501Y183501D01*
X305501D01*
X306500Y184501D01*
Y189499D01*
X311499Y183501D02*
Y189499D01*
X308500Y186500D01*
X312498D01*
X459700Y335198D02*
Y334198D01*
X461699Y332199D01*
X463699Y334198D01*
Y335198D01*
X461699Y332199D02*
Y329200D01*
X465698D02*
X467697D01*
X466698D01*
Y335198D01*
X465698Y334198D01*
X396400Y392698D02*
Y387700D01*
X397400Y386700D01*
X399399D01*
X400399Y387700D01*
Y392698D01*
X402398D02*
X406397D01*
Y391698D01*
X402398Y387700D01*
Y386700D01*
X398400Y422598D02*
Y417600D01*
X399400Y416600D01*
X401399D01*
X402399Y417600D01*
Y422598D01*
X408397D02*
X404398D01*
Y419599D01*
X406397Y420599D01*
X407397D01*
X408397Y419599D01*
Y417600D01*
X407397Y416600D01*
X405398D01*
X404398Y417600D01*
X390499Y408999D02*
X391499Y409998D01*
Y411998D01*
X390499Y412997D01*
X386501D01*
X385501Y411998D01*
Y409998D01*
X386501Y408999D01*
X390499Y406999D02*
X391499Y406000D01*
Y404000D01*
X390499Y403001D01*
X389500D01*
X388500Y404000D01*
Y405000D01*
Y404000D01*
X387500Y403001D01*
X386501D01*
X385501Y404000D01*
Y406000D01*
X386501Y406999D01*
X391499Y397003D02*
Y401001D01*
X388500D01*
X389500Y399002D01*
Y398002D01*
X388500Y397003D01*
X386501D01*
X385501Y398002D01*
Y400002D01*
X386501Y401001D01*
X528003Y304499D02*
Y298501D01*
X532002D01*
X538000Y304499D02*
X534001D01*
Y298501D01*
X538000D01*
X534001Y301500D02*
X536001D01*
X539999Y304499D02*
Y298501D01*
X542998D01*
X543998Y299501D01*
Y303499D01*
X542998Y304499D01*
X539999D01*
X545997Y298501D02*
X547997D01*
X546997D01*
Y304499D01*
X545997Y303499D01*
X527504Y337499D02*
Y331501D01*
X531502D01*
X537500Y337499D02*
X533502D01*
Y331501D01*
X537500D01*
X533502Y334500D02*
X535501D01*
X539500Y337499D02*
Y331501D01*
X542499D01*
X543498Y332501D01*
Y336499D01*
X542499Y337499D01*
X539500D01*
X549497Y331501D02*
X545498D01*
X549497Y335500D01*
Y336499D01*
X548497Y337499D01*
X546497D01*
X545498Y336499D01*
X386500Y343499D02*
X384501D01*
X385501D01*
Y338501D01*
X384501Y337501D01*
X383501D01*
X382502Y338501D01*
X392498Y343499D02*
X388500D01*
Y340500D01*
X390499Y341500D01*
X391499D01*
X392498Y340500D01*
Y338501D01*
X391499Y337501D01*
X389499D01*
X388500Y338501D01*
X472000Y402534D02*
X470001D01*
X471000D01*
Y397536D01*
X470001Y396536D01*
X469001D01*
X468001Y397536D01*
X473999Y396536D02*
X475999D01*
X474999D01*
Y402534D01*
X473999Y401535D01*
X249199Y221998D02*
X247199D01*
X248199D01*
Y217000D01*
X247199Y216000D01*
X246200D01*
X245200Y217000D01*
X251198Y216000D02*
X253197D01*
X252198D01*
Y221998D01*
X251198Y220998D01*
X256196D02*
X257196Y221998D01*
X259195D01*
X260195Y220998D01*
Y219999D01*
X259195Y218999D01*
X258196D01*
X259195D01*
X260195Y217999D01*
Y217000D01*
X259195Y216000D01*
X257196D01*
X256196Y217000D01*
X354999Y239698D02*
X352999D01*
X353999D01*
Y234700D01*
X352999Y233700D01*
X352000D01*
X351000Y234700D01*
X359997Y233700D02*
Y239698D01*
X356998Y236699D01*
X360997D01*
X344500Y426498D02*
Y421500D01*
X345500Y420500D01*
X347499D01*
X348499Y421500D01*
Y426498D01*
X354497D02*
X352497Y425498D01*
X350498Y423499D01*
Y421500D01*
X351498Y420500D01*
X353497D01*
X354497Y421500D01*
Y422499D01*
X353497Y423499D01*
X350498D01*
X348500Y355499D02*
X346501D01*
X347501D01*
Y350501D01*
X346501Y349501D01*
X345501D01*
X344502Y350501D01*
X350500Y355499D02*
X354498D01*
Y354499D01*
X350500Y350501D01*
Y349501D01*
X446000Y402534D02*
X444001D01*
X445001D01*
Y397536D01*
X444001Y396536D01*
X443001D01*
X442002Y397536D01*
X451998Y396536D02*
X448000D01*
X451998Y400535D01*
Y401535D01*
X450999Y402534D01*
X448999D01*
X448000Y401535D01*
X564699Y215898D02*
X562699D01*
X563699D01*
Y210900D01*
X562699Y209900D01*
X561700D01*
X560700Y210900D01*
X566698Y209900D02*
X568697D01*
X567698D01*
Y215898D01*
X566698Y214898D01*
X574695Y209900D02*
Y215898D01*
X571696Y212899D01*
X575695D01*
X354999Y202898D02*
X352999D01*
X353999D01*
Y197900D01*
X352999Y196900D01*
X352000D01*
X351000Y197900D01*
X356998Y201898D02*
X357998Y202898D01*
X359997D01*
X360997Y201898D01*
Y200899D01*
X359997Y199899D01*
X360997Y198899D01*
Y197900D01*
X359997Y196900D01*
X357998D01*
X356998Y197900D01*
Y198899D01*
X357998Y199899D01*
X356998Y200899D01*
Y201898D01*
X357998Y199899D02*
X359997D01*
X421199Y361498D02*
X419199D01*
X420199D01*
Y356500D01*
X419199Y355500D01*
X418200D01*
X417200Y356500D01*
X427197Y361498D02*
X425197Y360498D01*
X423198Y358499D01*
Y356500D01*
X424198Y355500D01*
X426197D01*
X427197Y356500D01*
Y357499D01*
X426197Y358499D01*
X423198D01*
X503699Y424598D02*
X501699D01*
X502699D01*
Y419600D01*
X501699Y418600D01*
X500700D01*
X499700Y419600D01*
X505698Y423598D02*
X506698Y424598D01*
X508697D01*
X509697Y423598D01*
Y422599D01*
X508697Y421599D01*
X507697D01*
X508697D01*
X509697Y420599D01*
Y419600D01*
X508697Y418600D01*
X506698D01*
X505698Y419600D01*
X320300Y415800D02*
Y421798D01*
X323299D01*
X324299Y420798D01*
Y418799D01*
X323299Y417799D01*
X320300D01*
X326298Y421798D02*
Y415800D01*
X328297Y417799D01*
X330297Y415800D01*
Y421798D01*
X332296Y415800D02*
Y421798D01*
X335295D01*
X336295Y420798D01*
Y418799D01*
X335295Y417799D01*
X332296D01*
X334296D02*
X336295Y415800D01*
D15*
X515165Y308500D02*
X511833Y305168D01*
Y308500D02*
X515165Y305168D01*
X513499Y308500D02*
Y305168D01*
X511833Y306834D02*
X515165D01*
M02*
